<?xml version="1.0" standalone="no"?>
<!DOCTYPE svg PUBLIC "-//W3C//DTD SVG 20010904//EN"
 "http://www.w3.org/TR/2001/REC-SVG-20010904/DTD/svg10.dtd">
<svg version="1.0" xmlns="http://www.w3.org/2000/svg"
 width="1200.000000pt" height="480.000000pt" viewBox="0 0 1200.000000 480.000000"
 preserveAspectRatio="xMidYMid meet">

<g transform="translate(0.000000,480.000000) scale(0.100000,-0.100000)"
fill="#000000" stroke="none">
<path d="M6665 4229 c-148 -3 -630 -9 -1070 -13 -440 -4 -937 -11 -1105 -17
-168 -6 -555 -12 -860 -15 -305 -2 -814 -8 -1130 -12 -619 -10 -628 -10 -738
-66 -50 -25 -87 -79 -72 -107 9 -16 -17 -178 -32 -196 -6 -8 -6 -19 1 -32 7
-12 11 -111 12 -263 0 -134 6 -320 12 -415 13 -185 8 -326 -19 -483 -13 -78
-17 -245 -25 -960 -9 -866 -8 -974 14 -1004 7 -9 41 -24 77 -32 91 -22 1354
-32 3078 -25 301 1 788 7 1082 13 526 10 1828 20 2860 21 540 1 688 -5 1115
-45 317 -30 460 -29 490 4 15 17 3 1060 -15 1193 -12 91 -9 239 10 645 17 347
23 1338 9 1498 l-12 144 -38 25 c-31 20 -70 30 -201 50 -153 22 -204 24 -803
33 -636 9 -1043 23 -1225 41 -233 22 -901 31 -1415 18z m1095 -64 c102 -3 232
-10 290 -15 246 -24 669 -38 1195 -39 532 -2 570 -3 765 -27 113 -14 215 -27
227 -30 39 -10 50 -35 57 -128 l6 -88 -97 6 c-349 21 -1577 30 -3483 24 -151
-1 -475 0 -720 1 -245 2 -645 0 -890 -4 -245 -4 -717 -8 -1050 -10 -584 -3
-952 -15 -1092 -35 -86 -13 -412 -13 -641 -1 -98 6 -270 9 -383 8 l-206 -2 7
30 c3 17 8 65 12 107 6 75 7 78 38 92 98 47 143 51 495 48 184 -1 430 2 545 8
116 6 518 13 895 15 377 3 750 9 829 15 79 6 342 10 585 10 423 -1 1770 17
1811 24 23 4 536 -2 805 -9z m-1055 -359 c193 1 699 2 1125 3 976 3 2073 -6
2210 -19 58 -5 142 -9 186 -10 l82 0 -4 -547 c-3 -302 -9 -642 -14 -758 -21
-455 -23 -618 -10 -725 7 -61 15 -315 19 -605 6 -435 5 -502 -8 -513 -20 -17
-173 -16 -352 3 -420 43 -561 49 -1179 48 -1170 0 -2697 -10 -2709 -18 -7 -4
-454 -10 -994 -13 -1294 -7 -1231 -7 -2312 1 -729 5 -951 10 -990 20 l-50 13
-7 55 c-4 30 -3 439 2 909 7 685 12 872 24 940 30 175 38 303 27 453 -5 78
-13 271 -17 428 l-7 286 84 7 c46 4 233 2 414 -4 332 -11 703 -14 727 -5 7 2
105 11 217 20 156 12 440 17 1210 21 553 3 1089 9 1191 13 102 4 320 5 485 2
165 -3 458 -5 650 -5z"/>
</g>
</svg>
