<?xml version="1.0" encoding="utf-8"?>
<svg height="36" preserveAspectRatio="xMidYMid meet" viewBox="0 0 36 36" width="36" xmlns="http://www.w3.org/2000/svg">
  <path d="M 31.541 22.317 C 31.574 25.758 30.375 29.098 28.162 31.734 L 28.162 34.775 C 28.169 35.415 27.674 35.949 27.035 35.992 L 11.367 35.992 C 10.727 35.949 10.232 35.415 10.24 34.775 L 10.24 32.613 C 9.34 31.786 8.58 30.819 7.987 29.752 C 7.175 28.361 6.629 26.834 6.376 25.246 L 1.127 19.028 C 0.385 18.253 -0.021 17.216 0.001 16.144 C 0.003 15.027 0.458 13.958 1.262 13.182 C 2.914 11.561 5.558 11.561 7.21 13.182 L 9.012 14.961 L 9.012 3.697 C 9.086 1.589 10.847 -0.062 12.955 0.002 C 15.061 -0.062 16.823 1.589 16.897 3.697 L 16.897 9.541 C 16.905 9.534 16.912 9.527 16.92 9.52 C 17.296 9.174 17.908 8.76 18.46 8.52 C 19.009 8.281 19.69 8.148 20.22 8.08 C 20.675 8.022 21.052 8.04 21.46 8.08 C 21.866 8.12 22.273 8.2 22.66 8.32 C 23.046 8.44 23.43 8.6 23.78 8.8 C 24.13 9 24.464 9.204 24.76 9.52 C 25.091 9.872 25.463 10.476 25.64 10.86 C 25.645 10.87 25.649 10.881 25.654 10.891 C 25.683 10.887 25.712 10.883 25.74 10.88 C 26.258 10.817 26.667 10.835 27.14 10.88 C 27.627 10.926 28.142 11.008 28.62 11.16 C 29.102 11.313 29.64 11.562 30.02 11.8 C 30.342 12.002 30.574 12.172 30.8 12.46 C 31.056 12.786 31.313 13.194 31.44 13.7 C 31.579 14.257 31.604 15.2 31.541 15.781 Z" style=""/>
  <path d="m0 0h36v36h-36z" fill="none"/>
</svg>