<?xml version="1.0" standalone="no"?>
<!DOCTYPE svg PUBLIC "-//W3C//DTD SVG 20010904//EN"
 "http://www.w3.org/TR/2001/REC-SVG-20010904/DTD/svg10.dtd">
<svg version="1.0" xmlns="http://www.w3.org/2000/svg"
 width="128.000000pt" height="94.000000pt" viewBox="0 0 128.000000 94.000000"
 preserveAspectRatio="xMidYMid meet">

<g transform="translate(0.000000,94.000000) scale(0.100000,-0.100000)"
fill="#000000" stroke="none">
<path d="M822 920 c-12 -5 -27 -21 -34 -35 -11 -25 -12 -25 -135 -25 -96 0
-123 3 -123 13 0 23 -35 47 -66 47 -88 -1 -306 -129 -340 -200 -39 -80 -75
-173 -90 -230 -22 -80 -25 -258 -6 -312 18 -50 79 -101 161 -134 95 -38 132
-37 175 5 20 19 41 50 47 69 9 28 15 33 33 28 77 -21 164 -28 281 -23 l131 5
29 -53 c19 -36 37 -56 53 -60 31 -8 129 38 217 100 61 44 66 50 85 113 41 133
37 310 -11 437 -33 88 -80 140 -167 184 -59 30 -206 85 -216 80 0 0 -11 -4
-24 -9z m201 -127 c81 -43 118 -82 147 -160 31 -82 39 -243 16 -346 -15 -67
-22 -80 -55 -106 -54 -43 -161 -102 -172 -95 -5 3 -16 18 -24 34 -15 29 -15
30 25 50 40 20 59 44 46 57 -3 4 -61 -4 -129 -17 -146 -29 -279 -30 -387 -5
-125 29 -129 29 -136 10 -4 -10 -3 -25 3 -33 8 -13 -11 -64 -42 -110 -3 -4
-82 25 -146 54 -72 33 -89 67 -89 183 0 142 31 243 110 364 36 54 61 79 126
122 88 60 144 73 144 35 0 -36 35 -43 169 -36 70 4 143 9 165 11 37 3 56 17
56 42 0 17 89 -11 173 -54z"/>
<path d="M325 638 c-116 -101 -92 -248 41 -248 76 0 174 73 187 139 9 40 -23
92 -73 118 -62 33 -111 30 -155 -9z m139 -59 c34 -27 33 -38 -9 -79 -29 -28
-42 -34 -82 -34 -38 -1 -48 3 -51 17 -6 27 5 60 29 90 26 34 75 36 113 6z"/>
<path d="M804 651 c-65 -29 -99 -125 -70 -195 30 -72 126 -84 228 -29 118 65
141 181 44 227 -47 22 -150 21 -202 -3z m177 -61 c27 -15 24 -42 -8 -72 -57
-52 -142 -75 -171 -46 -18 18 -14 59 8 96 19 31 22 32 86 32 36 0 74 -5 85
-10z"/>
</g>
</svg>
