<?xml version="1.0" encoding="utf-8"?>
<svg version="1.0" width="128.000000pt" height="94.000000pt" viewBox="0 0 128.000000 94.000000" preserveAspectRatio="xMidYMid meet" xmlns="http://www.w3.org/2000/svg">
  <g transform="translate(0.000000,94.000000) scale(0.100000,-0.100000)" fill="#000000" stroke="none">
    <path d="M822 920 c-12 -5 -27 -21 -34 -35 -11 -25 -12 -25 -135 -25 -96 0 -123 3 -123 13 0 23 -35 47 -66 47 -88 -1 -306 -129 -340 -200 -39 -80 -75 -173 -90 -230 -22 -80 -25 -258 -6 -312 18 -50 79 -101 161 -134 95 -38 132 -37 175 5 20 19 41 50 47 69 9 28 15 33 33 28 77 -21 164 -28 281 -23 l131 5 29 -53 c19 -36 37 -56 53 -60 31 -8 129 38 217 100 61 44 66 50 85 113 41 133 37 310 -11 437 -33 88 -80 140 -167 184 -59 30 -206 85 -216 80 0 0 -11 -4 -24 -9z m201 -127 c81 -43 118 -82 147 -160 31 -82 39 -243 16 -346 -15 -67 -22 -80 -55 -106 -54 -43 -161 -102 -172 -95 -5 3 -16 18 -24 34 -15 29 -15 30 25 50 40 20 59 44 46 57 -3 4 -61 -4 -129 -17 -146 -29 -279 -30 -387 -5 -125 29 -129 29 -136 10 -4 -10 -3 -25 3 -33 8 -13 -11 -64 -42 -110 -3 -4 -82 25 -146 54 -72 33 -89 67 -89 183 0 142 31 243 110 364 36 54 61 79 126 122 88 60 144 73 144 35 0 -36 35 -43 169 -36 70 4 143 9 165 11 37 3 56 17 56 42 0 17 89 -11 173 -54z" style="fill: rgb(255, 255, 255);"/>
    <path d="M325 638 c-116 -101 -92 -248 41 -248 76 0 174 73 187 139 9 40 -23 92 -73 118 -62 33 -111 30 -155 -9z m139 -59 c34 -27 33 -38 -9 -79 -29 -28 -42 -34 -82 -34 -38 -1 -48 3 -51 17 -6 27 5 60 29 90 26 34 75 36 113 6z" style="fill: rgb(255, 255, 255);"/>
    <path d="M804 651 c-65 -29 -99 -125 -70 -195 30 -72 126 -84 228 -29 118 65 141 181 44 227 -47 22 -150 21 -202 -3z m177 -61 c27 -15 24 -42 -8 -72 -57 -52 -142 -75 -171 -46 -18 18 -14 59 8 96 19 31 22 32 86 32 36 0 74 -5 85 -10z" style="fill: rgb(255, 255, 255);"/>
  </g>
  <path stroke-width="0" d="M 45.428 6.342 C 46.227 6.228 47.287 6.373 48.007 6.645 C 48.65 6.888 49.212 7.25 49.6 7.783 C 50.021 8.361 50.382 9.304 50.359 10.059 C 50.336 10.821 49.984 11.526 49.449 12.335 C 48.753 13.387 48.045 14.073 46.186 15.749 C 42.526 19.05 27.796 30.376 26.233 31.909 C 25.897 32.238 25.816 32.257 25.929 32.365 C 26.174 32.596 28.552 32.156 29.647 32.44 C 30.654 32.702 31.735 33.218 32.302 33.882 C 32.819 34.488 33.144 35.392 33.061 36.158 C 32.971 36.984 32.24 38.118 31.619 38.662 C 31.071 39.141 30.804 39.145 29.647 39.42 C 27.121 40.021 17.772 41.93 14.928 41.545 C 13.385 41.336 12.681 40.658 12.121 39.952 C 11.627 39.329 11.439 38.452 11.514 37.675 C 11.595 36.837 11.87 36.279 12.728 35.096 C 14.357 32.849 18.392 28.638 22.515 24.854 C 27.736 20.061 39.919 11.113 42.317 8.694 C 43.137 7.866 42.831 7.634 43.303 7.252 C 43.832 6.825 44.664 6.45 45.428 6.342 Z M 95.349 10.287 C 96.605 10.142 97.149 10.19 97.929 10.439 C 98.688 10.681 99.51 11.118 99.977 11.728 C 100.454 12.35 100.857 13.265 100.736 14.156 C 100.588 15.247 99.592 16.521 98.612 17.798 C 97.42 19.349 96.311 20.607 93.832 22.729 C 89.708 26.26 80.791 32.97 74.106 37.296 C 67.633 41.485 58.156 46.894 54.38 48.373 C 52.582 49.077 51.956 49.161 50.89 48.98 C 49.864 48.805 48.642 48.075 48.083 47.387 C 47.602 46.795 47.39 45.979 47.476 45.262 C 47.569 44.488 47.614 43.934 48.766 42.91 C 51.506 40.474 63.241 35.326 69.25 31.53 C 74.571 28.169 82.926 22.073 83.286 21.439 C 83.351 21.325 83.248 21.335 83.058 21.364 C 82.225 21.488 77.865 23.165 73.954 24.854 C 68.238 27.322 55.119 34.299 51.194 35.627 C 49.502 36.199 49.124 36.263 48.159 36.082 C 47.174 35.898 45.911 35.178 45.352 34.489 C 44.871 33.897 44.647 33.092 44.745 32.365 C 44.853 31.554 44.861 30.916 46.186 29.861 C 49.489 27.233 64.839 20.85 71.83 17.874 C 77.123 15.62 80.92 14.162 85.031 12.866 C 88.701 11.709 93.138 10.541 95.349 10.287 Z M 74.865 42.91 C 76.577 42.632 76.724 42.942 77.444 43.214 C 78.087 43.457 78.649 43.819 79.037 44.352 C 79.458 44.93 79.891 45.85 79.796 46.628 C 79.691 47.49 79.535 48.334 78.203 49.283 C 75.351 51.316 66.094 53.776 58.629 56.263 C 49.744 59.223 34.9 63.945 27.978 65.823 C 23.785 66.96 21.706 67.46 19.025 67.795 C 16.729 68.082 14.418 68.337 12.804 67.947 C 11.532 67.64 10.429 66.963 9.845 66.202 C 9.33 65.532 9.089 64.608 9.238 63.774 C 9.409 62.82 9.989 61.904 11.135 60.815 C 12.942 59.098 16.959 56.806 20.391 54.898 C 24.169 52.796 30.349 49.655 32.985 48.828 C 34.39 48.387 34.952 48.341 35.868 48.525 C 36.799 48.711 37.956 49.302 38.523 49.966 C 39.041 50.572 39.366 51.476 39.282 52.242 C 39.192 53.068 38.43 54.186 37.841 54.746 C 37.338 55.223 36.138 55.453 36.096 55.581 C 36.073 55.647 36.097 55.724 36.475 55.656 C 38.902 55.225 69.731 43.745 74.865 42.91 Z M 123.573 27.13 C 124.925 26.965 125.135 27.048 125.849 27.281 C 126.579 27.52 127.43 27.961 127.897 28.571 C 128.374 29.193 128.664 30.279 128.656 30.999 C 128.649 31.622 128.413 32.109 128.049 32.668 C 127.606 33.348 127.273 33.637 126 34.717 C 123.131 37.15 115.023 43.679 108.399 48.069 C 101.038 52.949 90.516 58.712 83.514 62.485 C 78.011 65.449 74.76 66.998 69.402 69.465 C 63.119 72.357 53.449 76.527 47.855 78.721 C 43.858 80.289 41.551 80.478 38.296 82.059 C 34.688 83.811 29.746 88.024 27.219 89.039 C 25.777 89.618 25.031 89.683 24.032 89.494 C 23.033 89.305 21.784 88.589 21.225 87.901 C 20.745 87.309 20.532 86.493 20.618 85.776 C 20.711 85.002 20.925 84.376 21.908 83.424 C 23.817 81.577 29.999 77.872 33.895 75.989 C 37.416 74.289 40.063 73.979 44.214 72.348 C 49.698 70.193 58.162 66.57 64.395 63.698 C 70.123 61.059 75.898 58.283 80.327 55.808 C 83.953 53.782 86.375 51.756 89.431 50.042 C 92.395 48.38 95.23 47.49 98.384 45.642 C 101.982 43.533 109.531 38.415 109.84 37.827 C 109.914 37.687 109.7 37.753 109.461 37.751 C 108.844 37.747 106.555 38.442 105.364 38.207 C 104.284 37.993 103.116 37.302 102.557 36.613 C 102.076 36.022 101.864 35.205 101.95 34.489 C 102.043 33.715 102.031 32.906 103.24 32.137 C 105.989 30.388 120.291 27.53 123.573 27.13 Z M 120.993 54.594 C 122.431 54.413 122.853 54.626 123.573 54.898 C 124.215 55.141 124.778 55.491 125.166 56.036 C 125.596 56.641 126.038 57.529 125.924 58.464 C 125.777 59.671 124.932 60.952 123.648 62.712 C 121.654 65.447 117.531 69.902 113.861 73.41 C 109.929 77.169 103.66 82.887 100.66 84.487 C 99.035 85.353 98.117 85.411 97.018 85.245 C 95.98 85.088 94.77 84.341 94.211 83.652 C 93.731 83.06 93.518 82.244 93.604 81.528 C 93.697 80.753 93.882 80.332 94.894 79.176 C 97.202 76.537 109.544 66.836 110.902 65.443 C 111.218 65.12 111.225 65.072 111.206 64.988 C 111.192 64.928 111.223 64.869 110.978 64.912 C 109.197 65.227 85.418 74.455 78.81 76.748 C 75.214 77.996 73.939 78.46 71.678 79.024 C 69.608 79.541 67.299 80.314 65.76 80.086 C 64.561 79.909 63.512 79.182 62.953 78.493 C 62.473 77.901 62.26 77.085 62.346 76.369 C 62.439 75.594 62.609 74.757 63.636 74.017 C 65.52 72.657 70.353 72.098 75.32 70.375 C 82.398 67.919 94.964 62.653 103.088 59.905 C 109.838 57.622 117.827 54.994 120.993 54.594 Z" style="stroke-width: 2px; fill: rgb(255, 255, 255);"/>
</svg>