<?xml version="1.0" standalone="no"?>
<!DOCTYPE svg PUBLIC "-//W3C//DTD SVG 20010904//EN"
 "http://www.w3.org/TR/2001/REC-SVG-20010904/DTD/svg10.dtd">
<svg version="1.0" xmlns="http://www.w3.org/2000/svg"
 width="1200.000000pt" height="480.000000pt" viewBox="0 0 1200.000000 480.000000"
 preserveAspectRatio="xMidYMid meet">

<g transform="translate(0.000000,480.000000) scale(0.100000,-0.100000)"
fill="#000000" stroke="none">
<path d="M5569 2936 c-38 -26 -87 -109 -120 -203 -26 -77 -45 -103 -73 -103
-34 0 -78 -38 -74 -63 2 -12 17 -28 33 -37 17 -8 32 -16 34 -17 2 -1 -4 -31
-13 -67 -50 -200 -21 -404 66 -469 88 -65 296 -2 260 78 -13 28 -31 30 -112
15 -67 -13 -86 -7 -107 33 -36 67 -13 356 32 400 7 7 63 18 125 25 127 14 147
22 156 58 11 45 -14 59 -104 56 -42 -1 -89 -5 -104 -8 -37 -8 -36 5 8 119 35
89 56 207 38 207 -5 0 -25 -11 -45 -24z"/>
<path d="M7410 2709 c-56 -15 -81 -17 -98 -9 -47 21 -60 13 -76 -42 -32 -110
-116 -651 -116 -741 0 -60 14 -81 52 -75 32 4 45 37 69 179 l22 124 91 0 c77
0 99 4 146 26 77 36 115 71 146 135 24 48 26 63 22 129 -4 60 -12 90 -41 148
-43 86 -83 135 -117 141 -14 3 -59 -4 -100 -15z m114 -167 c17 -34 30 -75 33
-110 6 -74 -20 -116 -96 -154 -62 -32 -108 -35 -152 -12 -29 14 -30 18 -24 57
16 104 47 243 56 254 13 14 49 21 109 19 44 -1 46 -2 74 -54z"/>
<path d="M6927 2689 c-26 -17 -69 -51 -96 -75 -27 -24 -51 -44 -54 -44 -3 0
-8 16 -12 36 -3 20 -17 47 -30 60 -46 46 -104 26 -182 -63 l-43 -48 0 40 c0
49 -23 85 -54 85 -36 0 -46 -20 -62 -131 -8 -57 -27 -153 -41 -214 -37 -158
-39 -187 -15 -209 11 -9 31 -16 44 -14 24 3 24 2 102 170 41 89 105 195 145
241 15 18 16 18 22 0 4 -10 8 -47 8 -83 2 -122 56 -147 121 -55 19 27 62 78
95 113 56 60 60 62 68 40 5 -14 2 -83 -7 -174 -19 -182 -20 -236 -4 -252 20
-20 56 -14 73 11 23 35 45 202 52 388 6 161 5 167 -16 188 -29 29 -59 26 -114
-10z"/>
<path d="M5977 2675 c-79 -27 -109 -82 -66 -120 18 -17 24 -18 52 -6 56 23
106 35 113 28 12 -11 -22 -73 -66 -121 -43 -46 -50 -75 -24 -100 19 -20 51
-20 84 -1 32 18 69 19 76 1 17 -43 -125 -199 -220 -242 -28 -12 -77 -26 -109
-29 -32 -4 -68 -15 -80 -25 -18 -15 -20 -21 -10 -43 27 -59 138 -58 260 3 71
36 194 146 229 206 54 92 51 179 -6 228 -30 25 -31 25 -24 104 l7 78 -32 27
c-27 23 -42 27 -89 27 -31 -1 -74 -7 -95 -15z"/>
</g>
</svg>
