<?xml version="1.0" standalone="no"?>
<!DOCTYPE svg PUBLIC "-//W3C//DTD SVG 20010904//EN"
 "http://www.w3.org/TR/2001/REC-SVG-20010904/DTD/svg10.dtd">
<svg version="1.0" xmlns="http://www.w3.org/2000/svg"
 width="1200.000000pt" height="480.000000pt" viewBox="0 0 1200.000000 480.000000"
 preserveAspectRatio="xMidYMid meet">

<g transform="translate(0.000000,480.000000) scale(0.100000,-0.100000)"
fill="#000000" stroke="none">
<path d="M3877 3764 c-33 -18 -49 -52 -35 -76 12 -24 31 -23 53 2 18 20 69 27
79 11 6 -10 -20 -35 -46 -44 -28 -10 -23 -55 7 -69 39 -18 31 -38 -14 -38 -22
0 -43 5 -46 10 -8 13 -42 13 -50 -1 -13 -21 5 -57 35 -69 33 -14 106 -8 141
10 31 17 42 57 24 92 -13 27 -13 33 0 51 16 22 19 64 9 92 -16 41 -105 57
-157 29z"/>
<path d="M4196 3769 c-51 -14 -93 -69 -80 -104 9 -23 42 -18 60 10 19 30 50
41 69 25 21 -18 19 -26 -15 -57 -36 -31 -37 -40 -8 -70 32 -34 12 -51 -41 -33
-68 22 -96 -9 -45 -49 37 -29 85 -36 122 -17 42 21 56 50 48 98 -4 26 -1 48 9
69 13 24 14 37 5 63 -19 57 -64 81 -124 65z"/>
<path d="M4444 3764 c-39 -19 -58 -57 -44 -85 15 -26 36 -24 56 6 11 17 25 25
45 25 44 0 48 -26 10 -62 -41 -38 -39 -53 7 -77 40 -21 26 -33 -33 -26 -46 6
-56 5 -61 -9 -15 -38 62 -77 121 -62 57 14 83 76 51 122 -10 13 -11 25 -5 35
5 8 9 33 9 56 0 76 -79 115 -156 77z"/>
<path d="M7263 3629 c-72 -35 -65 -79 9 -53 21 7 38 11 38 9 0 -3 -16 -25 -35
-51 -19 -25 -35 -56 -35 -69 0 -32 35 -55 83 -55 51 0 60 25 22 57 l-27 24 20
22 c27 31 42 62 42 89 0 51 -47 62 -117 27z"/>
<path d="M7034 3588 c-23 -44 -15 -168 13 -206 25 -34 37 -37 58 -15 15 15 17
30 11 113 -8 125 -13 140 -42 140 -16 0 -29 -10 -40 -32z"/>
<path d="M7367 3262 c-34 -37 -15 -82 33 -82 14 0 31 5 38 12 7 7 12 24 12 38
0 49 -51 68 -83 32z"/>
<path d="M7092 3218 c-27 -27 -5 -88 33 -88 28 0 55 24 55 49 0 39 -61 66 -88
39z"/>
<path d="M4602 2848 c-12 -15 -36 -150 -53 -301 l-13 -107 -76 0 c-50 0 -83
-5 -96 -14 -17 -13 -17 -15 -2 -21 9 -4 53 -5 97 -3 68 2 81 1 81 -13 0 -32
-27 -47 -115 -64 -93 -18 -125 -29 -125 -45 0 -18 37 -20 120 -5 121 21 120
21 120 -21 0 -54 21 -124 40 -134 12 -6 23 -5 36 4 15 11 19 31 22 110 4 80 7
96 21 96 9 0 40 11 69 25 39 18 53 30 50 42 -4 23 -59 42 -120 42 l-46 1 5
210 c3 116 4 210 1 210 -3 0 -10 -6 -16 -12z m78 -458 c-8 -5 -28 -10 -45 -10
-23 0 -27 3 -15 10 8 5 29 10 45 10 23 0 27 -3 15 -10z"/>
<path d="M7810 2166 c0 -48 253 -176 347 -176 l37 0 -27 28 c-37 38 -118 86
-218 127 -90 37 -139 44 -139 21z"/>
<path d="M7740 2076 c0 -33 149 -122 278 -165 65 -22 158 -29 147 -11 -15 24
-373 190 -409 190 -9 0 -16 -6 -16 -14z"/>
<path d="M8505 1910 c-12 -19 7 -30 69 -40 92 -15 358 -23 386 -12 24 9 24 10
-17 21 -103 28 -425 51 -438 31z"/>
<path d="M8171 1843 c-26 -32 -35 -65 -27 -98 10 -40 39 -49 110 -34 59 11 65
11 130 -15 71 -29 102 -29 130 0 9 8 16 24 16 35 0 16 -7 19 -54 19 -32 0 -74
9 -105 21 -49 21 -53 21 -94 5 -78 -30 -94 -18 -57 42 26 42 25 52 -4 52 -15
0 -33 -11 -45 -27z"/>
<path d="M8533 1804 c-14 -37 60 -59 239 -70 173 -11 231 13 117 47 -64 20
-209 39 -292 39 -44 0 -59 -4 -64 -16z"/>
<path d="M5545 1604 c-84 -30 -235 -69 -327 -84 -82 -14 -108 -30 -89 -54 11
-12 33 -16 102 -16 49 0 89 -4 89 -9 0 -10 -59 -35 -108 -46 -18 -4 -36 -13
-39 -21 -2 -7 7 -41 21 -76 l25 -63 69 3 69 4 -5 -32 c-3 -25 -16 -38 -61 -67
-61 -39 -71 -49 -71 -76 0 -32 27 -29 111 12 45 23 87 41 93 41 7 0 44 -32 84
-71 74 -72 104 -84 110 -42 2 12 -9 35 -27 56 -57 64 -40 81 89 92 91 7 120
17 120 40 0 27 -40 38 -122 32 l-78 -6 0 35 c0 29 5 38 32 52 61 33 71 49 66
107 -3 29 -12 65 -22 80 -17 25 -21 27 -79 21 l-62 -6 56 28 c70 34 89 49 89
73 0 26 -47 24 -135 -7z m-85 -114 c0 -10 -32 -30 -49 -30 -20 0 -11 20 12 30
29 12 37 12 37 0z m165 -80 c0 -31 -31 -39 -40 -11 -8 26 2 43 23 39 11 -2 17
-13 17 -28z m-116 -22 c12 -30 3 -38 -44 -41 -31 -1 -40 2 -43 16 -2 12 7 22
30 32 44 19 47 19 57 -7z m-151 -52 c2 -11 -8 -21 -32 -31 -47 -20 -56 -19
-56 5 0 14 11 26 33 35 38 17 51 15 55 -9z m170 -77 c4 -24 -21 -46 -60 -52
-35 -5 -38 -4 -38 17 0 28 15 42 50 49 34 6 45 3 48 -14z"/>
<path d="M5700 1090 c0 -29 35 -56 116 -90 98 -41 145 -39 128 4 -8 20 -186
106 -219 106 -18 0 -25 -5 -25 -20z"/>
<path d="M5400 1034 c-17 -43 -12 -112 9 -133 38 -38 250 -68 279 -39 20 20
14 47 -10 52 -13 3 -54 8 -93 11 -99 10 -115 18 -115 57 0 57 -10 78 -36 78
-17 0 -28 -8 -34 -26z"/>
<path d="M5300 1004 c-6 -14 -10 -34 -10 -44 0 -10 -12 -46 -27 -80 -23 -55
-25 -63 -11 -77 24 -23 56 0 85 63 30 67 38 115 24 143 -16 29 -49 27 -61 -5z"/>
</g>
</svg>
