<?xml version="1.0" standalone="no"?>
<!DOCTYPE svg PUBLIC "-//W3C//DTD SVG 20010904//EN"
 "http://www.w3.org/TR/2001/REC-SVG-20010904/DTD/svg10.dtd">
<svg version="1.0" xmlns="http://www.w3.org/2000/svg"
 width="1200.000000pt" height="480.000000pt" viewBox="0 0 1200.000000 480.000000"
 preserveAspectRatio="xMidYMid meet">

<g transform="translate(0.000000,480.000000) scale(0.100000,-0.100000)"
fill="#000000" stroke="none">
<path d="M3897 3744 c-33 -18 -49 -52 -35 -76 12 -24 31 -23 53 2 18 20 69 27
79 11 6 -10 -20 -35 -46 -44 -28 -10 -23 -55 7 -69 39 -18 31 -38 -14 -38 -22
0 -43 5 -46 10 -8 13 -42 13 -50 -1 -13 -21 5 -57 35 -69 33 -14 106 -8 141
10 31 17 42 57 24 92 -13 27 -13 33 0 51 16 22 19 64 9 92 -16 41 -105 57
-157 29z"/>
<path d="M4216 3749 c-51 -14 -93 -69 -80 -104 9 -23 42 -18 60 10 19 30 50
41 69 25 21 -18 19 -26 -15 -57 -36 -31 -37 -40 -8 -70 32 -34 12 -51 -41 -33
-68 22 -96 -9 -45 -49 37 -29 85 -36 122 -17 42 21 56 50 48 98 -4 26 -1 48 9
69 13 24 14 37 5 63 -19 57 -64 81 -124 65z"/>
<path d="M4464 3744 c-39 -19 -58 -57 -44 -85 15 -26 36 -24 56 6 11 17 25 25
45 25 44 0 48 -26 10 -62 -41 -38 -39 -53 7 -77 40 -21 26 -33 -33 -26 -46 6
-56 5 -61 -9 -15 -38 62 -77 121 -62 57 14 83 76 51 122 -10 13 -11 25 -5 35
5 8 9 33 9 56 0 76 -79 115 -156 77z"/>
<path d="M7254 3571 c-71 -32 -65 -81 7 -56 22 8 39 12 39 10 0 -3 -16 -25
-35 -51 -40 -53 -44 -86 -13 -108 29 -21 82 -20 99 0 11 14 9 20 -15 41 l-28
24 20 22 c43 48 54 94 26 121 -20 21 -50 20 -100 -3z"/>
<path d="M7040 3550 c-27 -27 -34 -60 -27 -137 7 -93 46 -143 82 -106 15 15
17 30 11 113 -3 52 -9 105 -12 117 -8 30 -31 36 -54 13z"/>
<path d="M7357 3202 c-34 -37 -15 -82 33 -82 14 0 31 5 38 12 7 7 12 24 12 38
0 49 -51 68 -83 32z"/>
<path d="M7082 3158 c-27 -27 -5 -88 33 -88 28 0 55 24 55 49 0 39 -61 66 -88
39z"/>
<path d="M4612 2858 c-12 -16 -37 -158 -53 -300 l-13 -108 -76 0 c-50 0 -83
-5 -96 -14 -17 -13 -17 -15 -2 -21 9 -4 53 -5 97 -3 68 2 81 1 81 -13 0 -32
-27 -47 -115 -64 -93 -18 -125 -29 -125 -45 0 -18 37 -20 120 -5 121 21 120
21 120 -21 0 -54 21 -124 40 -134 12 -6 23 -5 36 5 16 11 19 25 16 90 -1 42 2
83 6 92 5 8 38 27 73 42 102 42 88 76 -35 88 l-65 6 6 208 c3 115 4 209 1 209
-3 0 -10 -6 -16 -12z m78 -458 c-8 -5 -28 -10 -45 -10 -23 0 -27 3 -15 10 8 5
29 10 45 10 23 0 27 -3 15 -10z"/>
<path d="M7832 2053 c4 -22 121 -100 205 -137 67 -29 163 -46 163 -28 0 32
-125 108 -258 156 -87 31 -115 33 -110 9z"/>
<path d="M7760 1967 c0 -38 120 -111 256 -156 91 -31 182 -41 169 -21 -14 23
-373 190 -409 190 -9 0 -16 -6 -16 -13z"/>
<path d="M8520 1796 c0 -9 12 -21 27 -27 40 -15 350 -34 408 -24 l50 8 -30 12
c-37 16 -174 33 -333 42 -110 5 -122 4 -122 -11z"/>
<path d="M8191 1733 c-26 -32 -35 -65 -27 -98 10 -40 39 -49 110 -34 59 11 65
11 130 -15 71 -29 102 -29 130 0 9 8 16 24 16 35 0 16 -7 19 -54 19 -32 0 -74
9 -105 21 -49 21 -53 21 -94 5 -78 -30 -94 -18 -57 42 26 42 25 52 -4 52 -15
0 -33 -11 -45 -27z"/>
<path d="M8553 1694 c-14 -37 58 -59 233 -70 178 -11 238 12 123 47 -64 20
-209 39 -292 39 -44 0 -59 -4 -64 -16z"/>
<path d="M5550 1644 c-45 -20 -276 -80 -362 -94 -82 -14 -108 -30 -89 -54 11
-12 33 -16 102 -16 49 0 89 -4 89 -9 0 -5 -21 -17 -47 -26 -121 -43 -114 -32
-78 -120 l24 -60 69 3 69 4 -5 -32 c-3 -25 -16 -38 -61 -67 -61 -39 -71 -49
-71 -76 0 -32 31 -31 99 5 109 59 103 60 187 -22 77 -75 107 -86 112 -40 2 18
-6 34 -28 55 -34 32 -39 60 -12 73 9 5 55 13 102 17 91 7 120 17 120 40 0 27
-40 38 -122 32 l-78 -6 0 35 c0 29 5 38 32 52 61 33 71 49 66 107 -3 29 -12
65 -22 80 -17 25 -21 27 -79 21 l-62 -6 56 28 c70 34 89 49 89 73 0 24 -49 25
-100 3z m-120 -124 c0 -10 -32 -30 -49 -30 -20 0 -11 20 12 30 29 12 37 12 37
0z m165 -80 c0 -31 -31 -39 -40 -11 -8 26 2 43 23 39 11 -2 17 -13 17 -28z
m-116 -22 c11 -29 5 -35 -40 -43 -32 -6 -37 -4 -42 15 -4 17 1 24 26 35 43 19
46 19 56 -7z m-151 -49 c3 -16 -72 -62 -83 -51 -14 14 -2 43 23 56 33 19 56
16 60 -5z m170 -80 c4 -24 -21 -46 -60 -52 -35 -5 -38 -4 -38 17 0 28 15 42
50 49 34 6 45 3 48 -14z"/>
<path d="M5681 1140 c-7 -4 -11 -18 -9 -31 6 -46 217 -133 238 -99 15 25 -3
43 -89 82 -117 54 -126 57 -140 48z"/>
<path d="M5370 1064 c-17 -43 -12 -112 9 -133 38 -38 250 -68 279 -39 20 20
14 47 -10 52 -13 3 -54 8 -93 11 -99 10 -115 18 -115 57 0 57 -10 78 -36 78
-17 0 -28 -8 -34 -26z"/>
<path d="M5277 1053 c-2 -5 -8 -26 -11 -48 -4 -22 -19 -66 -33 -98 -24 -52
-25 -60 -11 -74 24 -23 52 -2 83 60 32 66 41 117 26 146 -11 20 -45 29 -54 14z"/>
</g>
</svg>
