<?xml version="1.0" standalone="no"?>
<!DOCTYPE svg PUBLIC "-//W3C//DTD SVG 20010904//EN"
 "http://www.w3.org/TR/2001/REC-SVG-20010904/DTD/svg10.dtd">
<svg version="1.0" xmlns="http://www.w3.org/2000/svg"
 width="1200.000000pt" height="480.000000pt" viewBox="0 0 1200.000000 480.000000"
 preserveAspectRatio="xMidYMid meet">

<g transform="translate(0.000000,480.000000) scale(0.100000,-0.100000)"
fill="#000000" stroke="none">
<path d="M8892 3821 c-69 -24 -120 -65 -158 -129 -37 -61 -47 -114 -33 -167 6
-22 8 -62 4 -93 l-7 -54 59 7 c42 4 68 2 95 -9 79 -34 212 -12 290 47 53 39
98 124 98 181 0 23 -11 65 -25 94 -14 30 -25 69 -25 87 l0 33 -67 6 c-38 3
-93 9 -123 11 -39 4 -71 0 -108 -14z m95 -38 c24 -10 43 -21 43 -25 0 -7 -60
-65 -165 -157 -65 -57 -71 -60 -79 -42 -15 33 19 103 85 175 34 36 64 66 67
66 4 0 26 -8 49 -17z m183 -149 c16 -49 4 -90 -41 -135 -46 -46 -130 -75 -192
-65 -22 4 -45 10 -50 13 -6 3 46 61 114 128 112 110 126 120 141 107 10 -8 22
-30 28 -48z"/>
<path d="M6020 3783 c-50 -33 -80 -67 -80 -91 0 -37 59 -87 119 -102 76 -18
171 5 130 31 -8 5 -44 20 -81 35 -38 14 -68 30 -68 35 0 5 12 27 26 49 37 56
10 81 -46 43z"/>
<path d="M5544 3647 c-9 -24 1 -33 51 -46 25 -6 45 -13 45 -16 0 -3 -18 -23
-40 -45 -43 -43 -53 -80 -22 -80 27 0 100 51 123 86 42 64 12 102 -90 111 -50
5 -62 3 -67 -10z"/>
<path d="M5813 3554 c-8 -22 9 -48 36 -52 26 -4 37 19 21 47 -13 25 -48 28
-57 5z"/>
<path d="M8045 3230 c-36 -15 -135 -146 -135 -179 0 -25 31 -63 149 -183 59
-60 103 -98 116 -98 11 0 36 10 55 21 49 30 190 141 222 175 31 34 58 101 65
160 4 36 0 47 -25 75 -25 28 -36 33 -88 37 -44 3 -73 -1 -111 -17 -51 -20 -52
-20 -107 -1 -58 21 -107 24 -141 10z"/>
<path d="M3445 2807 c-47 -49 -71 -117 -62 -173 16 -99 143 -172 225 -130 90
47 135 183 87 266 -27 46 -95 80 -158 80 -46 0 -54 -4 -92 -43z m108 -58 c73
-20 96 -73 62 -139 -27 -53 -98 -52 -138 2 -21 28 -28 112 -13 137 9 14 40 14
89 0z"/>
<path d="M9438 2776 c-21 -8 -49 -21 -63 -30 -24 -16 -30 -16 -75 -1 -46 15
-127 13 -117 -4 2 -3 10 -20 17 -37 9 -20 30 -39 65 -58 29 -15 65 -41 81 -57
27 -28 28 -31 11 -40 -9 -6 -52 -36 -95 -68 -174 -129 -220 -160 -291 -196
-74 -37 -74 -37 -99 -18 -38 29 -62 65 -72 109 -13 57 16 115 101 196 59 57
197 158 233 171 25 9 -9 21 -69 25 -88 6 -155 -27 -250 -123 -85 -85 -124
-158 -132 -247 -5 -57 -10 -68 -51 -113 -76 -85 -87 -146 -31 -176 29 -15 117
-6 194 20 l60 20 65 -22 c52 -18 88 -22 185 -22 111 0 124 2 177 28 135 66
238 253 210 382 -10 49 -10 49 33 100 40 47 65 91 65 116 0 5 -11 21 -25 34
-28 28 -69 32 -127 11z m62 -69 c0 -7 -14 -26 -30 -42 l-30 -29 -22 22 -22 21
45 20 c52 24 59 25 59 8z m-115 -274 c-10 -53 -30 -89 -83 -145 -57 -61 -118
-82 -207 -70 l-60 8 49 30 c27 16 63 39 80 51 17 13 56 39 86 59 30 21 72 52
93 71 20 18 40 33 43 33 3 0 3 -17 -1 -37z m-652 -250 c-42 -13 -93 -17 -93
-7 0 4 15 23 33 44 l32 37 33 -31 33 -31 -38 -12z"/>
<path d="M2638 2646 c-73 -59 -98 -106 -98 -187 0 -75 27 -138 72 -170 37 -27
104 -35 151 -20 48 16 112 82 133 137 15 39 15 52 5 100 -21 91 -94 171 -167
180 -35 5 -45 0 -96 -40z m102 -58 c54 -28 97 -98 87 -140 -11 -41 -55 -87
-97 -99 -45 -14 -76 1 -107 48 -21 32 -23 118 -4 176 11 32 16 37 45 37 17 0
52 -10 76 -22z"/>
<path d="M3290 2568 c0 -2 -9 -28 -19 -58 -18 -55 -18 -55 -59 -55 -28 0 -48
-7 -64 -22 -43 -41 -64 -25 -84 60 -8 33 -21 35 -35 3 -16 -35 -3 -90 30 -125
34 -36 58 -39 94 -11 21 17 34 19 80 14 50 -6 56 -4 87 23 27 24 33 38 37 80
6 61 -8 93 -42 93 -14 0 -25 -1 -25 -2z"/>
<path d="M4005 1559 c-15 -12 -44 -43 -65 -70 l-37 -47 -44 44 c-24 24 -51 47
-62 50 -26 8 -47 -13 -47 -48 0 -35 13 -61 52 -106 l29 -33 -30 -38 c-17 -21
-37 -44 -46 -51 -9 -8 -23 -27 -31 -43 -14 -25 -14 -31 1 -53 28 -43 62 -32
131 41 l61 65 57 -40 c71 -50 110 -70 134 -70 24 0 52 31 52 57 0 27 -37 73
-58 73 -29 0 -123 60 -115 73 3 7 24 35 44 62 45 60 62 101 54 132 -7 30 -43
30 -80 2z"/>
<path d="M7604 1542 c-6 -4 -26 -41 -46 -82 -19 -41 -51 -96 -71 -122 -21 -27
-32 -50 -26 -53 18 -12 100 46 135 96 20 27 37 49 39 49 10 0 45 -96 45 -124
0 -17 -14 -58 -31 -92 -35 -66 -34 -87 5 -106 36 -16 65 7 103 78 41 77 48
116 32 171 -20 73 -154 206 -185 185z"/>
<path d="M6953 1439 c-53 -26 -99 -77 -114 -127 -16 -55 8 -135 59 -192 31
-35 44 -43 77 -44 54 -1 57 22 10 66 -47 42 -65 77 -65 127 0 39 36 131 51
131 4 0 11 -14 14 -32 12 -55 123 -158 170 -158 29 0 14 38 -49 124 -36 47
-68 95 -71 106 -8 26 -29 25 -82 -1z"/>
</g>
</svg>
