<?xml version="1.0" standalone="no"?>
<!DOCTYPE svg PUBLIC "-//W3C//DTD SVG 20010904//EN"
 "http://www.w3.org/TR/2001/REC-SVG-20010904/DTD/svg10.dtd">
<svg version="1.0" xmlns="http://www.w3.org/2000/svg"
 width="1200.000000pt" height="480.000000pt" viewBox="0 0 1200.000000 480.000000"
 preserveAspectRatio="xMidYMid meet">

<g transform="translate(0.000000,480.000000) scale(0.100000,-0.100000)"
fill="#000000" stroke="none">
<path d="M8978 3897 c-136 -39 -238 -185 -208 -298 7 -26 9 -65 5 -97 l-7 -55
59 7 c43 5 69 2 96 -9 84 -35 221 -9 301 57 46 38 86 118 86 173 0 22 -11 64
-25 93 -14 30 -25 69 -25 87 l0 33 -62 5 c-35 4 -88 9 -118 11 -32 4 -75 0
-102 -7z m79 -44 c24 -10 43 -21 43 -25 0 -7 -60 -65 -165 -157 -65 -57 -71
-60 -79 -42 -15 34 21 107 86 177 33 35 63 64 67 64 3 0 25 -8 48 -17z m184
-163 c10 -34 9 -43 -12 -81 -15 -27 -42 -54 -73 -73 -41 -26 -57 -30 -116 -30
-37 1 -73 5 -80 9 -9 6 23 44 111 130 121 119 124 122 141 103 10 -11 23 -37
29 -58z"/>
<path d="M5924 3792 c-57 -42 -67 -57 -59 -91 10 -49 73 -88 153 -97 47 -6
102 8 102 24 0 8 -53 35 -134 67 -37 15 -38 16 -22 37 9 13 23 33 32 45 34 48
-13 58 -72 15z"/>
<path d="M3837 3734 c-33 -18 -49 -52 -35 -76 12 -24 31 -23 53 2 18 20 69 27
79 11 6 -10 -20 -35 -46 -44 -28 -10 -23 -55 7 -69 39 -18 31 -38 -14 -38 -22
0 -43 5 -46 10 -8 13 -42 13 -50 -1 -13 -21 5 -57 35 -69 33 -14 106 -8 141
10 31 17 42 57 24 92 -13 27 -13 33 0 51 16 22 19 64 9 92 -16 41 -105 57
-157 29z"/>
<path d="M4156 3739 c-51 -14 -93 -69 -80 -104 9 -23 42 -18 60 10 19 30 50
41 69 25 21 -18 19 -26 -15 -57 -36 -31 -37 -40 -8 -70 32 -34 12 -51 -41 -33
-68 22 -96 -9 -45 -49 37 -29 85 -36 122 -17 42 21 56 50 48 98 -4 26 -1 48 9
69 13 24 14 37 5 63 -19 57 -64 81 -124 65z"/>
<path d="M4404 3734 c-39 -19 -58 -57 -44 -85 15 -26 36 -24 56 6 11 17 25 25
45 25 44 0 48 -26 10 -62 -41 -38 -39 -53 7 -77 40 -21 26 -33 -33 -26 -46 6
-56 5 -61 -9 -15 -38 62 -77 121 -62 57 14 83 76 51 122 -10 13 -11 25 -5 35
5 8 9 33 9 56 0 76 -79 115 -156 77z"/>
<path d="M5464 3667 c-9 -24 1 -33 51 -47 25 -7 45 -14 45 -15 0 -2 -18 -21
-40 -43 -41 -40 -53 -82 -25 -82 28 0 70 28 108 69 66 73 41 118 -72 128 -50
5 -62 3 -67 -10z"/>
<path d="M7234 3661 c-72 -33 -62 -76 12 -53 19 5 34 8 34 6 0 -2 -16 -24 -35
-50 -19 -25 -35 -56 -35 -68 0 -31 30 -56 67 -56 67 0 81 24 36 59 l-26 21 20
23 c44 48 55 94 27 121 -20 21 -50 20 -100 -3z"/>
<path d="M7004 3618 c-23 -44 -15 -168 13 -206 25 -34 37 -37 58 -15 15 15 17
30 11 113 -8 125 -13 140 -42 140 -16 0 -29 -10 -40 -32z"/>
<path d="M5727 3576 c-8 -20 21 -56 44 -56 25 0 34 22 19 49 -12 24 -55 28
-63 7z"/>
<path d="M7337 3292 c-34 -37 -15 -82 33 -82 14 0 31 5 38 12 7 7 12 24 12 38
0 49 -51 68 -83 32z"/>
<path d="M8115 3300 c-36 -15 -135 -146 -135 -180 0 -39 229 -280 266 -280 11
0 35 10 54 21 49 30 190 141 222 175 31 34 58 101 65 160 4 36 0 47 -25 75
-25 28 -36 33 -88 36 -41 3 -76 -2 -114 -15 -53 -18 -57 -18 -105 -1 -53 19
-107 23 -140 9z"/>
<path d="M7062 3248 c-27 -27 -5 -88 33 -88 28 0 55 24 55 49 0 39 -61 66 -88
39z"/>
<path d="M5506 2907 c-10 -7 -38 -74 -64 -153 -38 -112 -51 -140 -67 -142 -87
-13 -111 -66 -46 -103 l28 -16 -18 -109 c-29 -174 -23 -266 25 -369 29 -65 67
-85 159 -85 83 0 124 15 143 52 14 28 14 32 0 47 -13 12 -37 16 -104 16 l-87
0 -17 35 c-23 45 -24 202 -3 326 9 48 17 90 19 92 2 2 35 10 73 18 88 18 121
32 134 56 8 15 7 24 -7 39 -14 15 -31 19 -84 19 l-68 0 25 83 c39 133 44 166
33 187 -12 23 -48 26 -74 7z"/>
<path d="M9508 2856 c-21 -8 -49 -21 -63 -30 -24 -16 -30 -16 -75 -1 -46 15
-127 13 -117 -4 2 -3 10 -20 17 -37 9 -20 30 -39 65 -58 29 -15 65 -41 81 -57
27 -28 28 -31 11 -40 -9 -6 -52 -36 -95 -68 -174 -129 -220 -160 -291 -196
-74 -37 -74 -37 -99 -18 -38 29 -62 65 -72 109 -13 57 16 115 101 196 59 57
197 158 233 171 25 9 -9 21 -69 25 -88 6 -155 -27 -250 -123 -85 -85 -124
-158 -132 -247 -5 -57 -10 -68 -51 -113 -76 -85 -87 -146 -31 -176 29 -15 117
-6 194 20 l60 20 65 -22 c52 -18 88 -22 185 -22 111 0 124 2 177 28 135 66
238 253 210 382 -10 49 -10 49 33 100 40 47 65 91 65 116 0 5 -11 21 -25 34
-28 28 -69 32 -127 11z m62 -69 c0 -7 -14 -26 -30 -42 l-30 -29 -22 22 -22 21
45 20 c52 24 59 25 59 8z m-115 -274 c-10 -53 -30 -89 -83 -145 -57 -61 -118
-82 -207 -70 l-60 8 49 30 c27 16 63 39 80 51 17 13 56 39 86 59 30 21 72 52
93 71 20 18 40 33 43 33 3 0 3 -17 -1 -37z m-652 -250 c-42 -13 -93 -17 -93
-7 0 4 15 23 33 44 l32 37 33 -31 33 -31 -38 -12z"/>
<path d="M4572 2818 c-12 -15 -36 -150 -53 -301 l-13 -107 -76 0 c-50 0 -83
-5 -96 -14 -17 -13 -17 -15 -2 -21 9 -4 53 -5 97 -3 68 2 81 1 81 -13 0 -32
-27 -47 -115 -64 -93 -18 -125 -29 -125 -45 0 -18 37 -20 120 -5 123 22 120
23 120 -30 0 -53 25 -121 48 -130 32 -12 46 20 44 102 -1 43 2 84 7 92 5 7 37
25 72 40 102 42 88 76 -35 88 l-65 6 6 208 c3 115 4 209 1 209 -3 0 -10 -6
-16 -12z m78 -458 c-8 -5 -28 -10 -45 -10 -23 0 -27 3 -15 10 8 5 29 10 45 10
23 0 27 -3 15 -10z"/>
<path d="M3445 2777 c-47 -49 -71 -117 -62 -173 12 -73 96 -143 173 -144 61 0
133 70 155 152 29 110 -54 208 -176 208 -44 0 -52 -4 -90 -43z m118 -61 c49
-20 67 -43 67 -85 0 -56 -39 -95 -87 -88 -44 8 -69 29 -83 73 -10 30 -7 84 7
107 7 12 61 8 96 -7z"/>
<path d="M6975 2732 c-38 -18 -195 -173 -195 -193 0 -26 -20 -3 -40 46 -44
108 -99 134 -159 73 -17 -17 -31 -37 -31 -42 0 -6 -9 4 -20 22 -24 39 -62 44
-84 10 -7 -13 -17 -61 -20 -108 -8 -105 -40 -264 -66 -331 -11 -27 -20 -58
-20 -69 0 -45 62 -66 93 -32 9 10 50 95 91 189 95 218 105 238 118 225 5 -5
16 -51 24 -102 15 -103 33 -140 68 -140 29 0 43 17 95 115 76 143 183 257 213
227 19 -19 26 -110 16 -205 -11 -100 2 -137 46 -137 29 0 44 17 52 59 4 17 8
30 11 28 2 -3 -5 -67 -17 -143 -27 -187 -27 -238 2 -258 28 -20 52 -20 67 -2
6 8 20 81 31 162 25 190 50 370 56 410 3 25 13 35 53 54 63 29 86 23 144 -39
57 -61 75 -114 58 -171 -17 -58 -65 -80 -170 -80 -74 0 -82 -2 -96 -24 -13
-20 -14 -29 -5 -46 16 -29 50 -40 128 -40 90 0 130 13 182 57 79 68 99 159 59
270 -26 72 -124 172 -193 198 -45 17 -48 17 -100 -3 -47 -18 -57 -19 -73 -7
-23 18 -57 19 -71 2 -12 -14 -31 -120 -33 -182 -1 -32 -3 -27 -10 25 -22 153
-105 228 -204 182z"/>
<path d="M5995 2674 c-61 -21 -115 -70 -115 -103 0 -29 16 -51 38 -51 7 0 45
14 84 31 44 19 79 28 93 25 26 -7 55 -32 55 -47 0 -12 -37 -48 -98 -97 -29
-22 -42 -41 -42 -57 0 -36 32 -49 107 -41 53 6 64 4 70 -10 13 -34 -61 -140
-120 -171 -24 -12 -48 -14 -108 -9 -84 7 -113 -6 -107 -47 6 -38 53 -61 134
-65 65 -4 81 -1 128 22 84 41 167 146 190 239 9 37 -9 99 -35 123 -18 16 -20
26 -14 74 10 88 -21 145 -100 181 -47 22 -104 23 -160 3z"/>
<path d="M2637 2615 c-72 -57 -97 -106 -97 -190 0 -110 55 -182 145 -192 23
-3 59 0 78 6 48 16 112 82 133 137 15 39 15 52 5 100 -21 91 -94 171 -167 180
-35 5 -45 0 -97 -41z m103 -57 c33 -17 52 -36 69 -69 30 -55 24 -88 -23 -135
-58 -58 -112 -55 -160 9 -24 33 -27 117 -7 180 11 32 16 37 45 37 17 0 52 -10
76 -22z"/>
<path d="M3290 2538 c0 -2 -9 -28 -19 -58 -18 -55 -18 -55 -59 -55 -29 0 -48
-7 -65 -23 -43 -41 -65 -25 -82 61 -7 33 -22 35 -36 3 -17 -36 -3 -88 32 -124
36 -37 56 -40 92 -12 21 17 34 19 80 14 50 -6 56 -4 87 23 27 24 33 38 37 80
6 61 -8 93 -42 93 -14 0 -25 -1 -25 -2z"/>
<path d="M7840 2196 c0 -32 137 -115 259 -157 56 -20 111 -25 111 -11 0 30
-155 124 -267 161 -73 25 -103 26 -103 7z"/>
<path d="M7775 2109 c-4 -6 3 -21 15 -35 29 -29 174 -105 257 -133 66 -22 159
-29 148 -11 -13 21 -369 190 -400 190 -8 0 -17 -5 -20 -11z"/>
<path d="M8535 1941 c-12 -20 7 -31 69 -41 92 -15 358 -23 386 -12 24 9 24 10
-15 20 -109 30 -427 53 -440 33z"/>
<path d="M8201 1873 c-26 -32 -35 -65 -27 -98 10 -40 39 -49 110 -34 59 11 65
11 130 -15 71 -29 102 -29 130 0 9 8 16 24 16 35 0 16 -7 19 -54 19 -32 0 -74
9 -105 21 -49 21 -53 21 -94 5 -78 -30 -94 -18 -57 42 26 42 25 52 -4 52 -15
0 -33 -11 -45 -27z"/>
<path d="M8563 1834 c-14 -37 60 -59 239 -70 173 -11 231 13 117 47 -64 20
-209 39 -292 39 -44 0 -59 -4 -64 -16z"/>
<path d="M5580 1594 c-45 -19 -274 -80 -362 -94 -82 -14 -108 -30 -89 -54 11
-12 33 -16 102 -16 49 0 89 -4 89 -9 0 -10 -37 -25 -98 -41 -48 -12 -60 -30
-43 -63 6 -12 17 -40 25 -62 l13 -40 70 3 70 4 -5 -32 c-3 -24 -15 -38 -46
-57 -58 -36 -86 -64 -86 -85 0 -34 30 -31 111 11 44 22 86 41 93 41 6 0 44
-32 84 -71 74 -72 104 -84 110 -42 2 12 -9 35 -27 56 -57 64 -40 81 89 92 91
7 120 17 120 40 0 27 -40 38 -122 32 l-78 -6 0 35 c0 29 5 38 32 52 61 33 71
49 66 107 -3 29 -12 65 -22 80 -17 26 -20 27 -79 20 -72 -8 -70 -3 16 39 45
23 62 36 62 51 0 26 -47 31 -95 9z m-120 -124 c0 -10 -32 -30 -49 -30 -20 0
-11 20 12 30 29 12 37 12 37 0z m165 -80 c0 -31 -31 -39 -40 -11 -8 26 2 43
23 39 11 -2 17 -13 17 -28z m-116 -22 c12 -30 3 -38 -44 -41 -31 -1 -40 2 -43
16 -2 12 7 22 30 32 44 19 47 19 57 -7z m-154 -55 c0 -14 -71 -54 -80 -45 -11
12 -4 42 13 51 22 14 67 10 67 -6z m173 -74 c4 -24 -21 -46 -60 -52 -35 -5
-38 -4 -38 17 0 28 15 42 50 49 34 6 45 3 48 -14z"/>
<path d="M4005 1579 c-15 -12 -44 -43 -65 -70 l-37 -47 -44 44 c-24 24 -51 47
-62 50 -26 8 -47 -13 -47 -48 0 -35 13 -61 52 -106 l29 -33 -30 -38 c-17 -21
-37 -44 -46 -51 -9 -8 -23 -27 -31 -43 -14 -25 -14 -31 1 -53 28 -43 62 -32
131 41 l61 65 57 -40 c71 -50 110 -70 134 -70 24 0 52 31 52 57 0 27 -37 73
-58 73 -29 0 -123 60 -115 73 3 7 24 35 44 62 45 60 62 101 54 132 -7 30 -43
30 -80 2z"/>
<path d="M7573 1572 c-6 -4 -23 -36 -37 -71 -14 -35 -44 -88 -66 -117 -61 -81
-54 -94 24 -43 25 17 60 51 77 75 16 24 32 44 34 44 11 0 45 -97 45 -126 0
-20 -13 -57 -30 -87 -36 -65 -37 -82 -6 -102 40 -27 77 0 120 86 41 81 44 116
16 176 -34 77 -148 183 -177 165z"/>
<path d="M6935 1476 c-74 -32 -134 -113 -135 -181 0 -16 11 -52 24 -80 37 -79
98 -125 146 -110 26 8 25 27 -1 51 -50 44 -79 96 -79 140 0 41 36 134 51 134
4 0 11 -14 14 -32 8 -35 84 -122 127 -144 72 -37 77 1 10 88 -27 35 -61 82
-75 106 -29 45 -37 48 -82 28z"/>
<path d="M5700 1066 c0 -31 38 -58 125 -91 93 -35 135 -32 119 9 -8 20 -186
106 -219 106 -20 0 -25 -5 -25 -24z"/>
<path d="M5400 1014 c-17 -43 -12 -112 9 -133 38 -38 250 -68 279 -39 20 20
14 47 -10 52 -13 3 -54 8 -93 11 -99 10 -115 18 -115 57 0 57 -10 78 -36 78
-17 0 -28 -8 -34 -26z"/>
<path d="M5307 1003 c-2 -5 -8 -26 -11 -48 -4 -22 -19 -66 -33 -98 -23 -51
-24 -60 -11 -73 21 -21 45 -8 73 40 51 87 54 186 6 186 -11 0 -22 -3 -24 -7z"/>
</g>
</svg>
