<?xml version="1.0" standalone="no"?>
<!DOCTYPE svg PUBLIC "-//W3C//DTD SVG 20010904//EN"
 "http://www.w3.org/TR/2001/REC-SVG-20010904/DTD/svg10.dtd">
<svg version="1.0" xmlns="http://www.w3.org/2000/svg"
 width="1200.000000pt" height="480.000000pt" viewBox="0 0 1200.000000 480.000000"
 preserveAspectRatio="xMidYMid meet">

<g transform="translate(0.000000,480.000000) scale(0.100000,-0.100000)"
fill="#000000" stroke="none">
<path d="M3837 3734 c-33 -18 -49 -52 -35 -76 12 -24 31 -23 53 2 18 20 69 27
79 11 6 -10 -20 -35 -46 -44 -28 -10 -23 -55 7 -69 39 -18 31 -38 -14 -38 -22
0 -43 5 -46 10 -8 13 -42 13 -50 -1 -13 -21 5 -57 35 -69 33 -14 106 -8 141
10 31 17 42 57 24 92 -13 27 -13 33 0 51 16 22 19 64 9 92 -16 41 -105 57
-157 29z"/>
<path d="M4156 3739 c-51 -14 -93 -69 -80 -104 9 -23 42 -18 60 10 19 30 50
41 69 25 21 -18 19 -26 -15 -57 -36 -31 -37 -40 -8 -70 32 -34 12 -51 -41 -33
-68 22 -96 -9 -45 -49 37 -29 85 -36 122 -17 42 21 56 50 48 98 -4 26 -1 48 9
69 13 24 14 37 5 63 -19 57 -64 81 -124 65z"/>
<path d="M4404 3734 c-39 -19 -58 -57 -44 -85 15 -26 36 -24 56 6 11 17 25 25
45 25 44 0 48 -26 10 -62 -41 -38 -39 -53 7 -77 40 -21 26 -33 -33 -26 -46 6
-56 5 -61 -9 -15 -38 62 -77 121 -62 57 14 83 76 51 122 -10 13 -11 25 -5 35
5 8 9 33 9 56 0 76 -79 115 -156 77z"/>
<path d="M7234 3661 c-72 -33 -62 -76 12 -53 19 5 34 8 34 6 0 -2 -16 -24 -35
-50 -19 -25 -35 -56 -35 -68 0 -31 30 -56 67 -56 67 0 81 24 36 59 l-26 21 20
23 c44 48 55 94 27 121 -20 21 -50 20 -100 -3z"/>
<path d="M7004 3618 c-23 -44 -15 -168 13 -206 25 -34 37 -37 58 -15 15 15 17
30 11 113 -8 125 -13 140 -42 140 -16 0 -29 -10 -40 -32z"/>
<path d="M7337 3292 c-34 -37 -15 -82 33 -82 14 0 31 5 38 12 7 7 12 24 12 38
0 49 -51 68 -83 32z"/>
<path d="M7062 3248 c-27 -27 -5 -88 33 -88 28 0 55 24 55 49 0 39 -61 66 -88
39z"/>
<path d="M4572 2818 c-12 -15 -36 -150 -53 -301 l-13 -107 -76 0 c-50 0 -83
-5 -96 -14 -17 -13 -17 -15 -2 -21 9 -4 53 -5 97 -3 68 2 81 1 81 -13 0 -32
-27 -47 -115 -64 -93 -18 -125 -29 -125 -45 0 -18 37 -20 120 -5 123 22 120
23 120 -30 0 -53 25 -121 48 -130 32 -12 46 20 44 102 -1 43 2 84 7 92 5 7 37
25 72 40 102 42 88 76 -35 88 l-65 6 6 208 c3 115 4 209 1 209 -3 0 -10 -6
-16 -12z m78 -458 c-8 -5 -28 -10 -45 -10 -23 0 -27 3 -15 10 8 5 29 10 45 10
23 0 27 -3 15 -10z"/>
<path d="M7840 2196 c0 -32 137 -115 259 -157 56 -20 111 -25 111 -11 0 30
-155 124 -267 161 -73 25 -103 26 -103 7z"/>
<path d="M7775 2109 c-4 -6 3 -21 15 -35 29 -29 174 -105 257 -133 66 -22 159
-29 148 -11 -13 21 -369 190 -400 190 -8 0 -17 -5 -20 -11z"/>
<path d="M8535 1941 c-12 -20 7 -31 69 -41 92 -15 358 -23 386 -12 24 9 24 10
-15 20 -109 30 -427 53 -440 33z"/>
<path d="M8201 1873 c-26 -32 -35 -65 -27 -98 10 -40 39 -49 110 -34 59 11 65
11 130 -15 71 -29 102 -29 130 0 9 8 16 24 16 35 0 16 -7 19 -54 19 -32 0 -74
9 -105 21 -49 21 -53 21 -94 5 -78 -30 -94 -18 -57 42 26 42 25 52 -4 52 -15
0 -33 -11 -45 -27z"/>
<path d="M8563 1834 c-14 -37 60 -59 239 -70 173 -11 231 13 117 47 -64 20
-209 39 -292 39 -44 0 -59 -4 -64 -16z"/>
<path d="M5580 1594 c-45 -19 -274 -80 -362 -94 -82 -14 -108 -30 -89 -54 11
-12 33 -16 102 -16 49 0 89 -4 89 -9 0 -10 -37 -25 -98 -41 -48 -12 -60 -30
-43 -63 6 -12 17 -40 25 -62 l13 -40 70 3 70 4 -5 -32 c-3 -24 -15 -38 -46
-57 -58 -36 -86 -64 -86 -85 0 -34 30 -31 111 11 44 22 86 41 93 41 6 0 44
-32 84 -71 74 -72 104 -84 110 -42 2 12 -9 35 -27 56 -57 64 -40 81 89 92 91
7 120 17 120 40 0 27 -40 38 -122 32 l-78 -6 0 35 c0 29 5 38 32 52 61 33 71
49 66 107 -3 29 -12 65 -22 80 -17 26 -20 27 -79 20 -72 -8 -70 -3 16 39 45
23 62 36 62 51 0 26 -47 31 -95 9z m-120 -124 c0 -10 -32 -30 -49 -30 -20 0
-11 20 12 30 29 12 37 12 37 0z m165 -80 c0 -31 -31 -39 -40 -11 -8 26 2 43
23 39 11 -2 17 -13 17 -28z m-116 -22 c12 -30 3 -38 -44 -41 -31 -1 -40 2 -43
16 -2 12 7 22 30 32 44 19 47 19 57 -7z m-154 -55 c0 -14 -71 -54 -80 -45 -11
12 -4 42 13 51 22 14 67 10 67 -6z m173 -74 c4 -24 -21 -46 -60 -52 -35 -5
-38 -4 -38 17 0 28 15 42 50 49 34 6 45 3 48 -14z"/>
<path d="M5700 1066 c0 -31 38 -58 125 -91 93 -35 135 -32 119 9 -8 20 -186
106 -219 106 -20 0 -25 -5 -25 -24z"/>
<path d="M5400 1014 c-17 -43 -12 -112 9 -133 38 -38 250 -68 279 -39 20 20
14 47 -10 52 -13 3 -54 8 -93 11 -99 10 -115 18 -115 57 0 57 -10 78 -36 78
-17 0 -28 -8 -34 -26z"/>
<path d="M5307 1003 c-2 -5 -8 -26 -11 -48 -4 -22 -19 -66 -33 -98 -23 -51
-24 -60 -11 -73 21 -21 45 -8 73 40 51 87 54 186 6 186 -11 0 -22 -3 -24 -7z"/>
</g>
</svg>
