<?xml version="1.0" standalone="no"?>
<!DOCTYPE svg PUBLIC "-//W3C//DTD SVG 20010904//EN"
 "http://www.w3.org/TR/2001/REC-SVG-20010904/DTD/svg10.dtd">
<svg version="1.0" xmlns="http://www.w3.org/2000/svg"
 width="1200.000000pt" height="480.000000pt" viewBox="0 0 1200.000000 480.000000"
 preserveAspectRatio="xMidYMid meet">

<g transform="translate(0.000000,480.000000) scale(0.100000,-0.100000)"
fill="#000000" stroke="none">
<path d="M8892 3821 c-69 -24 -120 -65 -158 -129 -37 -61 -47 -114 -33 -167 6
-22 8 -62 4 -93 l-7 -54 59 7 c42 4 68 2 95 -9 79 -34 212 -12 290 47 53 39
98 124 98 181 0 23 -11 65 -25 94 -14 30 -25 69 -25 87 l0 33 -67 6 c-38 3
-93 9 -123 11 -39 4 -71 0 -108 -14z m95 -38 c24 -10 43 -21 43 -25 0 -7 -60
-65 -165 -157 -65 -57 -71 -60 -79 -42 -15 33 19 103 85 175 34 36 64 66 67
66 4 0 26 -8 49 -17z m183 -149 c16 -49 4 -90 -41 -135 -46 -46 -130 -75 -192
-65 -22 4 -45 10 -50 13 -6 3 46 61 114 128 112 110 126 120 141 107 10 -8 22
-30 28 -48z"/>
<path d="M6020 3783 c-50 -33 -80 -67 -80 -91 0 -37 59 -87 119 -102 76 -18
171 5 130 31 -8 5 -44 20 -81 35 -38 14 -68 30 -68 35 0 5 12 27 26 49 37 56
10 81 -46 43z"/>
<path d="M3837 3754 c-33 -18 -49 -52 -35 -76 12 -24 31 -23 53 2 18 20 69 27
79 11 6 -10 -20 -35 -46 -44 -28 -10 -23 -55 7 -69 39 -18 31 -38 -14 -38 -22
0 -43 5 -46 10 -8 13 -42 13 -50 -1 -13 -21 5 -57 35 -69 33 -14 106 -8 141
10 31 17 42 57 24 92 -13 27 -13 33 0 51 16 22 19 64 9 92 -16 41 -105 57
-157 29z"/>
<path d="M4156 3759 c-51 -14 -93 -69 -80 -104 9 -23 42 -18 60 10 19 30 50
41 69 25 21 -18 19 -26 -15 -57 -36 -31 -37 -40 -8 -70 32 -34 12 -51 -41 -33
-68 22 -96 -9 -45 -49 37 -29 85 -36 122 -17 42 21 56 50 48 98 -4 26 -1 48 9
69 13 24 14 37 5 63 -19 57 -64 81 -124 65z"/>
<path d="M4404 3754 c-39 -19 -58 -57 -44 -85 15 -26 36 -24 56 6 11 17 25 25
45 25 44 0 48 -26 10 -62 -41 -38 -39 -53 7 -77 40 -21 26 -33 -33 -26 -46 6
-56 5 -61 -9 -15 -38 62 -77 121 -62 57 14 83 76 51 122 -10 13 -11 25 -5 35
5 8 9 33 9 56 0 76 -79 115 -156 77z"/>
<path d="M5544 3647 c-9 -24 1 -33 51 -46 25 -6 45 -13 45 -16 0 -3 -18 -23
-40 -45 -43 -43 -53 -80 -22 -80 27 0 100 51 123 86 42 64 12 102 -90 111 -50
5 -62 3 -67 -10z"/>
<path d="M7235 3596 c-34 -15 -65 -42 -65 -57 0 -12 42 -12 74 1 14 5 26 7 26
5 0 -3 -16 -25 -35 -51 -19 -25 -35 -56 -35 -69 0 -32 35 -55 83 -55 51 0 60
25 22 57 l-27 24 20 22 c79 87 38 167 -63 123z"/>
<path d="M6994 3548 c-23 -44 -15 -168 13 -206 25 -34 37 -37 58 -15 15 15 17
30 11 113 -8 125 -13 140 -42 140 -16 0 -29 -10 -40 -32z"/>
<path d="M5813 3554 c-8 -22 9 -48 36 -52 26 -4 37 19 21 47 -13 25 -48 28
-57 5z"/>
<path d="M7327 3222 c-34 -37 -15 -82 33 -82 14 0 31 5 38 12 7 7 12 24 12 38
0 49 -51 68 -83 32z"/>
<path d="M8045 3230 c-36 -15 -135 -146 -135 -179 0 -25 31 -63 149 -183 59
-60 103 -98 116 -98 11 0 36 10 55 21 49 30 190 141 222 175 31 34 58 101 65
160 4 36 0 47 -25 75 -25 28 -36 33 -88 37 -44 3 -73 -1 -111 -17 -51 -20 -52
-20 -107 -1 -58 21 -107 24 -141 10z"/>
<path d="M7052 3178 c-27 -27 -5 -88 33 -88 28 0 55 24 55 49 0 39 -61 66 -88
39z"/>
<path d="M5538 2890 c-18 -11 -47 -95 -68 -195 -7 -33 -16 -65 -21 -71 -5 -6
-32 -14 -60 -17 -64 -8 -99 -30 -99 -61 0 -33 23 -48 78 -54 l48 -4 -18 -82
c-23 -105 -24 -256 -1 -325 28 -88 109 -151 195 -151 38 0 143 57 177 96 32
36 39 72 19 92 -20 20 -53 14 -95 -17 -59 -43 -102 -63 -122 -56 -9 3 -30 19
-46 35 -28 29 -29 36 -32 128 -3 73 2 122 20 201 l23 104 46 12 c57 14 78 30
78 60 0 27 -15 41 -53 50 -33 9 -33 15 -5 133 16 69 19 98 12 110 -13 20 -52
26 -76 12z"/>
<path d="M4572 2847 c-15 -18 -27 -80 -48 -247 -10 -80 -22 -148 -28 -152 -6
-4 -41 -8 -77 -8 -40 0 -72 -5 -85 -14 -17 -13 -17 -15 -2 -21 9 -4 53 -5 97
-3 68 2 81 1 81 -13 0 -32 -27 -47 -115 -64 -93 -18 -125 -29 -125 -45 0 -18
37 -20 120 -5 121 21 120 21 120 -21 0 -54 21 -124 40 -134 12 -6 23 -5 36 5
16 11 19 25 16 90 -1 42 2 83 6 92 5 8 38 27 73 42 102 42 88 76 -35 88 l-65
6 6 208 c3 115 4 209 1 209 -3 0 -10 -6 -16 -13z m78 -457 c-8 -5 -28 -10 -45
-10 -23 0 -27 3 -15 10 8 5 29 10 45 10 23 0 27 -3 15 -10z"/>
<path d="M3445 2807 c-47 -49 -71 -117 -62 -173 16 -99 143 -172 225 -130 90
47 135 183 87 266 -27 46 -95 80 -158 80 -46 0 -54 -4 -92 -43z m108 -58 c73
-20 96 -73 62 -139 -27 -53 -98 -52 -138 2 -21 28 -28 112 -13 137 9 14 40 14
89 0z"/>
<path d="M9438 2776 c-21 -8 -49 -21 -63 -30 -24 -16 -30 -16 -75 -1 -46 15
-127 13 -117 -4 2 -3 10 -20 17 -37 9 -20 30 -39 65 -58 29 -15 65 -41 81 -57
27 -28 28 -31 11 -40 -9 -6 -52 -36 -95 -68 -174 -129 -220 -160 -291 -196
-74 -37 -74 -37 -99 -18 -38 29 -62 65 -72 109 -13 57 16 115 101 196 59 57
197 158 233 171 25 9 -9 21 -69 25 -88 6 -155 -27 -250 -123 -85 -85 -124
-158 -132 -247 -5 -57 -10 -68 -51 -113 -76 -85 -87 -146 -31 -176 29 -15 117
-6 194 20 l60 20 65 -22 c52 -18 88 -22 185 -22 111 0 124 2 177 28 135 66
238 253 210 382 -10 49 -10 49 33 100 40 47 65 91 65 116 0 5 -11 21 -25 34
-28 28 -69 32 -127 11z m62 -69 c0 -7 -14 -26 -30 -42 l-30 -29 -22 22 -22 21
45 20 c52 24 59 25 59 8z m-115 -274 c-10 -53 -30 -89 -83 -145 -57 -61 -118
-82 -207 -70 l-60 8 49 30 c27 16 63 39 80 51 17 13 56 39 86 59 30 21 72 52
93 71 20 18 40 33 43 33 3 0 3 -17 -1 -37z m-652 -250 c-42 -13 -93 -17 -93
-7 0 4 15 23 33 44 l32 37 33 -31 33 -31 -38 -12z"/>
<path d="M7390 2724 c-49 -19 -69 -23 -82 -15 -25 15 -53 14 -67 -3 -7 -8 -14
-47 -17 -88 -6 -96 -42 -270 -104 -498 -45 -169 -48 -186 -34 -207 22 -34 60
-30 83 8 11 17 34 85 52 150 l34 118 127 41 c186 61 230 99 265 233 15 57 16
74 4 129 -16 81 -38 119 -81 140 -48 24 -103 22 -180 -8z m134 -100 c20 -20
22 -131 2 -178 -20 -49 -98 -95 -198 -120 -26 -6 -28 -4 -28 23 0 35 27 177
40 208 12 28 108 79 157 82 6 1 19 -6 27 -15z"/>
<path d="M5965 2681 c-127 -46 -174 -86 -156 -135 14 -34 48 -34 121 0 131 63
199 45 200 -53 0 -59 -6 -70 -65 -108 -57 -36 -72 -62 -55 -95 12 -23 38 -30
95 -27 37 2 40 0 43 -26 7 -56 -57 -87 -175 -87 -68 0 -103 -19 -103 -55 0
-52 80 -74 186 -51 82 17 139 43 173 80 36 39 41 128 11 191 -22 45 -22 47 -5
101 35 112 -15 226 -117 269 -47 19 -90 18 -153 -4z"/>
<path d="M2638 2646 c-73 -59 -98 -106 -98 -187 0 -75 27 -138 72 -170 37 -27
104 -35 151 -20 48 16 112 82 133 137 15 39 15 52 5 100 -21 91 -94 171 -167
180 -35 5 -45 0 -96 -40z m102 -58 c54 -28 97 -98 87 -140 -11 -41 -55 -87
-97 -99 -45 -14 -76 1 -107 48 -21 32 -23 118 -4 176 11 32 16 37 45 37 17 0
52 -10 76 -22z"/>
<path d="M6916 2648 c-17 -18 -41 -46 -53 -62 l-20 -30 -44 37 c-73 63 -133
67 -204 12 -41 -30 -45 -31 -45 -4 0 37 -19 59 -50 59 -43 0 -58 -31 -71 -150
-6 -57 -22 -140 -35 -184 -37 -124 -31 -156 33 -156 38 0 41 5 84 127 32 91
84 171 138 211 40 29 54 28 85 -9 22 -26 26 -40 26 -94 0 -70 14 -95 54 -95
30 0 46 19 96 119 23 47 45 80 50 75 5 -5 12 -62 16 -127 8 -136 21 -165 68
-153 39 10 49 45 43 157 -8 137 -33 236 -67 271 -37 37 -65 35 -104 -4z"/>
<path d="M3290 2568 c0 -2 -9 -28 -19 -58 -18 -55 -18 -55 -59 -55 -28 0 -48
-7 -64 -22 -43 -41 -64 -25 -84 60 -8 33 -21 35 -35 3 -16 -35 -3 -90 30 -125
34 -36 58 -39 94 -11 21 17 34 19 80 14 50 -6 56 -4 87 23 27 24 33 38 37 80
6 61 -8 93 -42 93 -14 0 -25 -1 -25 -2z"/>
<path d="M7770 2086 c0 -32 137 -115 259 -157 58 -20 111 -25 111 -10 0 19
-74 72 -153 110 -137 66 -217 87 -217 57z"/>
<path d="M7705 1999 c-4 -6 4 -22 16 -36 29 -30 194 -115 268 -137 62 -18 146
-22 136 -6 -13 20 -370 190 -399 190 -8 0 -18 -5 -21 -11z"/>
<path d="M8465 1830 c-12 -19 7 -30 69 -40 92 -15 358 -23 386 -12 24 9 24 10
-17 21 -103 28 -425 51 -438 31z"/>
<path d="M8131 1763 c-40 -50 -40 -112 1 -134 16 -9 34 -8 74 1 56 14 57 13
148 -20 33 -12 69 -19 82 -16 30 8 54 33 54 57 0 16 -7 19 -54 19 -32 0 -74 9
-105 21 -49 21 -53 21 -94 5 -78 -30 -94 -18 -57 42 26 42 25 52 -4 52 -15 0
-33 -11 -45 -27z"/>
<path d="M8493 1724 c-14 -37 60 -59 239 -70 173 -11 231 13 117 47 -64 20
-209 39 -292 39 -44 0 -59 -4 -64 -16z"/>
<path d="M5580 1574 c-45 -20 -276 -80 -362 -94 -82 -14 -108 -30 -89 -54 11
-12 33 -16 102 -16 49 0 89 -4 89 -9 0 -10 -37 -25 -98 -41 -24 -6 -45 -17
-48 -25 -3 -8 6 -42 20 -77 l25 -63 71 4 71 3 -7 -28 c-3 -16 -13 -35 -23 -42
-9 -7 -36 -27 -61 -45 -46 -34 -63 -72 -36 -83 8 -3 52 13 97 35 45 23 87 41
93 41 7 0 44 -32 84 -71 74 -72 104 -84 110 -42 2 12 -9 35 -27 56 -56 63 -40
81 80 90 89 8 129 20 129 41 0 28 -40 39 -122 33 l-78 -6 0 35 c0 29 5 38 32
52 61 33 71 49 66 107 -3 29 -12 65 -22 80 -17 25 -21 27 -79 21 l-62 -6 56
28 c70 34 89 49 89 73 0 24 -49 25 -100 3z m-120 -124 c0 -10 -32 -30 -49 -30
-20 0 -11 20 12 30 29 12 37 12 37 0z m165 -80 c0 -31 -31 -39 -40 -11 -8 26
2 43 23 39 11 -2 17 -13 17 -28z m-116 -22 c12 -30 3 -38 -44 -41 -31 -1 -40
2 -43 16 -2 12 7 22 30 32 44 19 47 19 57 -7z m-151 -52 c2 -11 -8 -21 -32
-31 -47 -20 -56 -19 -56 5 0 14 11 26 33 35 38 17 51 15 55 -9z m170 -76 c4
-25 -21 -47 -60 -53 -35 -5 -38 -4 -38 17 0 26 14 41 45 49 31 8 50 3 53 -13z"/>
<path d="M4005 1559 c-15 -12 -44 -43 -65 -70 l-37 -47 -44 44 c-24 24 -51 47
-62 50 -26 8 -47 -13 -47 -48 0 -35 13 -61 52 -106 l29 -33 -30 -38 c-17 -21
-37 -44 -46 -51 -9 -8 -23 -27 -31 -43 -14 -25 -14 -31 1 -53 28 -43 62 -32
131 41 l61 65 57 -40 c71 -50 110 -70 134 -70 24 0 52 31 52 57 0 27 -37 73
-58 73 -29 0 -123 60 -115 73 3 7 24 35 44 62 45 60 62 101 54 132 -7 30 -43
30 -80 2z"/>
<path d="M7604 1542 c-6 -4 -26 -41 -46 -82 -19 -41 -51 -96 -71 -122 -21 -27
-32 -50 -26 -53 18 -12 100 46 135 96 20 27 37 49 39 49 10 0 45 -96 45 -124
0 -17 -14 -58 -31 -92 -35 -66 -34 -87 5 -106 36 -16 65 7 103 78 41 77 48
116 32 171 -20 73 -154 206 -185 185z"/>
<path d="M6953 1439 c-53 -26 -99 -77 -114 -127 -16 -55 8 -135 59 -192 31
-35 44 -43 77 -44 54 -1 57 22 10 66 -47 42 -65 77 -65 127 0 39 36 131 51
131 4 0 11 -14 14 -32 12 -55 123 -158 170 -158 29 0 14 38 -49 124 -36 47
-68 95 -71 106 -8 26 -29 25 -82 -1z"/>
<path d="M5702 1043 c2 -24 15 -34 78 -66 87 -44 154 -58 163 -33 3 8 -1 23
-10 31 -23 24 -182 95 -210 95 -21 0 -24 -4 -21 -27z"/>
<path d="M5400 994 c-6 -14 -10 -47 -10 -74 0 -60 14 -72 110 -94 127 -30 208
-18 198 31 -3 15 -18 19 -91 26 -119 11 -137 18 -137 59 0 57 -10 78 -36 78
-17 0 -28 -8 -34 -26z"/>
<path d="M5307 983 c-2 -5 -8 -26 -11 -48 -4 -22 -19 -66 -33 -98 -23 -51 -24
-60 -11 -73 8 -8 22 -12 31 -8 44 17 100 171 77 213 -10 20 -44 29 -53 14z"/>
</g>
</svg>
