<?xml version="1.0" standalone="no"?>
<!DOCTYPE svg PUBLIC "-//W3C//DTD SVG 20010904//EN"
 "http://www.w3.org/TR/2001/REC-SVG-20010904/DTD/svg10.dtd">
<svg version="1.0" xmlns="http://www.w3.org/2000/svg"
 width="1200.000000pt" height="480.000000pt" viewBox="0 0 1200.000000 480.000000"
 preserveAspectRatio="xMidYMid meet">

<g transform="translate(0.000000,480.000000) scale(0.100000,-0.100000)"
fill="#000000" stroke="none">
<path d="M5506 2907 c-10 -7 -38 -74 -64 -153 -38 -112 -51 -140 -67 -142 -87
-13 -111 -66 -46 -103 l28 -16 -18 -109 c-29 -174 -23 -266 25 -369 29 -65 67
-85 159 -85 83 0 124 15 143 52 14 28 14 32 0 47 -13 12 -37 16 -104 16 l-87
0 -17 35 c-23 45 -24 202 -3 326 9 48 17 90 19 92 2 2 35 10 73 18 88 18 121
32 134 56 8 15 7 24 -7 39 -14 15 -31 19 -84 19 l-68 0 25 83 c39 133 44 166
33 187 -12 23 -48 26 -74 7z"/>
<path d="M6975 2732 c-38 -18 -195 -173 -195 -193 0 -26 -20 -3 -40 46 -44
108 -99 134 -159 73 -17 -17 -31 -37 -31 -42 0 -6 -9 4 -20 22 -24 39 -62 44
-84 10 -7 -13 -17 -61 -20 -108 -8 -105 -40 -264 -66 -331 -11 -27 -20 -58
-20 -69 0 -45 62 -66 93 -32 9 10 50 95 91 189 95 218 105 238 118 225 5 -5
16 -51 24 -102 15 -103 33 -140 68 -140 29 0 43 17 95 115 76 143 183 257 213
227 19 -19 26 -110 16 -205 -11 -100 2 -137 46 -137 29 0 44 17 52 59 4 17 8
30 11 28 2 -3 -5 -67 -17 -143 -27 -187 -27 -238 2 -258 28 -20 52 -20 67 -2
6 8 20 81 31 162 25 190 50 370 56 410 3 25 13 35 53 54 63 29 86 23 144 -39
57 -61 75 -114 58 -171 -17 -58 -65 -80 -170 -80 -74 0 -82 -2 -96 -24 -13
-20 -14 -29 -5 -46 16 -29 50 -40 128 -40 90 0 130 13 182 57 79 68 99 159 59
270 -26 72 -124 172 -193 198 -45 17 -48 17 -100 -3 -47 -18 -57 -19 -73 -7
-23 18 -57 19 -71 2 -12 -14 -31 -120 -33 -182 -1 -32 -3 -27 -10 25 -22 153
-105 228 -204 182z"/>
<path d="M5995 2674 c-61 -21 -115 -70 -115 -103 0 -29 16 -51 38 -51 7 0 45
14 84 31 44 19 79 28 93 25 26 -7 55 -32 55 -47 0 -12 -37 -48 -98 -97 -29
-22 -42 -41 -42 -57 0 -36 32 -49 107 -41 53 6 64 4 70 -10 13 -34 -61 -140
-120 -171 -24 -12 -48 -14 -108 -9 -84 7 -113 -6 -107 -47 6 -38 53 -61 134
-65 65 -4 81 -1 128 22 84 41 167 146 190 239 9 37 -9 99 -35 123 -18 16 -20
26 -14 74 10 88 -21 145 -100 181 -47 22 -104 23 -160 3z"/>
</g>
</svg>
