<?xml version="1.0" standalone="no"?>
<!DOCTYPE svg PUBLIC "-//W3C//DTD SVG 20010904//EN"
 "http://www.w3.org/TR/2001/REC-SVG-20010904/DTD/svg10.dtd">
<svg version="1.0" xmlns="http://www.w3.org/2000/svg"
 width="1200.000000pt" height="480.000000pt" viewBox="0 0 1200.000000 480.000000"
 preserveAspectRatio="xMidYMid meet">

<g transform="translate(0.000000,480.000000) scale(0.100000,-0.100000)"
fill="#000000" stroke="none">
<path d="M8935 3822 c-98 -34 -163 -102 -191 -198 -12 -43 -13 -61 -4 -95 7
-26 9 -65 5 -97 l-7 -55 59 7 c43 5 69 2 96 -9 94 -39 237 -6 318 75 74 74 87
165 39 265 -11 23 -20 55 -20 72 0 31 0 31 -67 37 -161 16 -178 16 -228 -2z
m98 -43 c20 -7 37 -16 37 -20 0 -8 -58 -64 -165 -158 -65 -57 -71 -60 -79 -42
-15 34 19 103 86 176 33 36 66 64 72 62 6 -2 28 -10 49 -18z m178 -159 c10
-34 9 -43 -12 -81 -15 -27 -42 -54 -73 -73 -41 -26 -58 -30 -115 -30 -110 0
-109 3 30 138 120 117 125 120 141 103 10 -11 23 -36 29 -57z"/>
<path d="M6004 3792 c-57 -42 -67 -57 -59 -90 16 -77 153 -126 240 -88 l30 14
-55 25 c-30 14 -72 33 -94 41 -37 16 -38 17 -22 38 9 13 23 33 32 45 34 48
-13 58 -72 15z"/>
<path d="M3857 3784 c-33 -18 -49 -52 -35 -76 12 -24 31 -23 53 2 18 20 69 27
79 11 6 -10 -20 -35 -46 -44 -28 -10 -23 -55 7 -69 39 -18 31 -38 -14 -38 -22
0 -43 5 -46 10 -8 13 -42 13 -50 -1 -13 -21 5 -57 35 -69 33 -14 106 -8 141
10 31 17 42 57 24 92 -13 27 -13 33 0 51 16 22 19 64 9 92 -16 41 -105 57
-157 29z"/>
<path d="M4176 3789 c-51 -14 -93 -69 -80 -104 9 -23 42 -18 60 10 19 30 50
41 69 25 21 -18 19 -26 -15 -57 -36 -31 -37 -40 -8 -70 32 -34 12 -51 -41 -33
-68 22 -96 -9 -45 -49 37 -29 85 -36 122 -17 42 21 56 50 48 98 -4 26 -1 48 9
69 13 24 14 37 5 63 -19 57 -64 81 -124 65z"/>
<path d="M4424 3784 c-39 -19 -58 -57 -44 -85 15 -26 36 -24 56 6 11 17 25 25
45 25 44 0 48 -26 10 -62 -41 -38 -39 -53 7 -77 40 -21 26 -33 -33 -26 -46 6
-56 5 -61 -9 -15 -38 62 -77 121 -62 57 14 83 76 51 122 -10 13 -11 25 -5 35
5 8 9 33 9 56 0 76 -79 115 -156 77z"/>
<path d="M5544 3667 c-9 -24 1 -33 51 -47 25 -7 45 -14 45 -15 0 -2 -18 -21
-40 -43 -41 -40 -53 -82 -25 -82 28 0 70 28 108 69 66 73 41 118 -72 128 -50
5 -62 3 -67 -10z"/>
<path d="M7264 3591 c-72 -33 -62 -76 12 -53 19 5 34 8 34 6 0 -2 -16 -24 -35
-50 -40 -53 -44 -86 -13 -108 29 -21 82 -20 99 0 11 14 9 20 -15 41 l-28 24
20 22 c43 48 54 94 26 121 -20 21 -50 20 -100 -3z"/>
<path d="M5813 3574 c-8 -22 9 -48 36 -52 26 -4 37 19 21 47 -13 25 -48 28
-57 5z"/>
<path d="M7045 3570 c-37 -41 -31 -190 10 -238 l23 -27 22 20 c21 19 22 25 16
117 -9 142 -28 176 -71 128z"/>
<path d="M7367 3222 c-36 -39 -12 -86 40 -80 33 4 54 48 37 76 -16 24 -57 27
-77 4z"/>
<path d="M8085 3230 c-36 -15 -135 -146 -135 -180 0 -39 229 -280 266 -280 11
0 35 10 54 21 49 30 190 141 222 175 30 32 58 99 65 157 13 96 -102 146 -226
97 -49 -19 -50 -19 -105 0 -58 21 -107 24 -141 10z"/>
<path d="M7092 3178 c-27 -27 -5 -88 33 -88 28 0 55 24 55 49 0 39 -61 66 -88
39z"/>
<path d="M5569 2936 c-38 -26 -87 -109 -120 -203 -26 -77 -45 -103 -73 -103
-34 0 -78 -38 -74 -63 2 -12 17 -28 33 -37 17 -8 32 -16 34 -17 2 -1 -4 -31
-13 -67 -50 -200 -21 -404 66 -469 88 -65 296 -2 260 78 -13 28 -31 30 -112
15 -67 -13 -86 -7 -107 33 -36 67 -13 356 32 400 7 7 63 18 125 25 127 14 147
22 156 58 11 45 -14 59 -104 56 -42 -1 -89 -5 -104 -8 -37 -8 -36 5 8 119 35
89 56 207 38 207 -5 0 -25 -11 -45 -24z"/>
<path d="M4572 2888 c-12 -16 -37 -158 -53 -300 l-13 -108 -73 0 c-74 0 -119
-13 -108 -31 4 -5 46 -9 96 -9 70 0 89 -3 89 -14 0 -28 -29 -43 -117 -60 -91
-19 -123 -30 -123 -46 0 -18 37 -20 120 -5 121 21 120 21 120 -21 0 -54 21
-124 40 -134 12 -6 23 -5 36 5 16 11 19 25 17 84 -4 98 2 108 77 140 103 42
89 76 -34 88 l-65 6 6 208 c3 115 4 209 1 209 -3 0 -10 -6 -16 -12z m78 -458
c-8 -5 -28 -10 -45 -10 -23 0 -27 3 -15 10 8 5 29 10 45 10 23 0 27 -3 15 -10z"/>
<path d="M3452 2856 c-59 -53 -86 -148 -61 -213 22 -60 100 -112 165 -113 86
0 176 129 158 226 -8 41 -53 98 -95 120 -15 7 -51 14 -78 14 -44 0 -56 -5 -89
-34z m111 -70 c49 -20 67 -43 67 -85 0 -56 -39 -95 -87 -88 -44 8 -69 29 -83
73 -10 30 -7 84 7 107 7 12 61 8 96 -7z"/>
<path d="M9488 2786 c-21 -8 -49 -21 -63 -30 -24 -16 -30 -16 -75 -1 -46 15
-127 13 -117 -4 2 -3 10 -20 17 -37 9 -20 30 -39 65 -58 29 -15 65 -41 81 -57
27 -28 28 -31 11 -40 -9 -6 -52 -36 -95 -68 -174 -129 -220 -160 -291 -196
-74 -37 -74 -37 -99 -18 -38 29 -62 65 -72 109 -13 57 16 115 101 196 59 57
197 158 233 171 25 9 -9 21 -69 25 -88 6 -155 -27 -250 -123 -85 -85 -124
-158 -132 -247 -5 -57 -10 -68 -51 -113 -76 -85 -87 -146 -31 -176 29 -15 117
-6 194 20 l60 20 65 -22 c52 -18 88 -22 185 -22 111 0 124 2 177 28 135 66
238 253 210 382 -10 49 -10 49 33 100 40 47 65 91 65 116 0 5 -11 21 -25 34
-28 28 -69 32 -127 11z m62 -69 c0 -7 -14 -26 -30 -42 l-30 -29 -22 22 -22 21
45 20 c52 24 59 25 59 8z m-115 -274 c-10 -53 -30 -89 -83 -145 -57 -61 -118
-82 -207 -70 l-60 8 49 30 c27 16 63 39 80 51 17 13 56 39 86 59 30 21 72 52
93 71 20 18 40 33 43 33 3 0 3 -17 -1 -37z m-652 -250 c-42 -13 -93 -17 -93
-7 0 4 15 23 33 44 l32 37 33 -31 33 -31 -38 -12z"/>
<path d="M2638 2685 c-62 -48 -82 -79 -97 -146 -30 -134 77 -258 202 -235 75
14 167 122 167 196 0 76 -71 189 -137 216 -52 22 -74 17 -135 -31z m98 -56
c113 -54 111 -202 -2 -239 -45 -15 -89 1 -109 41 -18 33 -20 142 -4 188 9 26
16 31 42 31 17 0 50 -9 73 -21z"/>
<path d="M7410 2709 c-56 -15 -81 -17 -98 -9 -47 21 -60 13 -76 -42 -32 -110
-116 -651 -116 -741 0 -60 14 -81 52 -75 32 4 45 37 69 179 l22 124 91 0 c77
0 99 4 146 26 77 36 115 71 146 135 24 48 26 63 22 129 -4 60 -12 90 -41 148
-43 86 -83 135 -117 141 -14 3 -59 -4 -100 -15z m114 -167 c17 -34 30 -75 33
-110 6 -74 -20 -116 -96 -154 -62 -32 -108 -35 -152 -12 -29 14 -30 18 -24 57
16 104 47 243 56 254 13 14 49 21 109 19 44 -1 46 -2 74 -54z"/>
<path d="M6927 2689 c-26 -17 -69 -51 -96 -75 -27 -24 -51 -44 -54 -44 -3 0
-8 16 -12 36 -3 20 -17 47 -30 60 -46 46 -104 26 -182 -63 l-43 -48 0 40 c0
49 -23 85 -54 85 -36 0 -46 -20 -62 -131 -8 -57 -27 -153 -41 -214 -37 -158
-39 -187 -15 -209 11 -9 31 -16 44 -14 24 3 24 2 102 170 41 89 105 195 145
241 15 18 16 18 22 0 4 -10 8 -47 8 -83 2 -122 56 -147 121 -55 19 27 62 78
95 113 56 60 60 62 68 40 5 -14 2 -83 -7 -174 -19 -182 -20 -236 -4 -252 20
-20 56 -14 73 11 23 35 45 202 52 388 6 161 5 167 -16 188 -29 29 -59 26 -114
-10z"/>
<path d="M5977 2675 c-79 -27 -109 -82 -66 -120 18 -17 24 -18 52 -6 56 23
106 35 113 28 12 -11 -22 -73 -66 -121 -43 -46 -50 -75 -24 -100 19 -20 51
-20 84 -1 32 18 69 19 76 1 17 -43 -125 -199 -220 -242 -28 -12 -77 -26 -109
-29 -32 -4 -68 -15 -80 -25 -18 -15 -20 -21 -10 -43 27 -59 138 -58 260 3 71
36 194 146 229 206 54 92 51 179 -6 228 -30 25 -31 25 -24 104 l7 78 -32 27
c-27 23 -42 27 -89 27 -31 -1 -74 -7 -95 -15z"/>
<path d="M3290 2608 c0 -2 -9 -28 -19 -58 -18 -55 -18 -55 -59 -55 -28 0 -48
-7 -64 -22 -43 -41 -64 -25 -84 60 -8 33 -21 35 -35 3 -16 -35 -3 -90 30 -125
34 -36 58 -39 94 -11 21 17 34 19 80 14 50 -6 56 -4 87 23 27 24 33 38 37 80
6 61 -8 93 -42 93 -14 0 -25 -1 -25 -2z"/>
<path d="M7830 2086 c0 -32 137 -115 259 -157 58 -20 111 -25 111 -10 0 18
-76 73 -155 111 -134 64 -215 85 -215 56z"/>
<path d="M7765 2000 c-4 -6 3 -22 15 -36 29 -29 174 -105 257 -133 68 -23 159
-29 147 -10 -9 16 -342 177 -380 185 -20 4 -34 2 -39 -6z"/>
<path d="M8525 1831 c-18 -31 47 -45 252 -57 145 -7 240 1 209 18 -49 27 -447
61 -461 39z"/>
<path d="M8191 1763 c-40 -50 -40 -112 1 -134 16 -9 34 -8 74 1 56 14 57 13
148 -20 33 -12 69 -19 82 -16 30 8 54 33 54 57 0 16 -7 19 -54 19 -32 0 -74 9
-105 21 -49 21 -53 21 -94 5 -78 -30 -94 -18 -57 42 26 42 25 52 -4 52 -15 0
-33 -11 -45 -27z"/>
<path d="M8558 1735 c-14 -15 -8 -34 14 -46 50 -27 312 -50 376 -33 51 14 16
35 -103 60 -82 17 -277 30 -287 19z"/>
<path d="M5545 1604 c-84 -30 -235 -69 -327 -84 -82 -14 -108 -30 -89 -54 11
-12 33 -16 102 -16 49 0 89 -4 89 -9 0 -10 -59 -35 -108 -46 -18 -4 -36 -13
-39 -21 -2 -7 7 -41 21 -76 l25 -63 69 3 69 4 -5 -32 c-3 -25 -16 -38 -61 -67
-61 -39 -71 -49 -71 -76 0 -32 27 -29 111 12 45 23 87 41 93 41 7 0 44 -32 84
-71 74 -72 104 -84 110 -42 2 12 -9 35 -27 56 -57 64 -40 81 89 92 91 7 120
17 120 40 0 27 -40 38 -122 32 l-78 -6 0 35 c0 29 5 38 32 52 61 33 71 49 66
107 -3 29 -12 65 -22 80 -17 25 -21 27 -79 21 l-62 -6 56 28 c70 34 89 49 89
73 0 26 -47 24 -135 -7z m-85 -114 c0 -10 -32 -30 -49 -30 -20 0 -11 20 12 30
29 12 37 12 37 0z m165 -80 c0 -31 -31 -39 -40 -11 -8 26 2 43 23 39 11 -2 17
-13 17 -28z m-116 -22 c12 -30 3 -38 -44 -41 -31 -1 -40 2 -43 16 -2 12 7 22
30 32 44 19 47 19 57 -7z m-151 -52 c2 -11 -8 -21 -32 -31 -47 -20 -56 -19
-56 5 0 14 11 26 33 35 38 17 51 15 55 -9z m170 -77 c4 -24 -21 -46 -60 -52
-35 -5 -38 -4 -38 17 0 28 15 42 50 49 34 6 45 3 48 -14z"/>
<path d="M4005 1599 c-15 -12 -44 -43 -65 -70 l-37 -47 -44 44 c-24 24 -51 47
-62 50 -26 8 -47 -13 -47 -48 0 -35 13 -61 52 -106 l29 -33 -30 -38 c-17 -21
-37 -44 -46 -51 -9 -8 -23 -27 -31 -43 -14 -25 -14 -31 1 -53 28 -43 62 -32
131 41 l61 65 57 -40 c71 -50 110 -70 134 -70 24 0 52 31 52 57 0 30 -38 73
-64 73 -25 0 -106 54 -106 70 0 6 18 34 39 63 47 62 64 103 56 134 -7 30 -43
30 -80 2z"/>
<path d="M7623 1542 c-6 -4 -23 -36 -37 -71 -14 -35 -44 -88 -66 -117 -61 -81
-54 -94 24 -43 25 17 60 51 77 75 16 24 32 44 34 44 11 0 45 -97 45 -126 0
-20 -13 -57 -30 -87 -36 -65 -37 -82 -6 -102 40 -27 77 0 120 86 41 81 44 116
16 176 -34 77 -148 183 -177 165z"/>
<path d="M6973 1439 c-53 -26 -99 -77 -114 -127 -16 -55 8 -135 59 -192 31
-35 44 -43 77 -44 55 -2 56 20 1 75 -48 49 -69 103 -56 147 11 38 42 102 50
102 4 0 12 -17 19 -37 14 -46 32 -69 95 -116 94 -72 115 -36 38 65 -27 35 -61
82 -75 106 -15 23 -33 42 -40 42 -6 0 -31 -9 -54 -21z"/>
<path d="M5700 1090 c0 -29 35 -56 116 -90 98 -41 145 -39 128 4 -8 20 -186
106 -219 106 -18 0 -25 -5 -25 -20z"/>
<path d="M5400 1034 c-17 -43 -12 -112 9 -133 38 -38 250 -68 279 -39 20 20
14 47 -10 52 -13 3 -54 8 -93 11 -99 10 -115 18 -115 57 0 57 -10 78 -36 78
-17 0 -28 -8 -34 -26z"/>
<path d="M5300 1004 c-6 -14 -10 -34 -10 -44 0 -10 -12 -46 -27 -80 -23 -55
-25 -63 -11 -77 24 -23 56 0 85 63 30 67 38 115 24 143 -16 29 -49 27 -61 -5z"/>
</g>
</svg>
