<?xml version="1.0" standalone="no"?>
<!DOCTYPE svg PUBLIC "-//W3C//DTD SVG 20010904//EN"
 "http://www.w3.org/TR/2001/REC-SVG-20010904/DTD/svg10.dtd">
<svg version="1.0" xmlns="http://www.w3.org/2000/svg"
 width="1200.000000pt" height="480.000000pt" viewBox="0 0 1200.000000 480.000000"
 preserveAspectRatio="xMidYMid meet">

<g transform="translate(0.000000,480.000000) scale(0.100000,-0.100000)"
fill="#000000" stroke="none">
<path d="M8925 3802 c-136 -47 -219 -175 -194 -294 6 -28 8 -73 5 -100 l-7
-50 58 7 c42 4 68 2 95 -9 95 -40 238 -7 319 74 74 74 87 165 39 265 -11 23
-20 55 -20 72 0 34 18 30 -190 48 -38 4 -70 0 -105 -13z m92 -39 c24 -10 43
-21 43 -25 0 -7 -60 -65 -165 -157 -65 -57 -71 -60 -79 -42 -15 34 21 107 86
177 33 35 63 64 67 64 3 0 25 -8 48 -17z m183 -149 c16 -49 4 -90 -41 -135
-46 -46 -130 -75 -192 -65 -22 4 -45 10 -50 13 -6 3 46 61 114 128 112 110
126 120 141 107 10 -8 22 -30 28 -48z"/>
<path d="M5995 3772 c-58 -42 -68 -57 -60 -92 14 -62 122 -112 205 -94 24 5
45 14 47 20 2 7 -31 26 -74 44 -43 18 -82 36 -87 41 -5 4 5 23 23 44 54 62 15
88 -54 37z"/>
<path d="M3897 3744 c-33 -18 -49 -52 -35 -76 12 -24 31 -23 53 2 18 20 69 27
79 11 6 -10 -20 -35 -46 -44 -28 -10 -23 -55 7 -69 39 -18 31 -38 -14 -38 -22
0 -43 5 -46 10 -8 13 -42 13 -50 -1 -13 -21 5 -57 35 -69 33 -14 106 -8 141
10 31 17 42 57 24 92 -13 27 -13 33 0 51 16 22 19 64 9 92 -16 41 -105 57
-157 29z"/>
<path d="M4216 3749 c-51 -14 -93 -69 -80 -104 9 -23 42 -18 60 10 19 30 50
41 69 25 21 -18 19 -26 -15 -57 -36 -31 -37 -40 -8 -70 32 -34 12 -51 -41 -33
-68 22 -96 -9 -45 -49 37 -29 85 -36 122 -17 42 21 56 50 48 98 -4 26 -1 48 9
69 13 24 14 37 5 63 -19 57 -64 81 -124 65z"/>
<path d="M4464 3744 c-39 -19 -58 -57 -44 -85 15 -26 36 -24 56 6 11 17 25 25
45 25 44 0 48 -26 10 -62 -41 -38 -39 -53 7 -77 40 -21 26 -33 -33 -26 -46 6
-56 5 -61 -9 -15 -38 62 -77 121 -62 57 14 83 76 51 122 -10 13 -11 25 -5 35
5 8 9 33 9 56 0 76 -79 115 -156 77z"/>
<path d="M5534 3647 c-9 -24 1 -33 51 -46 25 -6 45 -13 45 -16 0 -3 -18 -23
-40 -45 -43 -43 -53 -80 -22 -80 28 0 111 59 127 91 34 65 5 97 -94 106 -50 5
-62 3 -67 -10z"/>
<path d="M7254 3571 c-71 -32 -65 -81 7 -56 22 8 39 12 39 10 0 -3 -16 -25
-35 -51 -40 -53 -44 -86 -13 -108 29 -21 82 -20 99 0 11 14 9 20 -15 41 l-28
24 20 22 c43 48 54 94 26 121 -20 21 -50 20 -100 -3z"/>
<path d="M5800 3546 c0 -44 60 -64 68 -23 5 25 -16 47 -44 47 -19 0 -24 -5
-24 -24z"/>
<path d="M7040 3550 c-27 -27 -34 -60 -27 -137 7 -93 46 -143 82 -106 15 15
17 30 11 113 -3 52 -9 105 -12 117 -8 30 -31 36 -54 13z"/>
<path d="M7357 3202 c-34 -37 -15 -82 33 -82 14 0 31 5 38 12 7 7 12 24 12 38
0 49 -51 68 -83 32z"/>
<path d="M8075 3210 c-36 -15 -135 -146 -135 -180 0 -43 230 -280 273 -280 26
0 205 130 264 192 34 36 62 100 70 161 13 96 -102 146 -226 97 -49 -19 -50
-19 -105 0 -58 21 -107 24 -141 10z"/>
<path d="M7082 3158 c-27 -27 -5 -88 33 -88 28 0 55 24 55 49 0 39 -61 66 -88
39z"/>
<path d="M5507 2843 c-13 -27 -39 -91 -57 -143 l-33 -95 -71 -30 c-49 -21 -75
-38 -86 -58 -14 -26 -14 -29 5 -43 14 -11 33 -14 67 -10 l46 6 -14 -47 c-44
-146 -57 -368 -25 -438 23 -52 80 -101 133 -116 85 -22 208 29 208 87 0 34
-28 42 -104 31 -80 -12 -112 -4 -131 33 -28 55 -14 228 34 406 l22 81 52 13
c85 21 155 50 187 77 66 55 16 84 -103 58 -44 -9 -82 -14 -85 -11 -3 4 7 46
21 96 30 99 32 121 15 138 -27 27 -57 14 -81 -35z"/>
<path d="M4612 2858 c-12 -16 -37 -158 -53 -300 l-13 -108 -76 0 c-50 0 -83
-5 -96 -14 -17 -13 -17 -15 -2 -21 9 -4 53 -5 97 -3 68 2 81 1 81 -13 0 -32
-27 -47 -115 -64 -93 -18 -125 -29 -125 -45 0 -18 37 -20 120 -5 121 21 120
21 120 -21 0 -54 21 -124 40 -134 12 -6 23 -5 36 5 16 11 19 25 16 90 -1 42 2
83 6 92 5 8 38 27 73 42 102 42 88 76 -35 88 l-65 6 6 208 c3 115 4 209 1 209
-3 0 -10 -6 -16 -12z m78 -458 c-8 -5 -28 -10 -45 -10 -23 0 -27 3 -15 10 8 5
29 10 45 10 23 0 27 -3 15 -10z"/>
<path d="M3485 2817 c-47 -49 -71 -117 -62 -173 12 -73 96 -143 173 -144 85 0
177 131 159 227 -7 38 -55 97 -96 119 -15 7 -52 14 -80 14 -49 0 -55 -3 -94
-43z m108 -58 c21 -6 47 -19 58 -30 50 -50 -5 -159 -73 -145 -41 8 -64 30 -78
72 -10 30 -7 84 7 107 6 10 41 9 86 -4z"/>
<path d="M7436 2744 c-21 -7 -54 -24 -74 -36 l-35 -22 -15 22 c-8 12 -25 22
-38 22 -42 0 -51 -32 -58 -210 -4 -91 -13 -241 -21 -334 -18 -209 -11 -246 42
-246 33 0 50 44 61 159 5 51 12 94 14 96 3 3 28 9 56 15 79 15 130 46 209 126
179 184 177 344 -6 409 -53 18 -84 18 -135 -1z m129 -116 c58 -26 37 -102 -58
-204 -57 -61 -147 -120 -171 -111 -11 4 -13 29 -9 114 3 59 9 114 13 122 4 7
34 31 66 52 63 41 111 49 159 27z"/>
<path d="M9488 2746 c-21 -8 -49 -21 -63 -30 -24 -16 -30 -16 -75 -1 -46 15
-127 13 -117 -4 2 -3 10 -20 17 -37 9 -20 30 -39 65 -58 29 -15 65 -41 81 -57
27 -28 28 -31 11 -40 -9 -6 -52 -36 -95 -68 -174 -129 -220 -160 -291 -196
-74 -37 -74 -37 -99 -18 -38 29 -62 65 -72 109 -13 57 16 115 101 196 59 57
197 158 233 171 25 9 -9 21 -69 25 -88 6 -155 -27 -250 -123 -85 -85 -124
-158 -132 -247 -5 -57 -10 -68 -51 -113 -76 -85 -87 -146 -31 -176 29 -15 117
-6 194 20 l60 20 65 -22 c52 -18 88 -22 185 -22 111 0 124 2 177 28 135 66
238 253 210 382 -10 49 -10 49 33 100 40 47 65 91 65 116 0 5 -11 21 -25 34
-28 28 -69 32 -127 11z m62 -69 c0 -7 -14 -26 -30 -42 l-30 -29 -22 22 -22 21
45 20 c52 24 59 25 59 8z m-115 -274 c-10 -53 -30 -89 -83 -145 -57 -61 -118
-82 -207 -70 l-60 8 49 30 c27 16 63 39 80 51 17 13 56 39 86 59 30 21 72 52
93 71 20 18 40 33 43 33 3 0 3 -17 -1 -37z m-652 -250 c-42 -13 -93 -17 -93
-7 0 4 15 23 33 44 l32 37 33 -31 33 -31 -38 -12z"/>
<path d="M2678 2656 c-73 -59 -98 -106 -98 -187 0 -75 27 -138 72 -170 37 -27
104 -35 151 -20 48 16 112 82 133 137 15 39 15 52 5 100 -21 91 -94 171 -167
180 -35 5 -45 0 -96 -40z m98 -57 c54 -25 84 -72 84 -129 0 -34 -6 -48 -33
-75 -59 -59 -113 -56 -161 8 -24 33 -27 117 -7 180 11 32 17 37 44 37 17 0 50
-9 73 -21z"/>
<path d="M5920 2679 c-39 -16 -60 -40 -60 -71 0 -33 -7 -32 147 -32 112 -1
124 -3 144 -23 20 -20 21 -25 9 -53 -7 -17 -46 -61 -86 -97 -57 -52 -74 -72
-74 -93 0 -36 15 -47 78 -61 69 -14 97 -43 74 -74 -19 -26 -46 -37 -128 -51
-112 -20 -154 -37 -154 -63 0 -51 104 -66 241 -35 85 19 129 57 149 128 17 62
1 118 -46 161 l-34 31 26 25 c36 32 74 115 74 160 0 64 -62 132 -136 149 -51
12 -192 11 -224 -1z"/>
<path d="M6941 2645 c-19 -9 -71 -53 -117 -98 l-83 -83 -52 78 c-28 43 -60 83
-70 88 -28 16 -64 12 -91 -9 -24 -19 -24 -19 -36 0 -14 22 -64 26 -80 6 -6 -7
-30 -97 -52 -200 -39 -177 -41 -189 -26 -212 19 -28 57 -33 79 -10 9 8 23 38
32 67 19 58 75 169 104 207 11 15 24 22 34 18 8 -3 39 -52 67 -109 61 -121 66
-128 95 -128 28 0 44 19 85 105 49 101 152 197 181 168 6 -6 17 -88 25 -184 8
-96 17 -182 20 -192 9 -30 42 -41 70 -22 23 15 24 20 24 123 0 134 -15 270
-36 322 -30 75 -94 99 -173 65z"/>
<path d="M3330 2578 c0 -2 -9 -28 -19 -58 -18 -55 -18 -55 -59 -55 -29 0 -48
-7 -65 -23 -43 -41 -65 -25 -82 61 -7 33 -22 35 -36 3 -17 -36 -3 -88 32 -124
36 -37 56 -40 92 -12 21 17 34 19 80 14 50 -6 56 -4 87 23 27 24 33 38 37 80
6 61 -8 93 -42 93 -14 0 -25 -1 -25 -2z"/>
<path d="M7832 2053 c4 -22 121 -100 205 -137 67 -29 163 -46 163 -28 0 32
-125 108 -258 156 -87 31 -115 33 -110 9z"/>
<path d="M7760 1967 c0 -38 120 -111 256 -156 91 -31 182 -41 169 -21 -14 23
-373 190 -409 190 -9 0 -16 -6 -16 -13z"/>
<path d="M8520 1796 c0 -9 12 -21 27 -27 40 -15 350 -34 408 -24 l50 8 -30 12
c-37 16 -174 33 -333 42 -110 5 -122 4 -122 -11z"/>
<path d="M8191 1733 c-26 -32 -35 -65 -27 -98 10 -40 39 -49 110 -34 59 11 65
11 130 -15 71 -29 102 -29 130 0 9 8 16 24 16 35 0 16 -7 19 -54 19 -32 0 -74
9 -105 21 -49 21 -53 21 -94 5 -78 -30 -94 -18 -57 42 26 42 25 52 -4 52 -15
0 -33 -11 -45 -27z"/>
<path d="M8553 1694 c-14 -37 58 -59 233 -70 178 -11 238 12 123 47 -64 20
-209 39 -292 39 -44 0 -59 -4 -64 -16z"/>
<path d="M5550 1644 c-45 -20 -276 -80 -362 -94 -82 -14 -108 -30 -89 -54 11
-12 33 -16 102 -16 49 0 89 -4 89 -9 0 -5 -21 -17 -47 -26 -121 -43 -114 -32
-78 -120 l24 -60 69 3 69 4 -5 -32 c-3 -25 -16 -38 -61 -67 -61 -39 -71 -49
-71 -76 0 -32 31 -31 99 5 109 59 103 60 187 -22 77 -75 107 -86 112 -40 2 18
-6 34 -28 55 -34 32 -39 60 -12 73 9 5 55 13 102 17 91 7 120 17 120 40 0 27
-40 38 -122 32 l-78 -6 0 35 c0 29 5 38 32 52 61 33 71 49 66 107 -3 29 -12
65 -22 80 -17 25 -21 27 -79 21 l-62 -6 56 28 c70 34 89 49 89 73 0 24 -49 25
-100 3z m-120 -124 c0 -10 -32 -30 -49 -30 -20 0 -11 20 12 30 29 12 37 12 37
0z m165 -80 c0 -31 -31 -39 -40 -11 -8 26 2 43 23 39 11 -2 17 -13 17 -28z
m-116 -22 c11 -29 5 -35 -40 -43 -32 -6 -37 -4 -42 15 -4 17 1 24 26 35 43 19
46 19 56 -7z m-151 -49 c3 -16 -72 -62 -83 -51 -14 14 -2 43 23 56 33 19 56
16 60 -5z m170 -80 c4 -24 -21 -46 -60 -52 -35 -5 -38 -4 -38 17 0 28 15 42
50 49 34 6 45 3 48 -14z"/>
<path d="M3982 1635 c-12 -9 -41 -40 -65 -70 l-44 -54 -44 45 c-24 24 -51 47
-62 50 -26 8 -47 -13 -47 -48 0 -35 13 -61 52 -106 l29 -33 -30 -38 c-17 -21
-37 -44 -46 -51 -9 -8 -23 -27 -31 -43 -14 -25 -14 -31 1 -53 28 -43 62 -32
131 41 l61 65 57 -40 c71 -50 110 -70 134 -70 24 0 52 31 52 57 0 25 -37 73
-56 73 -21 0 -88 35 -104 54 -11 14 -7 25 28 75 50 70 65 107 57 138 -6 27
-40 31 -73 8z"/>
<path d="M7624 1512 c-6 -4 -26 -41 -46 -82 -19 -41 -51 -96 -71 -122 -21 -27
-32 -50 -26 -53 18 -12 100 46 135 96 20 27 37 49 39 49 2 0 13 -21 25 -46 28
-64 25 -105 -10 -167 -36 -65 -37 -82 -6 -102 40 -27 77 0 120 86 41 81 44
116 16 176 -34 76 -149 183 -176 165z"/>
<path d="M6984 1416 c-84 -37 -143 -129 -129 -203 13 -75 90 -173 135 -173 28
0 50 11 50 24 0 7 -16 28 -36 47 -47 45 -64 79 -64 128 0 38 36 131 50 131 4
0 12 -17 19 -37 14 -46 32 -69 95 -116 53 -41 86 -48 86 -18 0 10 -29 57 -64
105 -36 47 -68 95 -71 106 -7 23 -27 25 -71 6z"/>
<path d="M5681 1140 c-7 -4 -11 -18 -9 -31 6 -46 217 -133 238 -99 15 25 -3
43 -89 82 -117 54 -126 57 -140 48z"/>
<path d="M5370 1064 c-17 -43 -12 -112 9 -133 38 -38 250 -68 279 -39 20 20
14 47 -10 52 -13 3 -54 8 -93 11 -99 10 -115 18 -115 57 0 57 -10 78 -36 78
-17 0 -28 -8 -34 -26z"/>
<path d="M5277 1053 c-2 -5 -8 -26 -11 -48 -4 -22 -19 -66 -33 -98 -24 -52
-25 -60 -11 -74 24 -23 52 -2 83 60 32 66 41 117 26 146 -11 20 -45 29 -54 14z"/>
</g>
</svg>
