<?xml version="1.0" standalone="no"?>
<!DOCTYPE svg PUBLIC "-//W3C//DTD SVG 20010904//EN"
 "http://www.w3.org/TR/2001/REC-SVG-20010904/DTD/svg10.dtd">
<svg version="1.0" xmlns="http://www.w3.org/2000/svg"
 width="1200.000000pt" height="480.000000pt" viewBox="0 0 1200.000000 480.000000"
 preserveAspectRatio="xMidYMid meet">

<g transform="translate(0.000000,480.000000) scale(0.100000,-0.100000)"
fill="#000000" stroke="none">
<path d="M5507 2843 c-13 -27 -39 -91 -57 -143 l-33 -95 -71 -30 c-49 -21 -75
-38 -86 -58 -14 -26 -14 -29 5 -43 14 -11 33 -14 67 -10 l46 6 -14 -47 c-44
-146 -57 -368 -25 -438 23 -52 80 -101 133 -116 85 -22 208 29 208 87 0 34
-28 42 -104 31 -80 -12 -112 -4 -131 33 -28 55 -14 228 34 406 l22 81 52 13
c85 21 155 50 187 77 66 55 16 84 -103 58 -44 -9 -82 -14 -85 -11 -3 4 7 46
21 96 30 99 32 121 15 138 -27 27 -57 14 -81 -35z"/>
<path d="M7436 2744 c-21 -7 -54 -24 -74 -36 l-35 -22 -15 22 c-8 12 -25 22
-38 22 -42 0 -51 -32 -58 -210 -4 -91 -13 -241 -21 -334 -18 -209 -11 -246 42
-246 33 0 50 44 61 159 5 51 12 94 14 96 3 3 28 9 56 15 79 15 130 46 209 126
179 184 177 344 -6 409 -53 18 -84 18 -135 -1z m129 -116 c58 -26 37 -102 -58
-204 -57 -61 -147 -120 -171 -111 -11 4 -13 29 -9 114 3 59 9 114 13 122 4 7
34 31 66 52 63 41 111 49 159 27z"/>
<path d="M5920 2679 c-39 -16 -60 -40 -60 -71 0 -33 -7 -32 147 -32 112 -1
124 -3 144 -23 20 -20 21 -25 9 -53 -7 -17 -46 -61 -86 -97 -57 -52 -74 -72
-74 -93 0 -36 15 -47 78 -61 69 -14 97 -43 74 -74 -19 -26 -46 -37 -128 -51
-112 -20 -154 -37 -154 -63 0 -51 104 -66 241 -35 85 19 129 57 149 128 17 62
1 118 -46 161 l-34 31 26 25 c36 32 74 115 74 160 0 64 -62 132 -136 149 -51
12 -192 11 -224 -1z"/>
<path d="M6941 2645 c-19 -9 -71 -53 -117 -98 l-83 -83 -52 78 c-28 43 -60 83
-70 88 -28 16 -64 12 -91 -9 -24 -19 -24 -19 -36 0 -14 22 -64 26 -80 6 -6 -7
-30 -97 -52 -200 -39 -177 -41 -189 -26 -212 19 -28 57 -33 79 -10 9 8 23 38
32 67 19 58 75 169 104 207 11 15 24 22 34 18 8 -3 39 -52 67 -109 61 -121 66
-128 95 -128 28 0 44 19 85 105 49 101 152 197 181 168 6 -6 17 -88 25 -184 8
-96 17 -182 20 -192 9 -30 42 -41 70 -22 23 15 24 20 24 123 0 134 -15 270
-36 322 -30 75 -94 99 -173 65z"/>
</g>
</svg>
