<?xml version="1.0" standalone="no"?>
<!DOCTYPE svg PUBLIC "-//W3C//DTD SVG 20010904//EN"
 "http://www.w3.org/TR/2001/REC-SVG-20010904/DTD/svg10.dtd">
<svg version="1.0" xmlns="http://www.w3.org/2000/svg"
 width="1200.000000pt" height="480.000000pt" viewBox="0 0 1200.000000 480.000000"
 preserveAspectRatio="xMidYMid meet">

<g transform="translate(0.000000,480.000000) scale(0.100000,-0.100000)"
fill="#000000" stroke="none">
<path d="M5537 2848 c-32 -42 -65 -109 -87 -173 -16 -49 -18 -50 -62 -55 -54
-7 -78 -24 -78 -56 0 -24 42 -54 75 -54 19 0 19 -1 -5 -85 -46 -159 -35 -285
34 -362 44 -52 97 -73 182 -73 132 0 211 51 159 104 -12 12 -33 14 -105 9 -62
-4 -98 -2 -120 7 -75 31 -85 145 -29 333 22 75 27 79 122 97 62 12 97 37 97
70 0 28 -30 40 -100 40 -54 0 -61 2 -56 18 29 95 35 212 12 212 -8 0 -26 -15
-39 -32z"/>
<path d="M7295 2717 c-73 -35 -81 -46 -94 -134 -47 -324 -81 -574 -81 -596 0
-32 24 -57 54 -57 35 0 44 17 61 121 9 52 17 103 20 114 4 17 12 20 67 20 51
0 77 7 138 36 202 96 282 305 167 435 -48 56 -100 77 -197 81 -74 4 -92 1
-135 -20z m212 -109 c54 -25 73 -74 54 -139 -14 -46 -81 -117 -134 -143 -37
-17 -140 -46 -146 -40 -5 5 30 297 40 321 14 37 108 37 186 1z"/>
<path d="M6923 2695 c-39 -19 -94 -56 -122 -81 l-50 -45 -40 42 c-38 39 -43
41 -81 36 -22 -3 -57 -17 -76 -32 -19 -15 -36 -25 -37 -24 -1 2 -9 18 -17 34
-12 23 -23 30 -45 30 -26 0 -32 -5 -42 -37 -14 -43 -39 -225 -49 -354 -6 -87
-6 -89 20 -114 25 -23 29 -24 54 -10 29 17 35 36 50 147 12 83 41 148 94 205
47 51 55 45 69 -48 6 -38 12 -84 15 -102 6 -41 41 -61 78 -44 18 8 27 24 35
63 24 109 82 179 200 239 43 21 45 21 58 4 17 -23 16 -39 -3 -202 -16 -132
-16 -134 4 -154 30 -30 69 -17 90 30 14 30 17 70 17 209 l0 173 -31 31 c-49
49 -101 50 -191 4z"/>
<path d="M5973 2645 c-17 -7 -39 -26 -49 -40 -17 -26 -17 -28 1 -41 10 -8 30
-14 45 -14 18 0 42 -16 78 -53 29 -29 52 -57 52 -63 0 -6 -18 -27 -40 -47 -22
-19 -40 -42 -40 -50 0 -31 35 -57 90 -67 68 -13 79 -23 54 -51 -33 -37 -69
-48 -210 -69 -75 -11 -143 -25 -150 -31 -23 -19 -17 -57 12 -76 23 -15 37 -15
132 -5 153 16 234 43 287 96 69 70 73 145 9 207 -30 29 -34 38 -29 67 4 21 -1
47 -14 77 -23 52 -110 142 -158 161 -38 16 -30 17 -70 -1z"/>
</g>
</svg>
