<?xml version="1.0" standalone="no"?>
<!DOCTYPE svg PUBLIC "-//W3C//DTD SVG 20010904//EN"
 "http://www.w3.org/TR/2001/REC-SVG-20010904/DTD/svg10.dtd">
<svg version="1.0" xmlns="http://www.w3.org/2000/svg"
 width="1200.000000pt" height="480.000000pt" viewBox="0 0 1200.000000 480.000000"
 preserveAspectRatio="xMidYMid meet">

<g transform="translate(0.000000,480.000000) scale(0.100000,-0.100000)"
fill="#000000" stroke="none">
<path d="M8925 3802 c-136 -47 -219 -175 -194 -294 6 -28 8 -73 5 -100 l-7
-50 58 7 c42 4 68 2 95 -9 95 -40 238 -7 319 74 74 74 87 165 39 265 -11 23
-20 55 -20 72 0 34 18 30 -190 48 -38 4 -70 0 -105 -13z m92 -39 c24 -10 43
-21 43 -25 0 -7 -60 -65 -165 -157 -65 -57 -71 -60 -79 -42 -15 34 21 107 86
177 33 35 63 64 67 64 3 0 25 -8 48 -17z m183 -149 c16 -49 4 -90 -41 -135
-46 -46 -130 -75 -192 -65 -22 4 -45 10 -50 13 -6 3 46 61 114 128 112 110
126 120 141 107 10 -8 22 -30 28 -48z"/>
<path d="M5995 3772 c-58 -42 -68 -57 -60 -92 14 -62 122 -112 205 -94 24 5
45 14 47 20 2 7 -31 26 -74 44 -43 18 -82 36 -87 41 -5 4 5 23 23 44 54 62 15
88 -54 37z"/>
<path d="M5534 3647 c-9 -24 1 -33 51 -46 25 -6 45 -13 45 -16 0 -3 -18 -23
-40 -45 -43 -43 -53 -80 -22 -80 28 0 111 59 127 91 34 65 5 97 -94 106 -50 5
-62 3 -67 -10z"/>
<path d="M5800 3546 c0 -44 60 -64 68 -23 5 25 -16 47 -44 47 -19 0 -24 -5
-24 -24z"/>
<path d="M8075 3210 c-36 -15 -135 -146 -135 -180 0 -43 230 -280 273 -280 26
0 205 130 264 192 34 36 62 100 70 161 13 96 -102 146 -226 97 -49 -19 -50
-19 -105 0 -58 21 -107 24 -141 10z"/>
<path d="M3485 2817 c-47 -49 -71 -117 -62 -173 12 -73 96 -143 173 -144 85 0
177 131 159 227 -7 38 -55 97 -96 119 -15 7 -52 14 -80 14 -49 0 -55 -3 -94
-43z m108 -58 c21 -6 47 -19 58 -30 50 -50 -5 -159 -73 -145 -41 8 -64 30 -78
72 -10 30 -7 84 7 107 6 10 41 9 86 -4z"/>
<path d="M9488 2746 c-21 -8 -49 -21 -63 -30 -24 -16 -30 -16 -75 -1 -46 15
-127 13 -117 -4 2 -3 10 -20 17 -37 9 -20 30 -39 65 -58 29 -15 65 -41 81 -57
27 -28 28 -31 11 -40 -9 -6 -52 -36 -95 -68 -174 -129 -220 -160 -291 -196
-74 -37 -74 -37 -99 -18 -38 29 -62 65 -72 109 -13 57 16 115 101 196 59 57
197 158 233 171 25 9 -9 21 -69 25 -88 6 -155 -27 -250 -123 -85 -85 -124
-158 -132 -247 -5 -57 -10 -68 -51 -113 -76 -85 -87 -146 -31 -176 29 -15 117
-6 194 20 l60 20 65 -22 c52 -18 88 -22 185 -22 111 0 124 2 177 28 135 66
238 253 210 382 -10 49 -10 49 33 100 40 47 65 91 65 116 0 5 -11 21 -25 34
-28 28 -69 32 -127 11z m62 -69 c0 -7 -14 -26 -30 -42 l-30 -29 -22 22 -22 21
45 20 c52 24 59 25 59 8z m-115 -274 c-10 -53 -30 -89 -83 -145 -57 -61 -118
-82 -207 -70 l-60 8 49 30 c27 16 63 39 80 51 17 13 56 39 86 59 30 21 72 52
93 71 20 18 40 33 43 33 3 0 3 -17 -1 -37z m-652 -250 c-42 -13 -93 -17 -93
-7 0 4 15 23 33 44 l32 37 33 -31 33 -31 -38 -12z"/>
<path d="M2678 2656 c-73 -59 -98 -106 -98 -187 0 -75 27 -138 72 -170 37 -27
104 -35 151 -20 48 16 112 82 133 137 15 39 15 52 5 100 -21 91 -94 171 -167
180 -35 5 -45 0 -96 -40z m98 -57 c54 -25 84 -72 84 -129 0 -34 -6 -48 -33
-75 -59 -59 -113 -56 -161 8 -24 33 -27 117 -7 180 11 32 17 37 44 37 17 0 50
-9 73 -21z"/>
<path d="M3330 2578 c0 -2 -9 -28 -19 -58 -18 -55 -18 -55 -59 -55 -29 0 -48
-7 -65 -23 -43 -41 -65 -25 -82 61 -7 33 -22 35 -36 3 -17 -36 -3 -88 32 -124
36 -37 56 -40 92 -12 21 17 34 19 80 14 50 -6 56 -4 87 23 27 24 33 38 37 80
6 61 -8 93 -42 93 -14 0 -25 -1 -25 -2z"/>
<path d="M3982 1635 c-12 -9 -41 -40 -65 -70 l-44 -54 -44 45 c-24 24 -51 47
-62 50 -26 8 -47 -13 -47 -48 0 -35 13 -61 52 -106 l29 -33 -30 -38 c-17 -21
-37 -44 -46 -51 -9 -8 -23 -27 -31 -43 -14 -25 -14 -31 1 -53 28 -43 62 -32
131 41 l61 65 57 -40 c71 -50 110 -70 134 -70 24 0 52 31 52 57 0 25 -37 73
-56 73 -21 0 -88 35 -104 54 -11 14 -7 25 28 75 50 70 65 107 57 138 -6 27
-40 31 -73 8z"/>
<path d="M7624 1512 c-6 -4 -26 -41 -46 -82 -19 -41 -51 -96 -71 -122 -21 -27
-32 -50 -26 -53 18 -12 100 46 135 96 20 27 37 49 39 49 2 0 13 -21 25 -46 28
-64 25 -105 -10 -167 -36 -65 -37 -82 -6 -102 40 -27 77 0 120 86 41 81 44
116 16 176 -34 76 -149 183 -176 165z"/>
<path d="M6984 1416 c-84 -37 -143 -129 -129 -203 13 -75 90 -173 135 -173 28
0 50 11 50 24 0 7 -16 28 -36 47 -47 45 -64 79 -64 128 0 38 36 131 50 131 4
0 12 -17 19 -37 14 -46 32 -69 95 -116 53 -41 86 -48 86 -18 0 10 -29 57 -64
105 -36 47 -68 95 -71 106 -7 23 -27 25 -71 6z"/>
</g>
</svg>
