<?xml version="1.0" standalone="no"?>
<!DOCTYPE svg PUBLIC "-//W3C//DTD SVG 20010904//EN"
 "http://www.w3.org/TR/2001/REC-SVG-20010904/DTD/svg10.dtd">
<svg version="1.0" xmlns="http://www.w3.org/2000/svg"
 width="1200.000000pt" height="480.000000pt" viewBox="0 0 1200.000000 480.000000"
 preserveAspectRatio="xMidYMid meet">

<g transform="translate(0.000000,480.000000) scale(0.100000,-0.100000)"
fill="#000000" stroke="none">
<path d="M8978 3897 c-136 -39 -238 -185 -208 -298 7 -26 9 -65 5 -97 l-7 -55
59 7 c43 5 69 2 96 -9 84 -35 221 -9 301 57 46 38 86 118 86 173 0 22 -11 64
-25 93 -14 30 -25 69 -25 87 l0 33 -62 5 c-35 4 -88 9 -118 11 -32 4 -75 0
-102 -7z m79 -44 c24 -10 43 -21 43 -25 0 -7 -60 -65 -165 -157 -65 -57 -71
-60 -79 -42 -15 34 21 107 86 177 33 35 63 64 67 64 3 0 25 -8 48 -17z m184
-163 c10 -34 9 -43 -12 -81 -15 -27 -42 -54 -73 -73 -41 -26 -57 -30 -116 -30
-37 1 -73 5 -80 9 -9 6 23 44 111 130 121 119 124 122 141 103 10 -11 23 -37
29 -58z"/>
<path d="M5924 3792 c-57 -42 -67 -57 -59 -91 10 -49 73 -88 153 -97 47 -6
102 8 102 24 0 8 -53 35 -134 67 -37 15 -38 16 -22 37 9 13 23 33 32 45 34 48
-13 58 -72 15z"/>
<path d="M5464 3667 c-9 -24 1 -33 51 -47 25 -7 45 -14 45 -15 0 -2 -18 -21
-40 -43 -41 -40 -53 -82 -25 -82 28 0 70 28 108 69 66 73 41 118 -72 128 -50
5 -62 3 -67 -10z"/>
<path d="M5727 3576 c-8 -20 21 -56 44 -56 25 0 34 22 19 49 -12 24 -55 28
-63 7z"/>
<path d="M8115 3300 c-36 -15 -135 -146 -135 -180 0 -39 229 -280 266 -280 11
0 35 10 54 21 49 30 190 141 222 175 31 34 58 101 65 160 4 36 0 47 -25 75
-25 28 -36 33 -88 36 -41 3 -76 -2 -114 -15 -53 -18 -57 -18 -105 -1 -53 19
-107 23 -140 9z"/>
<path d="M9508 2856 c-21 -8 -49 -21 -63 -30 -24 -16 -30 -16 -75 -1 -46 15
-127 13 -117 -4 2 -3 10 -20 17 -37 9 -20 30 -39 65 -58 29 -15 65 -41 81 -57
27 -28 28 -31 11 -40 -9 -6 -52 -36 -95 -68 -174 -129 -220 -160 -291 -196
-74 -37 -74 -37 -99 -18 -38 29 -62 65 -72 109 -13 57 16 115 101 196 59 57
197 158 233 171 25 9 -9 21 -69 25 -88 6 -155 -27 -250 -123 -85 -85 -124
-158 -132 -247 -5 -57 -10 -68 -51 -113 -76 -85 -87 -146 -31 -176 29 -15 117
-6 194 20 l60 20 65 -22 c52 -18 88 -22 185 -22 111 0 124 2 177 28 135 66
238 253 210 382 -10 49 -10 49 33 100 40 47 65 91 65 116 0 5 -11 21 -25 34
-28 28 -69 32 -127 11z m62 -69 c0 -7 -14 -26 -30 -42 l-30 -29 -22 22 -22 21
45 20 c52 24 59 25 59 8z m-115 -274 c-10 -53 -30 -89 -83 -145 -57 -61 -118
-82 -207 -70 l-60 8 49 30 c27 16 63 39 80 51 17 13 56 39 86 59 30 21 72 52
93 71 20 18 40 33 43 33 3 0 3 -17 -1 -37z m-652 -250 c-42 -13 -93 -17 -93
-7 0 4 15 23 33 44 l32 37 33 -31 33 -31 -38 -12z"/>
<path d="M3445 2777 c-47 -49 -71 -117 -62 -173 12 -73 96 -143 173 -144 61 0
133 70 155 152 29 110 -54 208 -176 208 -44 0 -52 -4 -90 -43z m118 -61 c49
-20 67 -43 67 -85 0 -56 -39 -95 -87 -88 -44 8 -69 29 -83 73 -10 30 -7 84 7
107 7 12 61 8 96 -7z"/>
<path d="M2637 2615 c-72 -57 -97 -106 -97 -190 0 -110 55 -182 145 -192 23
-3 59 0 78 6 48 16 112 82 133 137 15 39 15 52 5 100 -21 91 -94 171 -167 180
-35 5 -45 0 -97 -41z m103 -57 c33 -17 52 -36 69 -69 30 -55 24 -88 -23 -135
-58 -58 -112 -55 -160 9 -24 33 -27 117 -7 180 11 32 16 37 45 37 17 0 52 -10
76 -22z"/>
<path d="M3290 2538 c0 -2 -9 -28 -19 -58 -18 -55 -18 -55 -59 -55 -29 0 -48
-7 -65 -23 -43 -41 -65 -25 -82 61 -7 33 -22 35 -36 3 -17 -36 -3 -88 32 -124
36 -37 56 -40 92 -12 21 17 34 19 80 14 50 -6 56 -4 87 23 27 24 33 38 37 80
6 61 -8 93 -42 93 -14 0 -25 -1 -25 -2z"/>
<path d="M4005 1579 c-15 -12 -44 -43 -65 -70 l-37 -47 -44 44 c-24 24 -51 47
-62 50 -26 8 -47 -13 -47 -48 0 -35 13 -61 52 -106 l29 -33 -30 -38 c-17 -21
-37 -44 -46 -51 -9 -8 -23 -27 -31 -43 -14 -25 -14 -31 1 -53 28 -43 62 -32
131 41 l61 65 57 -40 c71 -50 110 -70 134 -70 24 0 52 31 52 57 0 27 -37 73
-58 73 -29 0 -123 60 -115 73 3 7 24 35 44 62 45 60 62 101 54 132 -7 30 -43
30 -80 2z"/>
<path d="M7573 1572 c-6 -4 -23 -36 -37 -71 -14 -35 -44 -88 -66 -117 -61 -81
-54 -94 24 -43 25 17 60 51 77 75 16 24 32 44 34 44 11 0 45 -97 45 -126 0
-20 -13 -57 -30 -87 -36 -65 -37 -82 -6 -102 40 -27 77 0 120 86 41 81 44 116
16 176 -34 77 -148 183 -177 165z"/>
<path d="M6935 1476 c-74 -32 -134 -113 -135 -181 0 -16 11 -52 24 -80 37 -79
98 -125 146 -110 26 8 25 27 -1 51 -50 44 -79 96 -79 140 0 41 36 134 51 134
4 0 11 -14 14 -32 8 -35 84 -122 127 -144 72 -37 77 1 10 88 -27 35 -61 82
-75 106 -29 45 -37 48 -82 28z"/>
</g>
</svg>
