<?xml version="1.0" standalone="no"?>
<!DOCTYPE svg PUBLIC "-//W3C//DTD SVG 20010904//EN"
 "http://www.w3.org/TR/2001/REC-SVG-20010904/DTD/svg10.dtd">
<svg version="1.0" xmlns="http://www.w3.org/2000/svg"
 width="1200.000000pt" height="480.000000pt" viewBox="0 0 1200.000000 480.000000"
 preserveAspectRatio="xMidYMid meet">

<g transform="translate(0.000000,480.000000) scale(0.100000,-0.100000)"
fill="#000000" stroke="none">
<path d="M8935 3863 c-136 -49 -219 -176 -194 -295 6 -28 8 -73 5 -100 l-7
-50 58 7 c42 4 68 2 95 -9 79 -34 212 -12 290 47 53 39 98 124 98 181 0 23
-11 65 -25 94 -14 30 -25 69 -25 87 l0 33 -62 6 c-180 17 -183 17 -233 -1z
m98 -44 c20 -7 37 -16 37 -20 0 -8 -58 -64 -165 -158 -65 -57 -71 -60 -79 -42
-15 34 19 103 86 176 33 36 66 64 72 62 6 -2 28 -10 49 -18z m177 -145 c16
-49 4 -90 -41 -135 -46 -46 -130 -75 -192 -65 -22 4 -45 10 -50 13 -6 3 45 61
114 128 112 109 126 119 141 107 10 -8 22 -30 28 -48z"/>
<path d="M6004 3804 c-17 -8 -44 -28 -59 -44 -22 -23 -26 -34 -20 -58 16 -77
153 -126 240 -88 l30 14 -60 26 c-125 54 -129 58 -89 105 26 31 27 61 2 61 -7
0 -27 -7 -44 -16z"/>
<path d="M5524 3667 c-9 -24 1 -33 51 -46 25 -6 45 -13 45 -16 0 -3 -18 -23
-40 -45 -41 -41 -53 -80 -25 -80 28 0 70 28 108 69 66 73 41 118 -72 128 -50
5 -62 3 -67 -10z"/>
<path d="M5787 3576 c-8 -20 21 -56 44 -56 25 0 34 22 19 49 -12 24 -55 28
-63 7z"/>
<path d="M8085 3270 c-36 -15 -135 -146 -135 -180 0 -39 229 -280 266 -280 11
0 35 10 54 21 49 30 190 141 222 175 32 35 68 123 68 167 0 92 -101 131 -225
88 -54 -19 -56 -19 -110 0 -57 20 -106 23 -140 9z"/>
<path d="M3475 2807 c-96 -101 -80 -239 35 -297 74 -38 146 -16 197 59 54 80
54 156 0 218 -39 44 -82 63 -143 63 -43 0 -51 -4 -89 -43z m118 -61 c49 -20
67 -43 67 -85 0 -56 -39 -95 -87 -88 -44 8 -69 29 -83 73 -10 30 -7 84 7 107
7 12 61 8 96 -7z"/>
<path d="M9478 2826 c-21 -8 -49 -21 -63 -30 -24 -16 -30 -16 -75 -1 -46 15
-127 13 -117 -4 2 -3 10 -20 17 -37 9 -20 30 -39 65 -58 29 -15 65 -41 81 -57
27 -28 28 -31 11 -40 -9 -6 -52 -36 -95 -68 -174 -129 -220 -160 -291 -196
-74 -37 -74 -37 -99 -18 -38 29 -62 65 -72 109 -13 57 16 115 101 196 59 57
197 158 233 171 25 9 -9 21 -69 25 -88 6 -155 -27 -250 -123 -85 -85 -124
-158 -132 -247 -5 -57 -10 -68 -51 -113 -76 -85 -87 -146 -31 -176 29 -15 117
-6 194 20 l60 20 65 -22 c52 -18 88 -22 185 -22 111 0 124 2 177 28 135 66
238 253 210 382 -10 49 -10 49 33 100 40 47 65 91 65 116 0 5 -11 21 -25 34
-28 28 -69 32 -127 11z m62 -69 c0 -7 -14 -26 -30 -42 l-30 -29 -22 22 -22 21
45 20 c52 24 59 25 59 8z m-115 -274 c-10 -53 -30 -89 -83 -145 -57 -61 -118
-82 -207 -70 l-60 8 49 30 c27 16 63 39 80 51 17 13 56 39 86 59 30 21 72 52
93 71 20 18 40 33 43 33 3 0 3 -17 -1 -37z m-652 -250 c-42 -13 -93 -17 -93
-7 0 4 15 23 33 44 l32 37 33 -31 33 -31 -38 -12z"/>
<path d="M2668 2645 c-62 -48 -82 -79 -97 -146 -30 -134 77 -258 202 -235 75
14 167 122 167 196 0 76 -71 189 -137 216 -52 22 -74 17 -135 -31z m123 -65
c63 -45 79 -135 34 -189 -54 -63 -138 -62 -172 3 -20 37 -22 125 -3 180 l12
39 50 -6 c27 -4 62 -16 79 -27z"/>
<path d="M3320 2568 c0 -2 -9 -28 -19 -58 -18 -55 -18 -55 -59 -55 -28 0 -48
-7 -64 -22 -43 -41 -64 -25 -84 60 -8 33 -21 35 -35 3 -16 -35 -3 -90 30 -125
34 -36 58 -39 94 -11 21 17 34 19 80 14 50 -6 56 -4 87 23 27 24 33 38 37 80
6 61 -8 93 -42 93 -14 0 -25 -1 -25 -2z"/>
<path d="M4005 1599 c-15 -12 -44 -43 -65 -70 l-37 -47 -44 44 c-24 24 -51 47
-62 50 -26 8 -47 -13 -47 -48 0 -35 13 -61 52 -106 l29 -33 -30 -38 c-17 -21
-37 -44 -46 -51 -9 -8 -23 -27 -31 -43 -14 -25 -14 -31 1 -53 28 -43 62 -32
131 41 l61 65 57 -40 c71 -50 110 -70 134 -70 24 0 52 31 52 57 0 30 -38 73
-64 73 -25 0 -106 54 -106 70 0 6 18 34 39 63 47 62 64 103 56 134 -7 30 -43
30 -80 2z"/>
<path d="M7604 1582 c-6 -4 -26 -41 -46 -82 -19 -41 -51 -96 -71 -122 -21 -27
-32 -50 -26 -53 18 -12 100 46 135 96 20 27 37 49 39 49 10 0 45 -96 45 -124
0 -17 -14 -59 -32 -93 -26 -49 -31 -66 -22 -80 36 -58 83 -35 137 67 41 79 44
106 22 171 -25 69 -153 190 -181 171z"/>
<path d="M6964 1486 c-84 -37 -143 -129 -129 -203 17 -90 80 -165 142 -167 53
-1 53 21 -1 75 -68 70 -75 118 -30 212 22 45 30 47 39 6 8 -36 54 -91 109
-131 74 -53 102 -25 46 48 -17 21 -51 69 -76 107 -25 37 -50 67 -57 67 -7 -1
-26 -7 -43 -14z"/>
</g>
</svg>
