<?xml version="1.0" standalone="no"?>
<!DOCTYPE svg PUBLIC "-//W3C//DTD SVG 20010904//EN"
 "http://www.w3.org/TR/2001/REC-SVG-20010904/DTD/svg10.dtd">
<svg version="1.0" xmlns="http://www.w3.org/2000/svg"
 width="1200.000000pt" height="480.000000pt" viewBox="0 0 1200.000000 480.000000"
 preserveAspectRatio="xMidYMid meet">

<g transform="translate(0.000000,480.000000) scale(0.100000,-0.100000)"
fill="#000000" stroke="none">
<path d="M5538 2890 c-18 -11 -47 -95 -68 -195 -7 -33 -16 -65 -21 -71 -5 -6
-32 -14 -60 -17 -64 -8 -99 -30 -99 -61 0 -33 23 -48 78 -54 l48 -4 -18 -82
c-23 -105 -24 -256 -1 -325 28 -88 109 -151 195 -151 38 0 143 57 177 96 32
36 39 72 19 92 -20 20 -53 14 -95 -17 -59 -43 -102 -63 -122 -56 -9 3 -30 19
-46 35 -28 29 -29 36 -32 128 -3 73 2 122 20 201 l23 104 46 12 c57 14 78 30
78 60 0 27 -15 41 -53 50 -33 9 -33 15 -5 133 16 69 19 98 12 110 -13 20 -52
26 -76 12z"/>
<path d="M7390 2724 c-49 -19 -69 -23 -82 -15 -25 15 -53 14 -67 -3 -7 -8 -14
-47 -17 -88 -6 -96 -42 -270 -104 -498 -45 -169 -48 -186 -34 -207 22 -34 60
-30 83 8 11 17 34 85 52 150 l34 118 127 41 c186 61 230 99 265 233 15 57 16
74 4 129 -16 81 -38 119 -81 140 -48 24 -103 22 -180 -8z m134 -100 c20 -20
22 -131 2 -178 -20 -49 -98 -95 -198 -120 -26 -6 -28 -4 -28 23 0 35 27 177
40 208 12 28 108 79 157 82 6 1 19 -6 27 -15z"/>
<path d="M5965 2681 c-127 -46 -174 -86 -156 -135 14 -34 48 -34 121 0 131 63
199 45 200 -53 0 -59 -6 -70 -65 -108 -57 -36 -72 -62 -55 -95 12 -23 38 -30
95 -27 37 2 40 0 43 -26 7 -56 -57 -87 -175 -87 -68 0 -103 -19 -103 -55 0
-52 80 -74 186 -51 82 17 139 43 173 80 36 39 41 128 11 191 -22 45 -22 47 -5
101 35 112 -15 226 -117 269 -47 19 -90 18 -153 -4z"/>
<path d="M6916 2648 c-17 -18 -41 -46 -53 -62 l-20 -30 -44 37 c-73 63 -133
67 -204 12 -41 -30 -45 -31 -45 -4 0 37 -19 59 -50 59 -43 0 -58 -31 -71 -150
-6 -57 -22 -140 -35 -184 -37 -124 -31 -156 33 -156 38 0 41 5 84 127 32 91
84 171 138 211 40 29 54 28 85 -9 22 -26 26 -40 26 -94 0 -70 14 -95 54 -95
30 0 46 19 96 119 23 47 45 80 50 75 5 -5 12 -62 16 -127 8 -136 21 -165 68
-153 39 10 49 45 43 157 -8 137 -33 236 -67 271 -37 37 -65 35 -104 -4z"/>
</g>
</svg>
