<?xml version="1.0" standalone="no"?>
<!DOCTYPE svg PUBLIC "-//W3C//DTD SVG 20010904//EN"
 "http://www.w3.org/TR/2001/REC-SVG-20010904/DTD/svg10.dtd">
<svg version="1.0" xmlns="http://www.w3.org/2000/svg"
 width="1200.000000pt" height="480.000000pt" viewBox="0 0 1200.000000 480.000000"
 preserveAspectRatio="xMidYMid meet">

<g transform="translate(0.000000,480.000000) scale(0.100000,-0.100000)"
fill="#000000" stroke="none">
<path d="M8935 3863 c-136 -49 -219 -176 -194 -295 6 -28 8 -73 5 -100 l-7
-50 58 7 c42 4 68 2 95 -9 79 -34 212 -12 290 47 53 39 98 124 98 181 0 23
-11 65 -25 94 -14 30 -25 69 -25 87 l0 33 -62 6 c-180 17 -183 17 -233 -1z
m98 -44 c20 -7 37 -16 37 -20 0 -8 -58 -64 -165 -158 -65 -57 -71 -60 -79 -42
-15 34 19 103 86 176 33 36 66 64 72 62 6 -2 28 -10 49 -18z m177 -145 c16
-49 4 -90 -41 -135 -46 -46 -130 -75 -192 -65 -22 4 -45 10 -50 13 -6 3 45 61
114 128 112 109 126 119 141 107 10 -8 22 -30 28 -48z"/>
<path d="M6004 3804 c-17 -8 -44 -28 -59 -44 -22 -23 -26 -34 -20 -58 16 -77
153 -126 240 -88 l30 14 -60 26 c-125 54 -129 58 -89 105 26 31 27 61 2 61 -7
0 -27 -7 -44 -16z"/>
<path d="M3877 3764 c-33 -18 -49 -52 -35 -76 12 -24 31 -23 53 2 18 20 69 27
79 11 6 -10 -20 -35 -46 -44 -28 -10 -23 -55 7 -69 39 -18 31 -38 -14 -38 -22
0 -43 5 -46 10 -8 13 -42 13 -50 -1 -13 -21 5 -57 35 -69 33 -14 106 -8 141
10 31 17 42 57 24 92 -13 27 -13 33 0 51 16 22 19 64 9 92 -16 41 -105 57
-157 29z"/>
<path d="M4196 3769 c-51 -14 -93 -69 -80 -104 9 -23 42 -18 60 10 19 30 50
41 69 25 21 -18 19 -26 -15 -57 -36 -31 -37 -40 -8 -70 32 -34 12 -51 -41 -33
-68 22 -96 -9 -45 -49 37 -29 85 -36 122 -17 42 21 56 50 48 98 -4 26 -1 48 9
69 13 24 14 37 5 63 -19 57 -64 81 -124 65z"/>
<path d="M4444 3764 c-39 -19 -58 -57 -44 -85 15 -26 36 -24 56 6 11 17 25 25
45 25 44 0 48 -26 10 -62 -41 -38 -39 -53 7 -77 40 -21 26 -33 -33 -26 -46 6
-56 5 -61 -9 -15 -38 62 -77 121 -62 57 14 83 76 51 122 -10 13 -11 25 -5 35
5 8 9 33 9 56 0 76 -79 115 -156 77z"/>
<path d="M5524 3667 c-9 -24 1 -33 51 -46 25 -6 45 -13 45 -16 0 -3 -18 -23
-40 -45 -41 -41 -53 -80 -25 -80 28 0 70 28 108 69 66 73 41 118 -72 128 -50
5 -62 3 -67 -10z"/>
<path d="M7263 3629 c-72 -35 -65 -79 9 -53 21 7 38 11 38 9 0 -3 -16 -25 -35
-51 -19 -25 -35 -56 -35 -69 0 -32 35 -55 83 -55 51 0 60 25 22 57 l-27 24 20
22 c27 31 42 62 42 89 0 51 -47 62 -117 27z"/>
<path d="M7034 3588 c-23 -44 -15 -168 13 -206 25 -34 37 -37 58 -15 15 15 17
30 11 113 -8 125 -13 140 -42 140 -16 0 -29 -10 -40 -32z"/>
<path d="M5787 3576 c-8 -20 21 -56 44 -56 25 0 34 22 19 49 -12 24 -55 28
-63 7z"/>
<path d="M7367 3262 c-34 -37 -15 -82 33 -82 14 0 31 5 38 12 7 7 12 24 12 38
0 49 -51 68 -83 32z"/>
<path d="M8085 3270 c-36 -15 -135 -146 -135 -180 0 -39 229 -280 266 -280 11
0 35 10 54 21 49 30 190 141 222 175 32 35 68 123 68 167 0 92 -101 131 -225
88 -54 -19 -56 -19 -110 0 -57 20 -106 23 -140 9z"/>
<path d="M7092 3218 c-27 -27 -5 -88 33 -88 28 0 55 24 55 49 0 39 -61 66 -88
39z"/>
<path d="M5537 2848 c-32 -42 -65 -109 -87 -173 -16 -49 -18 -50 -62 -55 -54
-7 -78 -24 -78 -56 0 -24 42 -54 75 -54 19 0 19 -1 -5 -85 -46 -159 -35 -285
34 -362 44 -52 97 -73 182 -73 132 0 211 51 159 104 -12 12 -33 14 -105 9 -62
-4 -98 -2 -120 7 -75 31 -85 145 -29 333 22 75 27 79 122 97 62 12 97 37 97
70 0 28 -30 40 -100 40 -54 0 -61 2 -56 18 29 95 35 212 12 212 -8 0 -26 -15
-39 -32z"/>
<path d="M4602 2848 c-12 -15 -36 -150 -53 -301 l-13 -107 -76 0 c-50 0 -83
-5 -96 -14 -17 -13 -17 -15 -2 -21 9 -4 53 -5 97 -3 68 2 81 1 81 -13 0 -32
-27 -47 -115 -64 -93 -18 -125 -29 -125 -45 0 -18 37 -20 120 -5 121 21 120
21 120 -21 0 -54 21 -124 40 -134 12 -6 23 -5 36 4 15 11 19 31 22 110 4 80 7
96 21 96 9 0 40 11 69 25 39 18 53 30 50 42 -4 23 -59 42 -120 42 l-46 1 5
210 c3 116 4 210 1 210 -3 0 -10 -6 -16 -12z m78 -458 c-8 -5 -28 -10 -45 -10
-23 0 -27 3 -15 10 8 5 29 10 45 10 23 0 27 -3 15 -10z"/>
<path d="M3475 2807 c-96 -101 -80 -239 35 -297 74 -38 146 -16 197 59 54 80
54 156 0 218 -39 44 -82 63 -143 63 -43 0 -51 -4 -89 -43z m118 -61 c49 -20
67 -43 67 -85 0 -56 -39 -95 -87 -88 -44 8 -69 29 -83 73 -10 30 -7 84 7 107
7 12 61 8 96 -7z"/>
<path d="M9478 2826 c-21 -8 -49 -21 -63 -30 -24 -16 -30 -16 -75 -1 -46 15
-127 13 -117 -4 2 -3 10 -20 17 -37 9 -20 30 -39 65 -58 29 -15 65 -41 81 -57
27 -28 28 -31 11 -40 -9 -6 -52 -36 -95 -68 -174 -129 -220 -160 -291 -196
-74 -37 -74 -37 -99 -18 -38 29 -62 65 -72 109 -13 57 16 115 101 196 59 57
197 158 233 171 25 9 -9 21 -69 25 -88 6 -155 -27 -250 -123 -85 -85 -124
-158 -132 -247 -5 -57 -10 -68 -51 -113 -76 -85 -87 -146 -31 -176 29 -15 117
-6 194 20 l60 20 65 -22 c52 -18 88 -22 185 -22 111 0 124 2 177 28 135 66
238 253 210 382 -10 49 -10 49 33 100 40 47 65 91 65 116 0 5 -11 21 -25 34
-28 28 -69 32 -127 11z m62 -69 c0 -7 -14 -26 -30 -42 l-30 -29 -22 22 -22 21
45 20 c52 24 59 25 59 8z m-115 -274 c-10 -53 -30 -89 -83 -145 -57 -61 -118
-82 -207 -70 l-60 8 49 30 c27 16 63 39 80 51 17 13 56 39 86 59 30 21 72 52
93 71 20 18 40 33 43 33 3 0 3 -17 -1 -37z m-652 -250 c-42 -13 -93 -17 -93
-7 0 4 15 23 33 44 l32 37 33 -31 33 -31 -38 -12z"/>
<path d="M7295 2717 c-73 -35 -81 -46 -94 -134 -47 -324 -81 -574 -81 -596 0
-32 24 -57 54 -57 35 0 44 17 61 121 9 52 17 103 20 114 4 17 12 20 67 20 51
0 77 7 138 36 202 96 282 305 167 435 -48 56 -100 77 -197 81 -74 4 -92 1
-135 -20z m212 -109 c54 -25 73 -74 54 -139 -14 -46 -81 -117 -134 -143 -37
-17 -140 -46 -146 -40 -5 5 30 297 40 321 14 37 108 37 186 1z"/>
<path d="M6923 2695 c-39 -19 -94 -56 -122 -81 l-50 -45 -40 42 c-38 39 -43
41 -81 36 -22 -3 -57 -17 -76 -32 -19 -15 -36 -25 -37 -24 -1 2 -9 18 -17 34
-12 23 -23 30 -45 30 -26 0 -32 -5 -42 -37 -14 -43 -39 -225 -49 -354 -6 -87
-6 -89 20 -114 25 -23 29 -24 54 -10 29 17 35 36 50 147 12 83 41 148 94 205
47 51 55 45 69 -48 6 -38 12 -84 15 -102 6 -41 41 -61 78 -44 18 8 27 24 35
63 24 109 82 179 200 239 43 21 45 21 58 4 17 -23 16 -39 -3 -202 -16 -132
-16 -134 4 -154 30 -30 69 -17 90 30 14 30 17 70 17 209 l0 173 -31 31 c-49
49 -101 50 -191 4z"/>
<path d="M2668 2645 c-62 -48 -82 -79 -97 -146 -30 -134 77 -258 202 -235 75
14 167 122 167 196 0 76 -71 189 -137 216 -52 22 -74 17 -135 -31z m123 -65
c63 -45 79 -135 34 -189 -54 -63 -138 -62 -172 3 -20 37 -22 125 -3 180 l12
39 50 -6 c27 -4 62 -16 79 -27z"/>
<path d="M5973 2645 c-17 -7 -39 -26 -49 -40 -17 -26 -17 -28 1 -41 10 -8 30
-14 45 -14 18 0 42 -16 78 -53 29 -29 52 -57 52 -63 0 -6 -18 -27 -40 -47 -22
-19 -40 -42 -40 -50 0 -31 35 -57 90 -67 68 -13 79 -23 54 -51 -33 -37 -69
-48 -210 -69 -75 -11 -143 -25 -150 -31 -23 -19 -17 -57 12 -76 23 -15 37 -15
132 -5 153 16 234 43 287 96 69 70 73 145 9 207 -30 29 -34 38 -29 67 4 21 -1
47 -14 77 -23 52 -110 142 -158 161 -38 16 -30 17 -70 -1z"/>
<path d="M3320 2568 c0 -2 -9 -28 -19 -58 -18 -55 -18 -55 -59 -55 -28 0 -48
-7 -64 -22 -43 -41 -64 -25 -84 60 -8 33 -21 35 -35 3 -16 -35 -3 -90 30 -125
34 -36 58 -39 94 -11 21 17 34 19 80 14 50 -6 56 -4 87 23 27 24 33 38 37 80
6 61 -8 93 -42 93 -14 0 -25 -1 -25 -2z"/>
<path d="M7810 2166 c0 -48 253 -176 347 -176 l37 0 -27 28 c-37 38 -118 86
-218 127 -90 37 -139 44 -139 21z"/>
<path d="M7740 2076 c0 -33 149 -122 278 -165 65 -22 158 -29 147 -11 -15 24
-373 190 -409 190 -9 0 -16 -6 -16 -14z"/>
<path d="M8505 1910 c-12 -19 7 -30 69 -40 92 -15 358 -23 386 -12 24 9 24 10
-17 21 -103 28 -425 51 -438 31z"/>
<path d="M8171 1843 c-26 -32 -35 -65 -27 -98 10 -40 39 -49 110 -34 59 11 65
11 130 -15 71 -29 102 -29 130 0 9 8 16 24 16 35 0 16 -7 19 -54 19 -32 0 -74
9 -105 21 -49 21 -53 21 -94 5 -78 -30 -94 -18 -57 42 26 42 25 52 -4 52 -15
0 -33 -11 -45 -27z"/>
<path d="M8533 1804 c-14 -37 60 -59 239 -70 173 -11 231 13 117 47 -64 20
-209 39 -292 39 -44 0 -59 -4 -64 -16z"/>
<path d="M5545 1604 c-84 -30 -235 -69 -327 -84 -82 -14 -108 -30 -89 -54 11
-12 33 -16 102 -16 49 0 89 -4 89 -9 0 -10 -59 -35 -108 -46 -18 -4 -36 -13
-39 -21 -2 -7 7 -41 21 -76 l25 -63 69 3 69 4 -5 -32 c-3 -25 -16 -38 -61 -67
-61 -39 -71 -49 -71 -76 0 -32 27 -29 111 12 45 23 87 41 93 41 7 0 44 -32 84
-71 74 -72 104 -84 110 -42 2 12 -9 35 -27 56 -57 64 -40 81 89 92 91 7 120
17 120 40 0 27 -40 38 -122 32 l-78 -6 0 35 c0 29 5 38 32 52 61 33 71 49 66
107 -3 29 -12 65 -22 80 -17 25 -21 27 -79 21 l-62 -6 56 28 c70 34 89 49 89
73 0 26 -47 24 -135 -7z m-85 -114 c0 -10 -32 -30 -49 -30 -20 0 -11 20 12 30
29 12 37 12 37 0z m165 -80 c0 -31 -31 -39 -40 -11 -8 26 2 43 23 39 11 -2 17
-13 17 -28z m-116 -22 c12 -30 3 -38 -44 -41 -31 -1 -40 2 -43 16 -2 12 7 22
30 32 44 19 47 19 57 -7z m-151 -52 c2 -11 -8 -21 -32 -31 -47 -20 -56 -19
-56 5 0 14 11 26 33 35 38 17 51 15 55 -9z m170 -77 c4 -24 -21 -46 -60 -52
-35 -5 -38 -4 -38 17 0 28 15 42 50 49 34 6 45 3 48 -14z"/>
<path d="M4005 1599 c-15 -12 -44 -43 -65 -70 l-37 -47 -44 44 c-24 24 -51 47
-62 50 -26 8 -47 -13 -47 -48 0 -35 13 -61 52 -106 l29 -33 -30 -38 c-17 -21
-37 -44 -46 -51 -9 -8 -23 -27 -31 -43 -14 -25 -14 -31 1 -53 28 -43 62 -32
131 41 l61 65 57 -40 c71 -50 110 -70 134 -70 24 0 52 31 52 57 0 30 -38 73
-64 73 -25 0 -106 54 -106 70 0 6 18 34 39 63 47 62 64 103 56 134 -7 30 -43
30 -80 2z"/>
<path d="M7604 1582 c-6 -4 -26 -41 -46 -82 -19 -41 -51 -96 -71 -122 -21 -27
-32 -50 -26 -53 18 -12 100 46 135 96 20 27 37 49 39 49 10 0 45 -96 45 -124
0 -17 -14 -59 -32 -93 -26 -49 -31 -66 -22 -80 36 -58 83 -35 137 67 41 79 44
106 22 171 -25 69 -153 190 -181 171z"/>
<path d="M6964 1486 c-84 -37 -143 -129 -129 -203 17 -90 80 -165 142 -167 53
-1 53 21 -1 75 -48 49 -69 103 -56 147 11 38 42 102 50 102 4 0 12 -18 19 -39
18 -63 152 -174 178 -148 12 12 -8 54 -51 107 -25 30 -56 73 -68 97 -25 46
-36 50 -84 29z"/>
<path d="M5700 1090 c0 -29 35 -56 116 -90 98 -41 145 -39 128 4 -8 20 -186
106 -219 106 -18 0 -25 -5 -25 -20z"/>
<path d="M5400 1034 c-17 -43 -12 -112 9 -133 38 -38 250 -68 279 -39 20 20
14 47 -10 52 -13 3 -54 8 -93 11 -99 10 -115 18 -115 57 0 57 -10 78 -36 78
-17 0 -28 -8 -34 -26z"/>
<path d="M5300 1004 c-6 -14 -10 -34 -10 -44 0 -10 -12 -46 -27 -80 -23 -55
-25 -63 -11 -77 24 -23 56 0 85 63 30 67 38 115 24 143 -16 29 -49 27 -61 -5z"/>
</g>
</svg>
