<?xml version="1.0" standalone="no"?>
<!DOCTYPE svg PUBLIC "-//W3C//DTD SVG 20010904//EN"
 "http://www.w3.org/TR/2001/REC-SVG-20010904/DTD/svg10.dtd">
<svg version="1.0" xmlns="http://www.w3.org/2000/svg"
 width="1200.000000pt" height="480.000000pt" viewBox="0 0 1200.000000 480.000000"
 preserveAspectRatio="xMidYMid meet">

<g transform="translate(0.000000,480.000000) scale(0.100000,-0.100000)"
fill="#000000" stroke="none">
<path d="M3857 3784 c-33 -18 -49 -52 -35 -76 12 -24 31 -23 53 2 18 20 69 27
79 11 6 -10 -20 -35 -46 -44 -28 -10 -23 -55 7 -69 39 -18 31 -38 -14 -38 -22
0 -43 5 -46 10 -8 13 -42 13 -50 -1 -13 -21 5 -57 35 -69 33 -14 106 -8 141
10 31 17 42 57 24 92 -13 27 -13 33 0 51 16 22 19 64 9 92 -16 41 -105 57
-157 29z"/>
<path d="M4176 3789 c-51 -14 -93 -69 -80 -104 9 -23 42 -18 60 10 19 30 50
41 69 25 21 -18 19 -26 -15 -57 -36 -31 -37 -40 -8 -70 32 -34 12 -51 -41 -33
-68 22 -96 -9 -45 -49 37 -29 85 -36 122 -17 42 21 56 50 48 98 -4 26 -1 48 9
69 13 24 14 37 5 63 -19 57 -64 81 -124 65z"/>
<path d="M4424 3784 c-39 -19 -58 -57 -44 -85 15 -26 36 -24 56 6 11 17 25 25
45 25 44 0 48 -26 10 -62 -41 -38 -39 -53 7 -77 40 -21 26 -33 -33 -26 -46 6
-56 5 -61 -9 -15 -38 62 -77 121 -62 57 14 83 76 51 122 -10 13 -11 25 -5 35
5 8 9 33 9 56 0 76 -79 115 -156 77z"/>
<path d="M7264 3591 c-72 -33 -62 -76 12 -53 19 5 34 8 34 6 0 -2 -16 -24 -35
-50 -40 -53 -44 -86 -13 -108 29 -21 82 -20 99 0 11 14 9 20 -15 41 l-28 24
20 22 c43 48 54 94 26 121 -20 21 -50 20 -100 -3z"/>
<path d="M7045 3570 c-37 -41 -31 -190 10 -238 l23 -27 22 20 c21 19 22 25 16
117 -9 142 -28 176 -71 128z"/>
<path d="M7367 3222 c-36 -39 -12 -86 40 -80 33 4 54 48 37 76 -16 24 -57 27
-77 4z"/>
<path d="M7092 3178 c-27 -27 -5 -88 33 -88 28 0 55 24 55 49 0 39 -61 66 -88
39z"/>
<path d="M4572 2888 c-12 -16 -37 -158 -53 -300 l-13 -108 -73 0 c-74 0 -119
-13 -108 -31 4 -5 46 -9 96 -9 70 0 89 -3 89 -14 0 -28 -29 -43 -117 -60 -91
-19 -123 -30 -123 -46 0 -18 37 -20 120 -5 121 21 120 21 120 -21 0 -54 21
-124 40 -134 12 -6 23 -5 36 5 16 11 19 25 17 84 -4 98 2 108 77 140 103 42
89 76 -34 88 l-65 6 6 208 c3 115 4 209 1 209 -3 0 -10 -6 -16 -12z m78 -458
c-8 -5 -28 -10 -45 -10 -23 0 -27 3 -15 10 8 5 29 10 45 10 23 0 27 -3 15 -10z"/>
<path d="M7830 2086 c0 -32 137 -115 259 -157 58 -20 111 -25 111 -10 0 18
-76 73 -155 111 -134 64 -215 85 -215 56z"/>
<path d="M7765 2000 c-4 -6 3 -22 15 -36 29 -29 174 -105 257 -133 68 -23 159
-29 147 -10 -9 16 -342 177 -380 185 -20 4 -34 2 -39 -6z"/>
<path d="M8525 1831 c-18 -31 47 -45 252 -57 145 -7 240 1 209 18 -49 27 -447
61 -461 39z"/>
<path d="M8191 1763 c-40 -50 -40 -112 1 -134 16 -9 34 -8 74 1 56 14 57 13
148 -20 33 -12 69 -19 82 -16 30 8 54 33 54 57 0 16 -7 19 -54 19 -32 0 -74 9
-105 21 -49 21 -53 21 -94 5 -78 -30 -94 -18 -57 42 26 42 25 52 -4 52 -15 0
-33 -11 -45 -27z"/>
<path d="M8558 1735 c-14 -15 -8 -34 14 -46 50 -27 312 -50 376 -33 51 14 16
35 -103 60 -82 17 -277 30 -287 19z"/>
<path d="M5545 1604 c-84 -30 -235 -69 -327 -84 -82 -14 -108 -30 -89 -54 11
-12 33 -16 102 -16 49 0 89 -4 89 -9 0 -10 -59 -35 -108 -46 -18 -4 -36 -13
-39 -21 -2 -7 7 -41 21 -76 l25 -63 69 3 69 4 -5 -32 c-3 -25 -16 -38 -61 -67
-61 -39 -71 -49 -71 -76 0 -32 27 -29 111 12 45 23 87 41 93 41 7 0 44 -32 84
-71 74 -72 104 -84 110 -42 2 12 -9 35 -27 56 -57 64 -40 81 89 92 91 7 120
17 120 40 0 27 -40 38 -122 32 l-78 -6 0 35 c0 29 5 38 32 52 61 33 71 49 66
107 -3 29 -12 65 -22 80 -17 25 -21 27 -79 21 l-62 -6 56 28 c70 34 89 49 89
73 0 26 -47 24 -135 -7z m-85 -114 c0 -10 -32 -30 -49 -30 -20 0 -11 20 12 30
29 12 37 12 37 0z m165 -80 c0 -31 -31 -39 -40 -11 -8 26 2 43 23 39 11 -2 17
-13 17 -28z m-116 -22 c12 -30 3 -38 -44 -41 -31 -1 -40 2 -43 16 -2 12 7 22
30 32 44 19 47 19 57 -7z m-151 -52 c2 -11 -8 -21 -32 -31 -47 -20 -56 -19
-56 5 0 14 11 26 33 35 38 17 51 15 55 -9z m170 -77 c4 -24 -21 -46 -60 -52
-35 -5 -38 -4 -38 17 0 28 15 42 50 49 34 6 45 3 48 -14z"/>
<path d="M5700 1090 c0 -29 35 -56 116 -90 98 -41 145 -39 128 4 -8 20 -186
106 -219 106 -18 0 -25 -5 -25 -20z"/>
<path d="M5400 1034 c-17 -43 -12 -112 9 -133 38 -38 250 -68 279 -39 20 20
14 47 -10 52 -13 3 -54 8 -93 11 -99 10 -115 18 -115 57 0 57 -10 78 -36 78
-17 0 -28 -8 -34 -26z"/>
<path d="M5300 1004 c-6 -14 -10 -34 -10 -44 0 -10 -12 -46 -27 -80 -23 -55
-25 -63 -11 -77 24 -23 56 0 85 63 30 67 38 115 24 143 -16 29 -49 27 -61 -5z"/>
</g>
</svg>
