<?xml version="1.0" standalone="no"?>
<!DOCTYPE svg PUBLIC "-//W3C//DTD SVG 20010904//EN"
 "http://www.w3.org/TR/2001/REC-SVG-20010904/DTD/svg10.dtd">
<svg version="1.0" xmlns="http://www.w3.org/2000/svg"
 width="1200.000000pt" height="480.000000pt" viewBox="0 0 1200.000000 480.000000"
 preserveAspectRatio="xMidYMid meet">

<g transform="translate(0.000000,480.000000) scale(0.100000,-0.100000)"
fill="#000000" stroke="none">
<path d="M3837 3754 c-33 -18 -49 -52 -35 -76 12 -24 31 -23 53 2 18 20 69 27
79 11 6 -10 -20 -35 -46 -44 -28 -10 -23 -55 7 -69 39 -18 31 -38 -14 -38 -22
0 -43 5 -46 10 -8 13 -42 13 -50 -1 -13 -21 5 -57 35 -69 33 -14 106 -8 141
10 31 17 42 57 24 92 -13 27 -13 33 0 51 16 22 19 64 9 92 -16 41 -105 57
-157 29z"/>
<path d="M4156 3759 c-51 -14 -93 -69 -80 -104 9 -23 42 -18 60 10 19 30 50
41 69 25 21 -18 19 -26 -15 -57 -36 -31 -37 -40 -8 -70 32 -34 12 -51 -41 -33
-68 22 -96 -9 -45 -49 37 -29 85 -36 122 -17 42 21 56 50 48 98 -4 26 -1 48 9
69 13 24 14 37 5 63 -19 57 -64 81 -124 65z"/>
<path d="M4404 3754 c-39 -19 -58 -57 -44 -85 15 -26 36 -24 56 6 11 17 25 25
45 25 44 0 48 -26 10 -62 -41 -38 -39 -53 7 -77 40 -21 26 -33 -33 -26 -46 6
-56 5 -61 -9 -15 -38 62 -77 121 -62 57 14 83 76 51 122 -10 13 -11 25 -5 35
5 8 9 33 9 56 0 76 -79 115 -156 77z"/>
<path d="M7235 3596 c-34 -15 -65 -42 -65 -57 0 -12 42 -12 74 1 14 5 26 7 26
5 0 -3 -16 -25 -35 -51 -19 -25 -35 -56 -35 -69 0 -32 35 -55 83 -55 51 0 60
25 22 57 l-27 24 20 22 c79 87 38 167 -63 123z"/>
<path d="M6994 3548 c-23 -44 -15 -168 13 -206 25 -34 37 -37 58 -15 15 15 17
30 11 113 -8 125 -13 140 -42 140 -16 0 -29 -10 -40 -32z"/>
<path d="M7327 3222 c-34 -37 -15 -82 33 -82 14 0 31 5 38 12 7 7 12 24 12 38
0 49 -51 68 -83 32z"/>
<path d="M7052 3178 c-27 -27 -5 -88 33 -88 28 0 55 24 55 49 0 39 -61 66 -88
39z"/>
<path d="M4572 2847 c-15 -18 -27 -80 -48 -247 -10 -80 -22 -148 -28 -152 -6
-4 -41 -8 -77 -8 -40 0 -72 -5 -85 -14 -17 -13 -17 -15 -2 -21 9 -4 53 -5 97
-3 68 2 81 1 81 -13 0 -32 -27 -47 -115 -64 -93 -18 -125 -29 -125 -45 0 -18
37 -20 120 -5 121 21 120 21 120 -21 0 -54 21 -124 40 -134 12 -6 23 -5 36 5
16 11 19 25 16 90 -1 42 2 83 6 92 5 8 38 27 73 42 102 42 88 76 -35 88 l-65
6 6 208 c3 115 4 209 1 209 -3 0 -10 -6 -16 -13z m78 -457 c-8 -5 -28 -10 -45
-10 -23 0 -27 3 -15 10 8 5 29 10 45 10 23 0 27 -3 15 -10z"/>
<path d="M7770 2086 c0 -32 137 -115 259 -157 58 -20 111 -25 111 -10 0 19
-74 72 -153 110 -137 66 -217 87 -217 57z"/>
<path d="M7705 1999 c-4 -6 4 -22 16 -36 29 -30 194 -115 268 -137 62 -18 146
-22 136 -6 -13 20 -370 190 -399 190 -8 0 -18 -5 -21 -11z"/>
<path d="M8465 1830 c-12 -19 7 -30 69 -40 92 -15 358 -23 386 -12 24 9 24 10
-17 21 -103 28 -425 51 -438 31z"/>
<path d="M8131 1763 c-40 -50 -40 -112 1 -134 16 -9 34 -8 74 1 56 14 57 13
148 -20 33 -12 69 -19 82 -16 30 8 54 33 54 57 0 16 -7 19 -54 19 -32 0 -74 9
-105 21 -49 21 -53 21 -94 5 -78 -30 -94 -18 -57 42 26 42 25 52 -4 52 -15 0
-33 -11 -45 -27z"/>
<path d="M8493 1724 c-14 -37 60 -59 239 -70 173 -11 231 13 117 47 -64 20
-209 39 -292 39 -44 0 -59 -4 -64 -16z"/>
<path d="M5580 1574 c-45 -20 -276 -80 -362 -94 -82 -14 -108 -30 -89 -54 11
-12 33 -16 102 -16 49 0 89 -4 89 -9 0 -10 -37 -25 -98 -41 -24 -6 -45 -17
-48 -25 -3 -8 6 -42 20 -77 l25 -63 71 4 71 3 -7 -28 c-3 -16 -13 -35 -23 -42
-9 -7 -36 -27 -61 -45 -46 -34 -63 -72 -36 -83 8 -3 52 13 97 35 45 23 87 41
93 41 7 0 44 -32 84 -71 74 -72 104 -84 110 -42 2 12 -9 35 -27 56 -56 63 -40
81 80 90 89 8 129 20 129 41 0 28 -40 39 -122 33 l-78 -6 0 35 c0 29 5 38 32
52 61 33 71 49 66 107 -3 29 -12 65 -22 80 -17 25 -21 27 -79 21 l-62 -6 56
28 c70 34 89 49 89 73 0 24 -49 25 -100 3z m-120 -124 c0 -10 -32 -30 -49 -30
-20 0 -11 20 12 30 29 12 37 12 37 0z m165 -80 c0 -31 -31 -39 -40 -11 -8 26
2 43 23 39 11 -2 17 -13 17 -28z m-116 -22 c12 -30 3 -38 -44 -41 -31 -1 -40
2 -43 16 -2 12 7 22 30 32 44 19 47 19 57 -7z m-151 -52 c2 -11 -8 -21 -32
-31 -47 -20 -56 -19 -56 5 0 14 11 26 33 35 38 17 51 15 55 -9z m170 -76 c4
-25 -21 -47 -60 -53 -35 -5 -38 -4 -38 17 0 26 14 41 45 49 31 8 50 3 53 -13z"/>
<path d="M5702 1043 c2 -24 15 -34 78 -66 87 -44 154 -58 163 -33 3 8 -1 23
-10 31 -23 24 -182 95 -210 95 -21 0 -24 -4 -21 -27z"/>
<path d="M5400 994 c-6 -14 -10 -47 -10 -74 0 -60 14 -72 110 -94 127 -30 208
-18 198 31 -3 15 -18 19 -91 26 -119 11 -137 18 -137 59 0 57 -10 78 -36 78
-17 0 -28 -8 -34 -26z"/>
<path d="M5307 983 c-2 -5 -8 -26 -11 -48 -4 -22 -19 -66 -33 -98 -23 -51 -24
-60 -11 -73 8 -8 22 -12 31 -8 44 17 100 171 77 213 -10 20 -44 29 -53 14z"/>
</g>
</svg>
