<?xml version="1.0" standalone="no"?>
<!DOCTYPE svg PUBLIC "-//W3C//DTD SVG 20010904//EN"
 "http://www.w3.org/TR/2001/REC-SVG-20010904/DTD/svg10.dtd">
<svg version="1.0" xmlns="http://www.w3.org/2000/svg"
 width="1200.000000pt" height="480.000000pt" viewBox="0 0 1200.000000 480.000000"
 preserveAspectRatio="xMidYMid meet">

<g transform="translate(0.000000,480.000000) scale(0.100000,-0.100000)"
fill="#000000" stroke="none">
<path d="M8935 3822 c-98 -34 -163 -102 -191 -198 -12 -43 -13 -61 -4 -95 7
-26 9 -65 5 -97 l-7 -55 59 7 c43 5 69 2 96 -9 94 -39 237 -6 318 75 74 74 87
165 39 265 -11 23 -20 55 -20 72 0 31 0 31 -67 37 -161 16 -178 16 -228 -2z
m98 -43 c20 -7 37 -16 37 -20 0 -8 -58 -64 -165 -158 -65 -57 -71 -60 -79 -42
-15 34 19 103 86 176 33 36 66 64 72 62 6 -2 28 -10 49 -18z m178 -159 c10
-34 9 -43 -12 -81 -15 -27 -42 -54 -73 -73 -41 -26 -58 -30 -115 -30 -110 0
-109 3 30 138 120 117 125 120 141 103 10 -11 23 -36 29 -57z"/>
<path d="M6004 3792 c-57 -42 -67 -57 -59 -90 16 -77 153 -126 240 -88 l30 14
-55 25 c-30 14 -72 33 -94 41 -37 16 -38 17 -22 38 9 13 23 33 32 45 34 48
-13 58 -72 15z"/>
<path d="M5544 3667 c-9 -24 1 -33 51 -47 25 -7 45 -14 45 -15 0 -2 -18 -21
-40 -43 -41 -40 -53 -82 -25 -82 28 0 70 28 108 69 66 73 41 118 -72 128 -50
5 -62 3 -67 -10z"/>
<path d="M5813 3574 c-8 -22 9 -48 36 -52 26 -4 37 19 21 47 -13 25 -48 28
-57 5z"/>
<path d="M8085 3230 c-36 -15 -135 -146 -135 -180 0 -39 229 -280 266 -280 11
0 35 10 54 21 49 30 190 141 222 175 30 32 58 99 65 157 13 96 -102 146 -226
97 -49 -19 -50 -19 -105 0 -58 21 -107 24 -141 10z"/>
<path d="M3452 2856 c-59 -53 -86 -148 -61 -213 22 -60 100 -112 165 -113 86
0 176 129 158 226 -8 41 -53 98 -95 120 -15 7 -51 14 -78 14 -44 0 -56 -5 -89
-34z m111 -70 c49 -20 67 -43 67 -85 0 -56 -39 -95 -87 -88 -44 8 -69 29 -83
73 -10 30 -7 84 7 107 7 12 61 8 96 -7z"/>
<path d="M9488 2786 c-21 -8 -49 -21 -63 -30 -24 -16 -30 -16 -75 -1 -46 15
-127 13 -117 -4 2 -3 10 -20 17 -37 9 -20 30 -39 65 -58 29 -15 65 -41 81 -57
27 -28 28 -31 11 -40 -9 -6 -52 -36 -95 -68 -174 -129 -220 -160 -291 -196
-74 -37 -74 -37 -99 -18 -38 29 -62 65 -72 109 -13 57 16 115 101 196 59 57
197 158 233 171 25 9 -9 21 -69 25 -88 6 -155 -27 -250 -123 -85 -85 -124
-158 -132 -247 -5 -57 -10 -68 -51 -113 -76 -85 -87 -146 -31 -176 29 -15 117
-6 194 20 l60 20 65 -22 c52 -18 88 -22 185 -22 111 0 124 2 177 28 135 66
238 253 210 382 -10 49 -10 49 33 100 40 47 65 91 65 116 0 5 -11 21 -25 34
-28 28 -69 32 -127 11z m62 -69 c0 -7 -14 -26 -30 -42 l-30 -29 -22 22 -22 21
45 20 c52 24 59 25 59 8z m-115 -274 c-10 -53 -30 -89 -83 -145 -57 -61 -118
-82 -207 -70 l-60 8 49 30 c27 16 63 39 80 51 17 13 56 39 86 59 30 21 72 52
93 71 20 18 40 33 43 33 3 0 3 -17 -1 -37z m-652 -250 c-42 -13 -93 -17 -93
-7 0 4 15 23 33 44 l32 37 33 -31 33 -31 -38 -12z"/>
<path d="M2638 2685 c-62 -48 -82 -79 -97 -146 -30 -134 77 -258 202 -235 75
14 167 122 167 196 0 76 -71 189 -137 216 -52 22 -74 17 -135 -31z m98 -56
c113 -54 111 -202 -2 -239 -45 -15 -89 1 -109 41 -18 33 -20 142 -4 188 9 26
16 31 42 31 17 0 50 -9 73 -21z"/>
<path d="M3290 2608 c0 -2 -9 -28 -19 -58 -18 -55 -18 -55 -59 -55 -28 0 -48
-7 -64 -22 -43 -41 -64 -25 -84 60 -8 33 -21 35 -35 3 -16 -35 -3 -90 30 -125
34 -36 58 -39 94 -11 21 17 34 19 80 14 50 -6 56 -4 87 23 27 24 33 38 37 80
6 61 -8 93 -42 93 -14 0 -25 -1 -25 -2z"/>
<path d="M4005 1599 c-15 -12 -44 -43 -65 -70 l-37 -47 -44 44 c-24 24 -51 47
-62 50 -26 8 -47 -13 -47 -48 0 -35 13 -61 52 -106 l29 -33 -30 -38 c-17 -21
-37 -44 -46 -51 -9 -8 -23 -27 -31 -43 -14 -25 -14 -31 1 -53 28 -43 62 -32
131 41 l61 65 57 -40 c71 -50 110 -70 134 -70 24 0 52 31 52 57 0 30 -38 73
-64 73 -25 0 -106 54 -106 70 0 6 18 34 39 63 47 62 64 103 56 134 -7 30 -43
30 -80 2z"/>
<path d="M7623 1542 c-6 -4 -23 -36 -37 -71 -14 -35 -44 -88 -66 -117 -61 -81
-54 -94 24 -43 25 17 60 51 77 75 16 24 32 44 34 44 11 0 45 -97 45 -126 0
-20 -13 -57 -30 -87 -36 -65 -37 -82 -6 -102 40 -27 77 0 120 86 41 81 44 116
16 176 -34 77 -148 183 -177 165z"/>
<path d="M6973 1439 c-53 -26 -99 -77 -114 -127 -16 -55 8 -135 59 -192 31
-35 44 -43 77 -44 55 -2 56 20 1 75 -48 49 -69 103 -56 147 11 38 42 102 50
102 4 0 12 -17 19 -37 14 -46 32 -69 95 -116 94 -72 115 -36 38 65 -27 35 -61
82 -75 106 -15 23 -33 42 -40 42 -6 0 -31 -9 -54 -21z"/>
</g>
</svg>
