<?xml version="1.0" standalone="no"?>
<!DOCTYPE svg PUBLIC "-//W3C//DTD SVG 20010904//EN"
 "http://www.w3.org/TR/2001/REC-SVG-20010904/DTD/svg10.dtd">
<svg version="1.0" xmlns="http://www.w3.org/2000/svg"
 width="833.000000pt" height="167.000000pt" viewBox="0 0 833.000000 167.000000"
 preserveAspectRatio="xMidYMid meet">

<g transform="translate(0.000000,167.000000) scale(0.100000,-0.100000)"
fill="#000000" stroke="none">
<path d="M844 1374 c-18 -8 -99 -84 -182 -168 -161 -162 -182 -197 -167 -273
7 -41 54 -96 95 -113 47 -20 115 -7 160 29 l38 30 7 -62 c4 -34 15 -107 26
-162 10 -55 19 -105 19 -111 0 -8 -30 -13 -84 -15 -66 -3 -91 -9 -112 -25 -51
-38 -69 -71 -69 -129 0 -58 18 -91 69 -129 27 -20 39 -21 346 -20 356 2 372 4
417 73 36 53 39 93 12 148 -37 72 -65 87 -168 91 l-87 4 -12 71 c-6 40 -18
108 -26 152 -8 44 -17 172 -21 285 -4 112 -12 216 -17 230 -12 32 -55 78 -90
96 -36 18 -115 17 -154 -2z"/>
<path d="M5775 1284 c-41 -10 -100 -36 -126 -55 -15 -10 -36 -19 -46 -19 -34
0 -141 -60 -174 -97 -45 -52 -70 -115 -80 -201 -23 -206 60 -396 205 -467 39
-19 80 -27 173 -36 249 -23 374 25 449 174 74 145 102 311 70 419 -32 112
-129 208 -260 257 -56 21 -173 35 -211 25z"/>
<path d="M4120 1263 c-14 -2 -84 -33 -157 -68 -121 -59 -136 -70 -183 -127
-67 -83 -90 -147 -90 -247 0 -166 83 -316 211 -382 93 -47 279 -64 388 -34
131 34 213 99 271 214 44 88 63 179 57 281 -9 187 -101 315 -253 355 -53 14
-183 18 -244 8z"/>
<path d="M7314 1256 c-138 -34 -223 -129 -244 -273 -23 -160 -3 -282 63 -379
43 -64 164 -146 259 -176 56 -17 97 -23 178 -23 92 0 112 3 160 26 152 72 280
268 280 429 0 52 -22 136 -52 193 -48 95 -150 169 -275 202 -70 18 -295 19
-369 1z"/>
<path d="M2328 1227 c-177 -54 -275 -153 -318 -322 -37 -145 -21 -235 61 -337
124 -155 253 -218 417 -205 192 15 416 232 461 445 16 77 14 131 -10 208 -18
57 -31 77 -82 129 -85 84 -123 97 -307 101 -129 4 -153 1 -222 -19z"/>
</g>
</svg>
