<?xml version="1.0" standalone="no"?>
<!DOCTYPE svg PUBLIC "-//W3C//DTD SVG 20010904//EN"
 "http://www.w3.org/TR/2001/REC-SVG-20010904/DTD/svg10.dtd">
<svg version="1.0" xmlns="http://www.w3.org/2000/svg"
 width="833.000000pt" height="167.000000pt" viewBox="0 0 833.000000 167.000000"
 preserveAspectRatio="xMidYMid meet">

<g transform="translate(0.000000,167.000000) scale(0.100000,-0.100000)"
fill="#000000" stroke="none">
<path d="M2088 1370 c-80 -14 -145 -40 -207 -81 -156 -104 -199 -281 -92 -372
79 -66 190 -37 242 64 24 48 67 71 133 73 l51 1 -3 -34 c-5 -66 -59 -145 -171
-253 -94 -90 -109 -109 -120 -151 -15 -63 -1 -116 44 -162 55 -54 103 -63 397
-68 252 -5 258 -5 289 16 75 51 96 136 51 208 -34 57 -92 82 -194 87 -49 3
-88 6 -88 7 0 1 16 29 35 61 107 178 104 399 -7 520 -55 60 -123 87 -228 90
-47 2 -106 -1 -132 -6z"/>
<path d="M3980 1320 c-118 -43 -211 -129 -274 -254 -47 -95 -60 -159 -53 -275
8 -153 64 -264 170 -338 78 -53 109 -58 352 -58 l220 0 54 28 c60 32 136 103
175 165 60 96 75 273 32 394 -41 116 -159 259 -256 308 -101 51 -317 67 -420
30z"/>
<path d="M5605 1275 c-181 -92 -256 -171 -284 -303 -45 -215 37 -415 206 -500
82 -42 160 -55 295 -50 99 3 120 7 173 33 74 35 173 131 209 204 39 75 69 220
63 302 -11 165 -133 296 -307 329 -29 5 -109 10 -179 10 -115 0 -131 -2 -176
-25z"/>
<path d="M662 1261 c-75 -28 -115 -55 -167 -114 -94 -103 -129 -216 -123 -387
4 -91 8 -114 35 -171 40 -87 84 -122 202 -160 256 -82 507 -22 591 142 28 54
50 199 50 329 0 156 -13 183 -133 267 -120 85 -177 105 -302 110 -81 3 -110 0
-153 -16z"/>
<path d="M7385 1234 c-27 -8 -73 -18 -102 -23 -62 -12 -103 -32 -161 -78 -90
-73 -128 -188 -120 -369 3 -89 7 -108 36 -167 56 -113 142 -171 298 -198 91
-16 174 -6 264 30 176 72 280 191 311 355 12 68 -8 174 -48 247 -30 57 -116
140 -174 170 -93 47 -211 60 -304 33z"/>
</g>
</svg>
