<?xml version="1.0" standalone="no"?>
<!DOCTYPE svg PUBLIC "-//W3C//DTD SVG 20010904//EN"
 "http://www.w3.org/TR/2001/REC-SVG-20010904/DTD/svg10.dtd">
<svg version="1.0" xmlns="http://www.w3.org/2000/svg"
 width="833.000000pt" height="167.000000pt" viewBox="0 0 833.000000 167.000000"
 preserveAspectRatio="xMidYMid meet">

<g transform="translate(0.000000,167.000000) scale(0.100000,-0.100000)"
fill="#000000" stroke="none">
<path d="M5733 1440 c-24 -12 -62 -45 -85 -73 -24 -29 -124 -137 -222 -242
-198 -211 -232 -262 -224 -340 8 -66 40 -110 106 -142 l57 -28 252 -3 252 -3
3 -139 c3 -121 6 -142 24 -166 54 -72 129 -92 203 -52 80 43 84 61 94 378 10
308 7 331 -48 379 -81 70 -180 46 -250 -61 -7 -12 -36 -17 -112 -22 l-103 -6
121 137 c67 76 130 158 141 182 62 135 -77 268 -209 201z"/>
<path d="M647 1329 c-122 -29 -225 -133 -268 -270 -15 -47 -19 -91 -19 -193 0
-157 15 -224 70 -316 60 -101 103 -146 178 -182 65 -32 70 -33 192 -33 147 0
220 20 321 88 189 125 259 266 202 402 -12 28 -24 66 -27 85 -10 58 -75 158
-161 246 -66 67 -95 89 -166 122 -48 23 -106 46 -130 51 -53 13 -140 12 -192
0z"/>
<path d="M2329 1287 c-70 -20 -128 -59 -202 -135 -142 -148 -168 -292 -85
-489 86 -209 211 -318 379 -330 147 -10 286 44 400 157 89 88 101 124 96 296
-3 101 -9 141 -26 184 -48 125 -133 209 -286 285 -67 33 -90 39 -154 42 -42 1
-96 -3 -122 -10z"/>
<path d="M7353 1271 c-146 -53 -273 -161 -313 -266 -31 -83 -38 -221 -15 -300
41 -143 115 -249 203 -292 50 -25 68 -28 147 -27 176 1 310 56 430 178 118
119 164 231 151 365 -12 130 -83 229 -215 300 -112 60 -286 78 -388 42z"/>
<path d="M4010 1244 c-142 -39 -247 -152 -295 -319 -20 -68 -16 -172 10 -245
20 -58 92 -150 147 -188 75 -51 129 -65 268 -66 108 -1 133 2 181 22 124 50
205 131 273 272 26 54 31 77 31 135 -1 113 -25 167 -114 255 -52 51 -98 86
-146 110 -66 33 -76 35 -185 37 -79 2 -132 -2 -170 -13z"/>
</g>
</svg>
