<?xml version="1.0" standalone="no"?>
<!DOCTYPE svg PUBLIC "-//W3C//DTD SVG 20010904//EN"
 "http://www.w3.org/TR/2001/REC-SVG-20010904/DTD/svg10.dtd">
<svg version="1.0" xmlns="http://www.w3.org/2000/svg"
 width="833.000000pt" height="167.000000pt" viewBox="0 0 833.000000 167.000000"
 preserveAspectRatio="xMidYMid meet">

<g transform="translate(0.000000,167.000000) scale(0.100000,-0.100000)"
fill="#000000" stroke="none">
<path d="M3783 1336 c-175 -43 -232 -221 -102 -319 41 -30 98 -33 158 -7 42
19 62 22 109 17 71 -8 132 -25 132 -37 0 -15 -41 -48 -97 -81 -87 -48 -119
-123 -88 -204 20 -54 51 -80 118 -100 61 -18 97 -40 97 -60 0 -35 -222 -32
-330 4 -100 34 -161 19 -214 -53 -30 -39 -29 -119 2 -168 47 -75 213 -128 399
-128 248 0 382 64 449 213 24 53 26 69 21 133 -6 77 -31 146 -73 202 l-26 34
28 56 c26 50 29 68 29 147 0 71 -5 100 -22 137 -30 66 -93 130 -159 162 -115
56 -314 80 -431 52z"/>
<path d="M5605 1261 c-53 -24 -130 -109 -162 -177 -41 -89 -53 -151 -53 -271
0 -144 20 -205 94 -278 97 -98 228 -138 376 -117 101 14 171 48 265 128 85 73
109 108 131 193 13 52 14 75 5 124 -14 81 -69 195 -121 251 -76 82 -199 136
-311 136 -31 0 -73 7 -92 15 -48 20 -83 19 -132 -4z"/>
<path d="M721 1234 c-79 -21 -200 -87 -264 -145 -77 -68 -108 -124 -114 -203
-6 -66 4 -97 46 -145 12 -13 21 -32 21 -42 0 -33 31 -113 62 -159 60 -90 154
-130 303 -130 137 1 234 35 325 117 99 89 145 183 156 322 13 158 -44 252
-204 334 -130 67 -221 81 -331 51z"/>
<path d="M2264 1230 c-128 -42 -166 -87 -183 -218 -15 -122 -14 -204 5 -281
43 -173 135 -268 295 -306 146 -34 286 -10 401 69 109 74 176 189 200 341 29
186 -59 308 -273 380 -74 24 -102 28 -234 31 -129 4 -158 1 -211 -16z"/>
<path d="M7391 1234 c-120 -32 -219 -114 -269 -222 -20 -44 -27 -78 -30 -145
-6 -113 22 -204 87 -291 87 -113 189 -161 335 -154 68 2 93 9 150 37 125 61
222 188 246 323 13 71 -6 175 -47 249 -30 57 -116 140 -174 170 -93 47 -201
59 -298 33z"/>
</g>
</svg>
