<?xml version="1.0" standalone="no"?>
<!DOCTYPE svg PUBLIC "-//W3C//DTD SVG 20010904//EN"
 "http://www.w3.org/TR/2001/REC-SVG-20010904/DTD/svg10.dtd">
<svg version="1.0" xmlns="http://www.w3.org/2000/svg"
 width="833.000000pt" height="167.000000pt" viewBox="0 0 833.000000 167.000000"
 preserveAspectRatio="xMidYMid meet">

<g transform="translate(0.000000,167.000000) scale(0.100000,-0.100000)"
fill="#000000" stroke="none">
<path d="M7102 1389 c-24 -12 -54 -36 -67 -53 -49 -64 -58 -108 -63 -304 -4
-182 -4 -182 23 -237 20 -41 38 -62 71 -81 42 -25 51 -26 182 -25 118 1 141
-1 168 -18 29 -18 54 -75 38 -90 -3 -3 -76 -6 -162 -7 -197 0 -185 2 -227 -35
-89 -78 -63 -210 52 -261 91 -40 378 -33 478 11 62 28 129 93 156 154 32 70
32 213 0 301 -55 153 -197 252 -378 264 l-83 5 0 43 0 43 199 3 c183 3 202 5
227 24 51 38 69 71 69 129 0 58 -18 91 -69 129 -26 20 -43 21 -299 24 -261 2
-274 2 -315 -19z"/>
<path d="M2391 1345 c-187 -53 -337 -212 -381 -404 -16 -67 -8 -209 15 -273
24 -67 89 -135 184 -192 143 -86 237 -104 366 -71 75 20 108 42 219 146 120
113 136 147 136 296 0 191 -30 275 -134 378 -85 85 -169 125 -272 131 -52 3
-98 -1 -133 -11z"/>
<path d="M4010 1315 c-162 -45 -305 -194 -339 -353 -25 -117 2 -311 58 -421
47 -91 147 -158 276 -186 178 -38 318 2 455 131 37 34 58 67 89 138 36 82 41
102 41 169 0 106 -15 168 -65 273 -54 111 -114 180 -197 224 -58 32 -71 35
-163 37 -67 2 -118 -2 -155 -12z"/>
<path d="M5700 1310 c-67 -32 -185 -124 -229 -180 -88 -111 -127 -245 -118
-405 10 -188 78 -311 201 -366 46 -20 59 -21 195 -15 232 12 301 37 418 151
91 90 121 151 130 262 18 236 -115 431 -344 505 -37 12 -80 31 -94 41 -40 29
-105 32 -159 7z"/>
<path d="M661 1295 c-97 -27 -164 -85 -245 -212 -109 -170 -96 -328 41 -498
60 -73 124 -124 225 -174 217 -110 423 -32 543 205 30 60 39 90 38 124 -1 72
-21 235 -33 282 -31 112 -107 210 -199 255 -51 26 -67 28 -186 30 -91 2 -146
-2 -184 -12z"/>
</g>
</svg>
