<?xml version="1.0" standalone="no"?>
<!DOCTYPE svg PUBLIC "-//W3C//DTD SVG 20010904//EN"
 "http://www.w3.org/TR/2001/REC-SVG-20010904/DTD/svg10.dtd">
<svg version="1.0" xmlns="http://www.w3.org/2000/svg"
 width="185.000000pt" height="132.000000pt" viewBox="0 0 185.000000 132.000000"
 preserveAspectRatio="xMidYMid meet">

<g transform="translate(0.000000,132.000000) scale(0.100000,-0.100000)"
fill="#000000" stroke="none">
<path d="M740 1285 c-14 -8 -81 -73 -150 -146 -213 -224 -301 -303 -425 -380
-110 -68 -108 -67 -128 -73 -82 -26 30 -133 378 -362 145 -96 255 -151 418
-209 42 -15 77 -33 77 -40 0 -7 9 -24 21 -39 26 -33 77 -36 105 -5 17 19 19
36 17 158 -1 75 -4 157 -8 183 -5 45 -4 48 20 54 14 3 58 -1 98 -10 122 -28
336 -42 434 -27 47 6 96 19 109 28 22 14 71 103 79 143 2 8 9 38 15 65 6 28
10 92 9 142 -2 51 0 96 4 99 16 16 6 64 -15 78 -40 25 -79 27 -218 12 -74 -8
-218 -20 -320 -26 -164 -10 -307 -34 -398 -65 -9 -3 5 -23 37 -56 l51 -51 273
11 c150 6 300 16 332 21 101 17 95 22 96 -77 0 -49 4 -114 8 -146 6 -50 5 -57
-8 -51 -9 3 -74 10 -146 15 -71 5 -164 13 -205 19 -41 6 -127 13 -191 17 -116
6 -117 6 -130 -18 -14 -26 -38 -212 -39 -296 0 -29 -4 -53 -9 -53 -5 0 -20 12
-32 28 -13 16 -20 20 -16 9 12 -33 20 -97 12 -97 -4 0 -51 43 -104 95 -74 72
-143 125 -297 227 -111 73 -209 138 -219 143 -15 9 -5 21 76 86 110 89 272
238 319 295 63 74 134 144 147 144 14 0 25 -22 71 -139 30 -78 53 -104 73 -84
16 16 -22 234 -51 296 -41 86 -106 118 -170 82z"/>
</g>
</svg>
