<?xml version="1.0" encoding="utf-8"?>
<svg version="1.0" width="185.000000pt" height="132.000000pt" viewBox="0 0 185.000000 132.000000" preserveAspectRatio="xMidYMid meet" xmlns="http://www.w3.org/2000/svg">
  <g transform="translate(0.000000,132.000000) scale(0.100000,-0.100000)" fill="#000000" stroke="none">
    <path d="M740 1286 c-14 -8 -67 -60 -119 -116 -80 -87 -97 -101 -118 -95 -13 3 -33 0 -44 -6 -17 -9 -20 -17 -16 -45 5 -32 1 -38 -76 -109 -45 -42 -104 -91 -132 -109 -103 -70 -171 -111 -189 -116 -68 -19 -31 -80 114 -189 270 -202 455 -308 673 -386 42 -15 77 -33 77 -40 0 -7 9 -24 21 -39 26 -33 77 -36 105 -5 17 19 19 36 17 158 -1 75 -4 157 -8 183 -5 45 -4 48 20 54 14 3 58 -1 98 -10 123 -28 336 -42 435 -27 88 12 142 38 142 68 0 11 5 13 18 7 9 -4 31 -8 47 -8 41 -1 45 31 9 73 -26 31 -26 33 -14 93 6 33 10 101 9 149 -2 49 0 91 4 95 16 16 6 64 -15 78 -40 25 -79 27 -218 12 -74 -8 -218 -20 -320 -26 -140 -9 -214 -19 -304 -41 -132 -32 -118 -34 -224 39 l-71 49 71 77 71 77 15 -30 c8 -17 20 -31 27 -31 6 0 25 -34 41 -77 30 -79 54 -107 75 -86 13 13 -36 333 -55 359 -23 30 -124 42 -166 20z m-141 -595 c50 -62 91 -115 91 -118 0 -2 -38 28 -84 66 -92 79 -128 90 -148 47 -13 -30 4 -65 91 -196 77 -116 76 -114 60 -104 -8 5 -82 54 -165 109 -83 55 -159 105 -169 110 -15 9 -8 18 56 70 41 32 93 76 117 97 24 22 47 38 52 36 4 -2 49 -54 99 -117z m182 92 c13 -16 12 -17 -3 -4 -10 7 -18 15 -18 17 0 8 8 3 21 -13z m869 -38 l0 -55 -61 48 -62 47 34 6 c19 4 46 7 62 8 26 1 27 0 27 -54z m-90 -51 l85 -86 -120 78 c-66 42 -124 81 -129 86 -6 4 10 8 35 8 43 0 48 -3 129 -86z m-505 -115 c5 -5 -3 -9 -20 -9 -24 0 -51 21 -135 101 l-105 100 125 -92 c69 -50 129 -96 135 -100z m194 151 c17 -22 30 -40 27 -40 -2 0 -35 18 -73 40 l-68 40 41 0 c36 0 45 -5 73 -40z m421 -214 c0 -3 -15 0 -32 5 -18 5 -46 9 -63 9 -24 0 -46 17 -117 87 -49 48 -88 91 -88 95 0 5 68 -37 150 -92 83 -55 150 -102 150 -104z m-395 78 c30 -20 55 -38 55 -40 0 -2 -9 -4 -20 -4 -19 0 -115 79 -97 80 4 0 32 -16 62 -36z m-470 -4 c12 -19 -12 -10 -31 11 -19 22 -19 22 3 10 12 -6 25 -16 28 -21z m72 -67 c89 -62 84 -55 70 -103 l-12 -43 -50 74 c-68 100 -67 99 -57 99 5 0 27 -12 49 -27z m-157 -79 c101 -103 170 -156 196 -150 23 6 24 4 24 -44 0 -56 -10 -63 -35 -24 -22 34 -30 24 -15 -20 6 -20 10 -44 8 -53 -6 -28 -164 129 -172 171 -3 17 -22 64 -41 104 -19 40 -31 72 -27 72 4 0 32 -25 62 -56z" style="fill: rgb(255, 255, 255);"/>
  </g>
</svg>