<svg xmlns="http://www.w3.org/2000/svg" xmlns:xlink="http://www.w3.org/1999/xlink" version="1.1" width="1000" height="1000" viewBox="0 0 1000 1000" xml:space="preserve">
<desc>Created with Fabric.js 3.5.0</desc>
<defs>
</defs>
<rect x="0" y="0" width="100%" height="100%" fill="rgba(255,255,255,0)"/>
<g transform="matrix(1.4017 0 0 -1.4017 499.9921 499.9919)" id="27268">
<path style="stroke: none; stroke-width: 1; stroke-dasharray: none; stroke-linecap: butt; stroke-dashoffset: 0; stroke-linejoin: miter; stroke-miterlimit: 4; is-custom-font: none; font-file-url: none; fill: rgb(255,255,255); fill-rule: nonzero; opacity: 1;" vector-effect="non-scaling-stroke" transform=" translate(-330.5733, -345.7242)" d="M 482 593 c -48 -42 -109 -97 -135 -122 l -49 -46 l -49 54 c -27 29 -59 72 -71 95 c -29 58 -47 76 -78 76 c -85 0 -56 -108 63 -236 l 54 -58 l -85 -96 c -46 -52 -94 -114 -106 -138 c -19 -39 -19 -45 -5 -70 c 9 -17 25 -28 41 -30 c 23 -3 32 5 64 55 c 20 32 69 91 107 131 l 71 72 l 121 -120 c 74 -73 130 -120 142 -120 c 30 0 57 34 49 64 c -3 13 -58 75 -121 138 l -116 113 l 113 100 c 62 55 123 111 135 124 c 41 43 25 91 -29 91 c -21 0 -51 -20 -116 -77 z" stroke-linecap="round"/>
</g>
</svg>