<svg xmlns="http://www.w3.org/2000/svg" xmlns:xlink="http://www.w3.org/1999/xlink" version="1.1" width="1000" height="1000" viewBox="0 0 1000 1000" xml:space="preserve">
<desc>Created with Fabric.js 3.5.0</desc>
<defs>
</defs>
<rect x="0" y="0" width="100%" height="100%" fill="rgba(255,255,255,0)"/>
<g transform="matrix(1.0409 0 0 -1.0409 500.004 500.0034)" id="232826">
<path style="stroke: none; stroke-width: 1; stroke-dasharray: none; stroke-linecap: butt; stroke-dashoffset: 0; stroke-linejoin: miter; stroke-miterlimit: 4; is-custom-font: none; font-file-url: none; fill: rgb(255,255,255); fill-rule: nonzero; opacity: 1;" vector-effect="non-scaling-stroke" transform=" translate(-446.3139, -390.3041)" d="M 170 747 c -55 -18 -126 -95 -144 -158 c -39 -132 -28 -149 257 -384 c 80 -66 128 -114 142 -140 c 18 -35 24 -40 55 -40 c 31 0 37 5 58 44 c 26 50 113 163 227 296 c 90 105 118 155 118 212 c 1 158 -257 236 -419 127 c -24 -16 -43 -23 -50 -18 c -73 55 -96 66 -151 69 c -32 2 -74 -1 -93 -8 z m 131 -112 c 16 -9 43 -38 60 -65 c 45 -73 109 -78 124 -10 c 19 85 199 118 267 49 c 19 -19 26 -33 21 -46 c -8 -23 -49 -77 -187 -246 l -110 -134 l -85 73 c -47 39 -115 96 -151 126 c -64 54 -119 121 -120 146 c 0 29 35 85 64 103 c 38 23 77 24 117 4 z" stroke-linecap="round"/>
</g>
</svg>