<?xml version="1.0" encoding="utf-8"?>
<svg version="1.0" width="678.000000pt" height="270.000000pt" viewBox="0 0 678.000000 270.000000" preserveAspectRatio="xMidYMid meet" xmlns="http://www.w3.org/2000/svg">
  <g transform="matrix(0.074384, 0, 0, -0.074384, 0.51232, 201.131012)" fill="#000000" stroke="none" style="">
    <path d="M1585 2683 c-173 -21 -355 -97 -401 -168 -15 -23 -16 -23 -57 -8 -61 24 -260 23 -347 -1 -145 -40 -333 -165 -423 -282 -23 -30 -49 -54 -57 -54 -35 0 -118 -51 -161 -97 -79 -85 -119 -185 -119 -297 1 -84 16 -130 59 -185 39 -49 82 -76 174 -110 68 -25 70 -27 83 -72 15 -52 65 -108 118 -133 103 -48 223 -44 396 14 50 16 93 30 94 30 2 0 6 -10 10 -23 10 -43 62 -102 114 -130 119 -65 313 -38 567 78 l72 33 16 -34 c67 -139 339 -165 622 -59 l90 34 35 -33 c62 -60 114 -79 222 -84 142 -6 362 45 546 129 l63 28 54 -55 c78 -80 145 -108 266 -112 107 -4 190 12 274 53 l50 24 30 -29 c53 -51 118 -74 231 -78 152 -6 303 38 446 129 l47 31 50 -50 c112 -112 294 -130 534 -51 166 54 303 144 341 223 9 19 16 54 16 78 l0 43 68 23 c152 53 283 154 332 257 33 69 33 177 1 258 -52 133 -188 256 -336 306 -97 33 -238 40 -280 13 l-30 -18 -79 62 c-43 34 -108 77 -145 96 -59 29 -75 33 -151 33 -72 0 -93 -4 -139 -27 l-53 -26 -29 33 c-41 46 -152 101 -250 124 -324 77 -785 22 -886 -104 l-25 -32 -62 33 c-84 44 -175 66 -276 66 -149 0 -277 -42 -306 -100 l-11 -22 -22 24 c-83 88 -328 143 -521 116 -100 -13 -249 -61 -302 -96 -48 -31 -55 -30 -63 7 -11 49 -99 133 -167 157 -96 36 -216 49 -323 35z m236 -79 c85 -19 155 -65 183 -119 19 -35 21 -55 18 -167 -1 -71 2 -128 6 -128 28 0 58 75 64 159 3 30 10 39 57 67 118 71 296 110 451 100 216 -13 311 -66 418 -231 25 -38 48 -63 50 -56 6 17 -15 95 -40 148 -18 38 -19 46 -7 54 30 19 171 59 232 65 81 8 209 -17 286 -55 56 -29 134 -104 181 -173 26 -40 47 -48 56 -23 9 24 -3 59 -41 115 -19 29 -35 60 -35 71 0 51 176 111 379 130 101 10 159 10 264 1 289 -26 423 -96 468 -245 12 -38 18 -78 15 -92 -9 -37 1 -30 25 17 17 33 20 53 16 98 l-5 57 52 17 c135 42 258 0 403 -137 62 -58 93 -111 93 -157 0 -22 5 -30 18 -30 47 0 56 70 17 138 l-24 42 47 1 c186 5 317 -45 427 -162 68 -72 100 -147 100 -234 0 -86 -19 -128 -87 -195 -56 -55 -179 -119 -278 -146 -36 -9 -71 -21 -77 -27 -20 -15 -15 -45 8 -52 17 -6 19 -12 13 -38 -17 -80 -62 -123 -199 -188 -108 -51 -212 -79 -320 -86 -125 -8 -188 11 -257 77 l-50 49 21 27 c11 14 26 44 32 66 8 33 7 45 -9 76 -26 51 -42 52 -42 2 0 -86 -71 -165 -212 -236 -153 -77 -349 -101 -455 -55 -28 13 -59 31 -68 41 -15 17 -15 20 0 44 18 27 14 56 -7 56 -7 0 -42 -21 -78 -46 -129 -89 -318 -117 -431 -62 -29 15 -72 45 -94 68 l-39 40 30 28 c40 36 60 62 69 90 l6 22 -36 -25 c-113 -76 -389 -186 -556 -220 -100 -21 -218 -23 -274 -5 -40 13 -105 55 -105 68 0 4 23 20 50 37 56 33 117 91 107 101 -4 4 -55 -16 -114 -44 -238 -112 -383 -156 -523 -155 -112 0 -165 16 -212 63 -21 21 -38 42 -38 48 0 5 21 24 48 41 63 42 114 86 87 76 -11 -4 -60 -22 -110 -40 -49 -18 -126 -48 -170 -65 -301 -121 -458 -141 -550 -68 -33 26 -78 96 -70 109 4 5 28 20 55 34 42 21 72 45 56 45 -3 0 -40 -11 -83 -24 -362 -113 -504 -122 -594 -36 -35 33 -51 70 -31 70 4 0 47 7 96 14 89 15 121 26 73 26 -45 0 -293 58 -346 81 -144 61 -186 207 -107 374 30 65 106 166 143 193 l30 21 -5 -47 c-3 -35 0 -51 11 -61 19 -15 37 -7 37 17 0 59 159 233 278 306 31 19 93 47 137 62 71 25 94 28 205 29 116 0 132 -2 223 -33 54 -19 112 -45 130 -60 18 -14 2 6 -35 44 l-67 69 62 36 c165 96 377 132 548 93z"/>
    <path d="M5765 1107 c-48 -16 -102 -43 -132 -67 -21 -17 -26 -16 -100 1 -261 63 -392 15 -393 -144 0 -23 -7 -51 -15 -61 -21 -27 -19 -59 5 -89 16 -20 18 -30 10 -52 -20 -52 -12 -95 23 -130 27 -27 45 -35 105 -45 44 -7 100 -9 147 -5 71 7 75 6 75 -13 0 -53 49 -126 101 -152 90 -47 198 -32 367 51 111 54 187 114 208 166 20 47 17 117 -7 164 -11 23 -19 42 -17 43 2 1 23 8 47 15 51 15 101 60 101 92 0 39 -40 88 -115 138 -106 70 -171 93 -280 97 -57 3 -105 -1 -130 -9z m230 -72 c58 -16 157 -73 200 -116 l30 -29 -26 -26 c-38 -37 -96 -48 -127 -23 -26 20 -67 25 -76 10 -4 -5 15 -33 40 -63 60 -68 88 -129 79 -170 -11 -50 -78 -106 -189 -158 -159 -75 -246 -88 -307 -47 -33 22 -49 46 -63 94 -6 19 -2 23 21 28 128 27 184 55 153 76 -15 10 -31 9 -220 -17 -170 -22 -280 -15 -306 21 -22 30 8 96 93 206 24 30 43 58 43 62 0 4 -10 7 -22 7 -29 0 -74 -29 -104 -67 -12 -15 -25 -25 -29 -21 -11 11 25 146 45 171 17 20 26 22 122 21 81 0 130 -7 228 -32 78 -20 149 -32 190 -32 l65 0 -25 20 c-14 11 -41 25 -60 31 -52 17 -54 24 -13 43 77 34 158 38 258 11z"/>
    <path d="M6405 480 c-152 -26 -245 -83 -245 -148 0 -17 -6 -35 -13 -39 -26 -16 -47 -58 -47 -96 0 -92 74 -142 205 -141 44 1 93 6 109 13 25 10 31 9 51 -13 93 -100 305 -2 305 141 0 49 -46 125 -89 148 -18 9 -31 24 -31 34 0 24 -35 68 -69 86 -37 19 -115 26 -176 15z m134 -71 c40 -14 47 -29 56 -111 4 -38 11 -68 16 -68 5 0 16 12 26 26 l17 26 23 -26 c15 -17 23 -40 23 -63 0 -68 -103 -133 -166 -104 l-25 11 32 28 c17 15 30 35 28 44 -4 13 -16 11 -94 -14 -119 -38 -218 -46 -265 -21 -31 16 -35 22 -35 58 0 34 3 40 23 43 18 3 22 10 22 37 0 76 32 104 153 130 78 17 125 18 166 4z"/>
  </g>
</svg>