<?xml version="1.0" encoding="utf-8"?>
<svg version="1.0" width="679.000000pt" height="270.000000pt" viewBox="0 0 679.000000 270.000000" preserveAspectRatio="xMidYMid meet" xmlns="http://www.w3.org/2000/svg">
  <g transform="matrix(0.074526, 0, 0, -0.074526, 0.396896, 201.490509)" fill="#000000" stroke="none" style="">
    <path d="M1514 2675 c-143 -26 -258 -80 -329 -156 l-45 -48 -72 16 c-86 18 -239 12 -333 -12 -100 -27 -237 -99 -303 -160 -99 -91 -161 -238 -117 -275 22 -18 39 0 54 59 58 225 413 382 716 315 65 -14 133 -19 142 -10 3 2 -2 14 -9 26 -12 20 -10 25 27 57 93 81 212 121 390 130 133 6 204 -7 275 -52 67 -42 117 -124 98 -159 -8 -13 -7 -21 3 -26 10 -7 10 -14 1 -35 -20 -43 -15 -65 12 -65 30 0 54 32 62 82 8 44 19 55 104 101 104 57 168 72 300 70 255 -2 451 -99 533 -262 36 -73 52 -84 67 -47 12 32 -2 74 -46 141 l-33 50 26 27 c47 49 116 71 242 76 70 3 135 0 170 -8 145 -32 269 -127 335 -258 35 -70 58 -88 70 -56 18 46 -21 130 -95 210 l-50 52 38 31 c49 40 81 49 232 62 205 18 456 -10 654 -73 107 -33 127 -47 127 -84 0 -32 30 -32 103 1 160 74 344 44 445 -71 48 -53 77 -125 87 -209 10 -87 14 -97 38 -93 20 3 22 10 25 68 2 45 -4 86 -17 130 -11 35 -18 66 -15 69 9 10 222 3 279 -9 125 -26 223 -90 268 -174 18 -33 22 -58 22 -126 -1 -135 -48 -221 -184 -331 -90 -73 -172 -116 -241 -125 -29 -4 -54 -13 -57 -21 -7 -18 15 -43 38 -43 42 0 12 -87 -48 -141 -54 -49 -163 -112 -243 -141 -56 -20 -84 -23 -200 -23 -132 0 -137 1 -200 32 -36 18 -78 45 -93 61 l-29 30 26 38 c45 70 43 119 -5 144 -18 10 -19 9 -14 -13 9 -34 -15 -76 -77 -137 -124 -122 -273 -192 -413 -193 -122 0 -199 29 -248 94 l-19 27 51 49 c50 48 68 93 37 93 -8 0 -36 -16 -62 -35 -225 -163 -325 -207 -423 -187 -74 16 -148 53 -205 103 l-46 41 30 34 c25 29 42 84 25 84 -2 0 -42 -25 -88 -55 -245 -159 -499 -232 -688 -196 -67 13 -130 39 -136 56 -2 6 29 28 68 50 88 49 129 86 129 115 0 30 -27 23 -127 -36 -185 -110 -358 -172 -510 -181 -149 -9 -217 19 -264 109 l-19 37 45 31 c24 17 51 40 60 52 15 22 21 68 8 68 -3 0 -48 -27 -99 -60 -182 -118 -365 -189 -505 -197 -119 -7 -164 10 -227 85 l-43 51 38 20 c21 10 57 40 79 65 43 48 45 51 16 37 -9 -4 -44 -17 -77 -29 -33 -11 -100 -36 -150 -55 -176 -69 -343 -86 -425 -45 -46 23 -90 77 -90 109 0 14 11 19 58 24 97 11 162 34 196 68 31 32 31 32 7 35 -12 2 -55 -5 -95 -15 -104 -26 -227 -24 -293 6 -95 42 -166 143 -179 254 -12 101 34 191 137 271 50 39 58 50 49 62 -28 33 -98 0 -167 -80 -98 -111 -114 -248 -46 -393 42 -90 142 -174 234 -196 21 -5 28 -14 32 -44 4 -21 20 -59 36 -84 75 -119 270 -139 520 -54 l72 24 10 -27 c14 -37 85 -109 134 -135 34 -19 56 -22 145 -22 122 0 191 18 362 95 104 47 107 47 112 26 12 -48 67 -108 124 -134 52 -25 67 -27 172 -26 122 2 213 20 331 68 l62 25 36 -29 c149 -118 470 -97 748 49 l93 48 22 -24 c38 -41 154 -113 215 -135 111 -39 225 -21 352 57 l60 36 46 -50 c26 -27 68 -59 98 -72 46 -21 67 -24 177 -24 111 1 132 4 193 28 58 23 142 72 225 133 21 16 24 15 68 -26 159 -147 452 -148 697 -2 129 77 192 152 204 242 5 34 11 40 57 61 68 32 194 127 251 191 60 67 93 132 111 222 46 217 -85 389 -336 442 -83 17 -266 18 -300 1 -23 -12 -28 -10 -72 35 -29 29 -75 62 -115 81 -59 27 -81 32 -168 35 -87 4 -110 1 -175 -21 l-74 -25 -26 27 c-16 18 -57 38 -120 58 -199 66 -369 87 -628 80 -222 -5 -273 -18 -330 -77 -20 -22 -42 -40 -48 -40 -6 0 -37 13 -70 30 -81 40 -172 60 -279 60 -148 0 -288 -45 -333 -106 l-19 -28 -49 31 c-153 98 -428 143 -599 98 -63 -17 -159 -59 -211 -94 l-31 -21 -12 28 c-17 42 -98 117 -156 145 -96 48 -241 59 -391 32z"/>
    <path d="M5717 1110 c-53 -14 -92 -35 -115 -65 l-20 -25 -63 17 c-98 27 -220 23 -289 -9 -59 -27 -107 -69 -121 -106 -16 -42 -10 -98 13 -128 19 -24 23 -41 23 -110 0 -74 3 -85 25 -110 44 -48 104 -67 215 -70 l100 -3 7 -28 c13 -49 73 -110 131 -131 180 -67 454 -6 552 123 20 26 30 51 33 88 3 45 -1 62 -32 121 l-36 68 24 29 c34 40 51 122 37 175 -22 82 -79 124 -199 149 -89 19 -238 26 -285 15z m237 -75 c107 -19 159 -44 176 -85 15 -36 8 -101 -14 -135 l-16 -24 -47 29 c-48 30 -93 32 -93 5 0 -6 27 -36 60 -65 74 -64 120 -139 120 -197 0 -33 -6 -48 -32 -74 -99 -98 -347 -140 -473 -79 -40 19 -85 71 -85 98 0 5 30 19 68 31 69 21 112 50 112 76 0 20 -36 19 -91 -1 -159 -56 -344 -59 -410 -5 -29 23 -29 90 0 156 34 77 23 103 -31 74 -25 -13 -31 -7 -30 32 1 37 23 64 77 93 33 17 56 21 135 20 84 0 110 -5 221 -42 138 -46 166 -50 176 -26 8 21 -28 49 -85 65 -23 6 -45 15 -47 19 -4 6 40 29 85 44 31 10 141 5 224 -9z"/>
    <path d="M6329 466 c-85 -30 -149 -92 -149 -145 0 -12 -14 -34 -30 -49 -62 -55 -46 -148 33 -192 53 -30 176 -38 255 -17 46 12 54 13 59 0 8 -22 58 -43 100 -43 131 1 222 144 164 259 -26 51 -75 84 -113 75 -22 -4 -29 0 -41 23 -18 35 -52 66 -94 87 -38 19 -133 20 -184 2z m173 -72 c31 -16 62 -70 72 -127 6 -32 11 -38 29 -35 15 2 25 13 32 36 5 17 12 32 16 32 4 0 19 -14 33 -31 39 -46 36 -101 -8 -145 -27 -27 -42 -34 -74 -34 -51 0 -57 9 -26 39 24 23 32 51 14 51 -5 0 -50 -13 -100 -30 -113 -38 -226 -42 -277 -10 -27 16 -33 26 -33 54 0 37 14 56 24 31 3 -8 15 -15 26 -15 18 0 20 6 20 63 0 53 4 67 23 84 65 60 156 75 229 37z"/>
  </g>
</svg>