<?xml version="1.0" standalone="no"?>
<!DOCTYPE svg PUBLIC "-//W3C//DTD SVG 20010904//EN"
 "http://www.w3.org/TR/2001/REC-SVG-20010904/DTD/svg10.dtd">
<svg version="1.0" xmlns="http://www.w3.org/2000/svg"
 width="185.000000pt" height="132.000000pt" viewBox="0 0 185.000000 132.000000"
 preserveAspectRatio="xMidYMid meet">

<g transform="translate(0.000000,132.000000) scale(0.100000,-0.100000)"
fill="#000000" stroke="none">
<path d="M992 1275 c-45 -37 -72 -106 -94 -238 -15 -89 -17 -122 -9 -130 20
-20 43 6 73 84 46 117 57 139 71 139 13 0 84 -70 147 -144 47 -57 209 -206
319 -295 81 -65 91 -77 76 -86 -10 -5 -108 -70 -219 -143 -154 -102 -223 -155
-297 -227 -53 -52 -100 -95 -104 -95 -8 0 0 64 12 97 4 11 -3 7 -16 -9 -12
-16 -27 -28 -32 -28 -5 0 -9 24 -9 53 -1 84 -25 270 -39 296 -13 24 -14 24
-130 18 -64 -4 -150 -11 -191 -17 -41 -6 -133 -14 -205 -19 -71 -5 -137 -12
-146 -15 -13 -6 -14 1 -8 51 4 32 8 97 8 146 1 99 -5 94 96 77 32 -5 182 -15
332 -21 l273 -11 51 51 c32 33 46 53 37 56 -91 31 -234 55 -398 65 -102 6
-246 18 -320 26 -139 15 -178 13 -218 -12 -21 -14 -31 -62 -15 -78 4 -3 6 -48
4 -99 -1 -50 3 -114 9 -142 6 -27 13 -57 15 -65 8 -40 57 -129 79 -143 13 -9
62 -22 109 -28 98 -15 312 -1 434 27 40 9 84 13 98 10 24 -6 25 -9 20 -54 -4
-26 -7 -108 -8 -183 -2 -122 0 -139 17 -158 28 -31 79 -28 105 5 12 15 21 32
21 39 0 7 35 25 78 40 162 58 272 113 417 209 348 229 460 336 378 362 -20 6
-18 5 -128 73 -124 77 -212 156 -425 380 -69 73 -137 138 -152 146 -40 22 -82
18 -116 -10z"/>
</g>
</svg>
