<?xml version="1.0" encoding="utf-8"?>
<svg version="1.0" width="185.000000pt" height="132.000000pt" viewBox="0 0 185.000000 132.000000" preserveAspectRatio="xMidYMid meet" xmlns="http://www.w3.org/2000/svg">
  <g transform="translate(0.000000,132.000000) scale(0.100000,-0.100000)" fill="#000000" stroke="none">
    <path d="M990 1290 c-18 -5 -39 -15 -45 -24 -20 -26 -69 -346 -56 -359 21 -21 45 7 75 86 16 43 35 77 41 77 7 0 19 14 27 31 l15 30 71 -77 71 -77 -71 -49 c-106 -73 -92 -71 -224 -39 -90 22 -164 32 -304 41 -102 6 -246 18 -320 26 -139 15 -178 13 -218 -12 -21 -14 -31 -62 -15 -78 4 -4 6 -46 4 -95 -1 -48 3 -116 9 -149 12 -60 12 -62 -14 -93 -36 -42 -32 -74 9 -73 17 0 38 4 47 8 13 6 18 4 18 -7 0 -30 54 -56 142 -68 99 -15 312 -1 435 27 40 9 84 13 98 10 24 -6 25 -9 20 -54 -4 -26 -7 -108 -8 -183 -2 -122 0 -139 17 -158 28 -31 79 -28 105 5 12 15 21 32 21 39 0 7 35 25 78 40 217 78 402 184 672 386 145 109 182 170 114 189 -18 5 -86 46 -189 116 -27 18 -87 67 -132 109 -77 71 -81 77 -76 109 4 28 1 36 -16 45 -11 6 -31 9 -44 6 -21 -6 -38 8 -118 95 -122 132 -143 142 -239 120z m413 -518 c23 -21 75 -65 116 -97 64 -52 71 -61 56 -70 -10 -5 -86 -55 -169 -110 -83 -55 -157 -104 -165 -109 -16 -10 -17 -12 60 104 87 131 104 166 91 196 -20 43 -56 32 -150 -48 -47 -39 -81 -65 -76 -56 19 32 179 228 187 228 4 0 26 -17 50 -38z m-1119 20 l38 -7 -61 -47 -61 -48 0 55 c0 61 1 62 84 47z m806 4 c0 -2 -8 -10 -17 -17 -16 -13 -17 -12 -4 4 13 16 21 21 21 13z m-635 -24 c-6 -5 -64 -44 -130 -86 l-120 -78 85 86 c81 83 86 86 129 86 25 0 41 -4 36 -8z m192 -42 c-38 -22 -71 -40 -73 -40 -3 0 10 18 27 40 28 35 37 40 73 40 l41 0 -68 -40z m303 -60 c-83 -79 -111 -100 -134 -100 -16 0 -27 2 -25 5 13 12 255 194 259 194 3 0 -42 -45 -100 -99z m-555 -50 c-73 -74 -95 -90 -120 -90 -17 0 -46 -4 -64 -10 -25 -7 -32 -7 -24 1 20 20 288 196 292 192 3 -2 -35 -44 -84 -93z m208 -30 c-23 -22 -52 -40 -64 -40 -26 0 -24 3 38 46 65 45 77 42 26 -6z m472 10 c-10 -11 -23 -20 -29 -20 -6 1 0 10 13 20 30 26 39 26 16 0z m-52 -63 c-4 -7 -30 -45 -58 -86 l-50 -74 -12 43 c-12 40 -11 44 9 59 89 66 129 87 111 58z m142 -109 c-19 -40 -38 -87 -41 -104 -8 -42 -166 -199 -172 -171 -2 9 2 33 8 53 15 44 7 54 -15 20 -25 -39 -35 -32 -35 24 0 48 1 50 24 44 26 -6 95 47 196 150 30 31 58 56 62 56 4 0 -8 -32 -27 -72z" style="fill: rgb(255, 255, 255);"/>
  </g>
</svg>