<svg xmlns="http://www.w3.org/2000/svg" xmlns:xlink="http://www.w3.org/1999/xlink" version="1.1" width="1000" height="1000" viewBox="0 0 1000 1000" xml:space="preserve">
<desc>Created with Fabric.js 3.5.0</desc>
<defs>
</defs>
<rect x="0" y="0" width="100%" height="100%" fill="rgba(255,255,255,0)"/>
<g transform="matrix(0.9187 0 0 -0.9187 499.9934 500.4894)" id="213787">
<path style="stroke: none; stroke-width: 1; stroke-dasharray: none; stroke-linecap: butt; stroke-dashoffset: 0; stroke-linejoin: miter; stroke-miterlimit: 4; is-custom-font: none; font-file-url: none; fill: rgb(255,255,255); fill-rule: nonzero; opacity: 1;" vector-effect="non-scaling-stroke" transform=" translate(-355.1607, -563.8459)" d="M 316 1091 c -17 -19 -19 -42 -17 -317 l 2 -296 l -113 3 c -62 1 -123 -1 -135 -5 c -33 -11 -41 -53 -15 -79 c 19 -18 36 -21 140 -25 l 119 -4 l 6 -154 c 3 -84 11 -163 17 -174 c 15 -28 64 -27 84 2 c 13 18 14 46 9 173 l -6 152 l 109 -5 c 64 -2 120 0 136 7 c 36 14 47 55 23 81 c -15 17 -31 20 -95 20 c -43 0 -98 3 -124 6 l -46 7 l 0 286 c 0 210 -4 293 -13 311 c -16 32 -57 38 -81 11 z" stroke-linecap="round"/>
</g>
</svg>