<?xml version="1.0" standalone="no"?>
<!DOCTYPE svg PUBLIC "-//W3C//DTD SVG 20010904//EN"
 "http://www.w3.org/TR/2001/REC-SVG-20010904/DTD/svg10.dtd">
<svg version="1.0" xmlns="http://www.w3.org/2000/svg"
 width="125.000000pt" height="103.000000pt" viewBox="0 0 125.000000 103.000000"
 preserveAspectRatio="xMidYMid meet">

<g transform="translate(0.000000,103.000000) scale(0.100000,-0.100000)"
fill="#000000" stroke="none">
<path d="M680 990 c-80 -37 -150 -123 -150 -185 0 -29 -8 -30 -74 -10 -70 21
-127 57 -200 126 -35 32 -68 59 -73 59 -4 0 -22 -13 -39 -28 -28 -25 -32 -37
-38 -103 -4 -43 -2 -89 4 -109 12 -43 13 -40 -5 -40 -27 0 -55 -42 -55 -82 0
-48 20 -88 61 -122 28 -24 30 -28 17 -44 -49 -56 -13 -129 87 -180 l40 -21
-88 -40 c-48 -23 -91 -41 -95 -41 -5 0 -19 -11 -31 -24 -38 -40 -23 -70 47
-97 51 -21 75 -23 222 -23 141 -1 177 2 250 22 100 27 215 83 295 143 75 57
177 185 225 284 41 84 49 124 36 186 -8 36 -7 37 45 65 85 47 91 86 18 111
-20 7 -32 17 -30 25 2 7 6 36 9 65 4 44 2 53 -17 62 -17 9 -30 7 -71 -14 l-51
-26 -57 28 c-78 38 -214 44 -282 13z m222 -61 c20 -5 51 -21 68 -36 l32 -26
45 22 c38 18 45 19 39 6 -19 -50 -18 -64 8 -90 l25 -25 -39 -20 c-21 -11 -41
-24 -44 -28 -3 -5 2 -32 11 -60 16 -48 16 -55 0 -104 -28 -88 -87 -178 -177
-268 -68 -69 -102 -94 -170 -127 -47 -23 -112 -49 -145 -58 -83 -23 -311 -32
-382 -15 l-54 13 89 43 c61 30 97 54 116 79 27 35 29 62 4 69 -91 26 -158 67
-158 96 0 5 11 10 25 10 40 0 75 21 75 45 0 17 -16 32 -66 61 -55 32 -94 73
-94 98 0 3 28 5 63 3 58 -2 62 -1 65 22 2 14 -6 33 -21 50 -13 14 -30 36 -36
48 -11 22 -16 163 -5 163 4 0 34 -25 67 -56 75 -69 158 -110 242 -119 83 -9
105 -2 105 36 0 16 7 46 15 66 44 105 148 141 297 102z"/>
</g>
</svg>
