<?xml version="1.0" standalone="no"?>
<!DOCTYPE svg PUBLIC "-//W3C//DTD SVG 20010904//EN"
 "http://www.w3.org/TR/2001/REC-SVG-20010904/DTD/svg10.dtd">
<svg version="1.0" xmlns="http://www.w3.org/2000/svg"
 width="127.000000pt" height="135.000000pt" viewBox="0 0 127.000000 135.000000"
 preserveAspectRatio="xMidYMid meet">

<g transform="translate(0.000000,135.000000) scale(0.100000,-0.100000)"
fill="#000000" stroke="none">
<path d="M940 1314 c-135 -7 -387 -13 -561 -13 -236 -1 -319 -4 -331 -13 -14
-11 -17 -68 -23 -443 -12 -666 -13 -614 10 -631 12 -9 30 -13 45 -10 14 3 74
9 134 13 l109 6 -6 -78 c-6 -83 1 -108 33 -125 31 -17 75 9 192 113 l108 95
151 -4 152 -4 36 43 c19 23 86 92 147 154 l111 111 7 377 c7 335 6 379 -9 401
-9 15 -24 23 -38 23 -12 -1 -132 -8 -267 -15z m245 -411 l-7 -348 -87 -85
c-47 -47 -104 -107 -126 -134 l-40 -49 -148 6 -148 6 -111 -97 c-60 -53 -116
-100 -123 -104 -9 -6 -11 12 -7 85 3 71 1 95 -9 103 -15 12 -217 3 -273 -11
l-29 -8 7 129 c3 71 9 288 13 482 l6 352 276 1 c152 1 335 5 406 8 72 4 192 8
269 9 l138 2 -7 -347z"/>
<path d="M533 1041 c-48 -30 -68 -106 -59 -228 11 -150 34 -196 95 -191 30 2
39 10 57 42 42 74 60 242 35 317 -22 68 -75 93 -128 60z m71 -159 c0 -43 -8
-103 -18 -137 -16 -52 -19 -57 -29 -40 -17 30 -16 248 2 269 13 16 16 16 30 1
12 -12 16 -35 15 -93z"/>
<path d="M770 1028 c-28 -46 -35 -87 -35 -213 0 -125 15 -170 62 -181 69 -18
115 66 117 211 1 89 -13 141 -51 185 -34 41 -67 40 -93 -2z m69 -95 c18 -64
12 -148 -16 -223 -10 -29 -22 23 -22 105 -1 90 8 155 20 155 4 0 13 -17 18
-37z"/>
</g>
</svg>
