<?xml version="1.0" encoding="utf-8"?>
<svg version="1.0" width="127.000000pt" height="135.000000pt" viewBox="0 0 127.000000 135.000000" preserveAspectRatio="xMidYMid meet" xmlns="http://www.w3.org/2000/svg">
  <g transform="translate(0.000000,135.000000) scale(0.100000,-0.100000)" fill="#000000" stroke="none">
    <path d="M940 1314 c-135 -7 -387 -13 -561 -13 -236 -1 -319 -4 -331 -13 -14 -11 -17 -68 -23 -443 -12 -666 -13 -614 10 -631 12 -9 30 -13 45 -10 14 3 74 9 134 13 l109 6 -6 -78 c-6 -83 1 -108 33 -125 31 -17 75 9 192 113 l108 95 151 -4 152 -4 36 43 c19 23 86 92 147 154 l111 111 7 377 c7 335 6 379 -9 401 -9 15 -24 23 -38 23 -12 -1 -132 -8 -267 -15z m245 -411 l-7 -348 -87 -85 c-47 -47 -104 -107 -126 -134 l-40 -49 -148 6 -148 6 -111 -97 c-60 -53 -116 -100 -123 -104 -9 -6 -11 12 -7 85 3 71 1 95 -9 103 -15 12 -217 3 -273 -11 l-29 -8 7 129 c3 71 9 288 13 482 l6 352 276 1 c152 1 335 5 406 8 72 4 192 8 269 9 l138 2 -7 -347z" style="fill: rgb(255, 255, 255);"/>
    <path d="M533 1041 c-48 -30 -68 -106 -59 -228 11 -150 34 -196 95 -191 30 2 39 10 57 42 42 74 60 242 35 317 -22 68 -75 93 -128 60z m71 -159 c0 -43 -8 -103 -18 -137 -16 -52 -19 -57 -29 -40 -17 30 -16 248 2 269 13 16 16 16 30 1 12 -12 16 -35 15 -93z" style="fill: rgb(255, 255, 255);"/>
    <path d="M770 1028 c-28 -46 -35 -87 -35 -213 0 -125 15 -170 62 -181 69 -18 115 66 117 211 1 89 -13 141 -51 185 -34 41 -67 40 -93 -2z m69 -95 c18 -64 12 -148 -16 -223 -10 -29 -22 23 -22 105 -1 90 8 155 20 155 4 0 13 -17 18 -37z" style="fill: rgb(255, 255, 255);"/>
  </g>
  <path stroke-width="0" d="M 74.315 5.757 C 75.428 5.71 76.847 6.181 77.566 6.966 C 78.315 7.785 78.81 9.264 78.624 10.67 C 78.387 12.459 77.186 14.187 75.298 16.868 C 72.235 21.219 62.91 32.685 59.954 34.783 C 58.722 35.656 58.171 35.409 57.384 35.387 C 56.671 35.368 55.968 35.112 55.418 34.783 C 54.895 34.47 54.444 34.069 54.133 33.498 C 53.773 32.834 53.456 31.768 53.529 30.928 C 53.602 30.079 54.92 28.503 54.587 28.433 C 54.05 28.321 48.352 33.338 47.633 34.027 C 47.43 34.221 47.702 34.069 47.406 34.329 C 45.381 36.113 16.001 58.967 10.368 62.146 C 8.333 63.294 7.863 63.188 6.891 63.204 C 6.117 63.216 5.476 62.928 4.926 62.599 C 4.402 62.286 3.951 61.886 3.641 61.314 C 3.28 60.65 2.881 59.685 3.036 58.744 C 3.227 57.586 4.878 55.382 5.228 54.889 C 5.35 54.717 5.313 54.814 5.455 54.662 C 5.842 54.248 7.713 52.129 8.1 51.714 C 8.242 51.563 8.143 51.686 8.327 51.488 C 9.143 50.607 16.038 42.67 17.171 41.586 C 17.51 41.261 17.531 41.393 17.7 41.208 C 17.913 40.974 18.098 40.423 18.305 40.225 C 18.453 40.082 18.609 40.141 18.758 39.998 C 18.965 39.8 19.156 39.214 19.363 39.016 C 19.511 38.873 19.68 38.926 19.816 38.789 C 19.992 38.613 20.079 38.163 20.27 37.957 C 20.44 37.774 20.704 37.763 20.875 37.58 C 21.065 37.374 21.138 36.953 21.328 36.748 C 21.498 36.565 21.763 36.553 21.933 36.37 C 22.123 36.165 22.196 35.744 22.386 35.539 C 22.556 35.355 22.821 35.344 22.991 35.161 C 23.182 34.955 23.269 34.505 23.445 34.329 C 23.581 34.192 23.661 34.311 23.898 34.102 C 24.527 33.55 27.017 30.19 27.602 29.643 C 27.811 29.448 27.86 29.546 27.98 29.416 C 28.142 29.239 28.258 28.76 28.433 28.585 C 28.57 28.448 28.75 28.495 28.887 28.358 C 29.062 28.182 29.15 27.732 29.34 27.526 C 29.511 27.343 29.804 27.289 29.945 27.148 C 30.062 27.032 30.091 26.875 30.172 26.77 C 30.243 26.678 30.312 26.652 30.399 26.544 C 30.525 26.386 30.658 26.061 30.852 25.863 C 31.056 25.655 31.439 25.474 31.608 25.334 C 31.719 25.243 31.751 25.208 31.835 25.108 C 31.946 24.975 32.23 24.672 32.213 24.578 C 32.201 24.516 32.201 24.435 31.986 24.503 C 30.614 24.936 14.572 35.513 10.821 37.202 C 9.182 37.94 8.679 37.971 7.798 37.957 C 7.052 37.946 6.383 37.682 5.833 37.353 C 5.309 37.04 4.857 36.669 4.548 36.068 C 4.165 35.324 3.626 34.434 3.943 33.044 C 4.502 30.598 8.557 25.943 10.443 22.16 C 12.338 18.36 13.534 12.191 15.281 10.292 C 16.317 9.166 17.5 9.061 18.531 9.083 C 19.511 9.103 20.707 9.732 21.328 10.292 C 21.849 10.762 22.058 11.4 22.235 12.031 C 22.418 12.682 22.563 13.139 22.386 14.147 C 22.077 15.914 18.16 21.644 19.363 22.235 C 21.12 23.098 34.251 13.593 38.789 11.351 C 41.597 9.963 43.373 9.218 44.987 8.781 C 46.115 8.475 46.808 8.341 47.708 8.478 C 48.648 8.622 49.884 9.128 50.505 9.688 C 51.026 10.157 51.235 10.795 51.412 11.426 C 51.595 12.077 51.772 12.675 51.563 13.543 C 51.259 14.81 50.536 16.257 48.993 18.38 C 46.378 21.979 35.375 32.854 35.236 33.573 C 35.155 33.997 39.087 30.765 39.62 30.323 C 39.792 30.181 39.694 30.234 39.847 30.096 C 40.262 29.723 42.381 27.976 42.795 27.602 C 42.948 27.464 42.905 27.481 43.022 27.375 C 43.225 27.19 43.801 26.728 44.004 26.544 C 44.121 26.438 44.107 26.432 44.231 26.317 C 44.474 26.091 45.274 25.409 45.516 25.183 C 45.64 25.068 45.491 25.153 45.743 24.956 C 47.303 23.74 66.243 10.082 70.687 7.42 C 72.657 6.24 73.138 5.807 74.315 5.757 Z M 49.371 40.376 C 50.331 40.415 52.03 40.827 52.773 41.586 C 53.5 42.328 53.817 43.931 53.831 44.836 C 53.842 45.553 53.872 45.699 53.226 46.65 C 51.608 49.034 41.937 58.455 39.998 60.331 C 39.297 61.011 38.88 61.172 38.865 61.314 C 38.857 61.382 38.913 61.429 39.091 61.39 C 39.842 61.223 45.172 58.039 46.801 57.459 C 47.678 57.147 47.94 57.064 48.615 57.157 C 49.442 57.27 50.771 57.642 51.412 58.366 C 52.095 59.137 52.605 60.688 52.47 61.768 C 52.335 62.856 51.988 63.718 50.581 64.867 C 47.886 67.065 39.555 69.907 33.951 72.728 C 28.17 75.638 20.035 80.28 16.415 82.101 C 14.448 83.09 13.749 83.511 12.484 83.915 C 11.339 84.281 10.097 84.564 9.158 84.52 C 8.389 84.483 7.743 84.244 7.193 83.915 C 6.67 83.602 6.218 83.212 5.908 82.63 C 5.54 81.939 5.221 80.774 5.303 79.909 C 5.384 79.062 5.731 78.4 6.362 77.49 C 7.248 76.209 8.649 74.727 10.67 73.03 C 13.53 70.629 19.304 67.229 22.764 64.564 C 25.728 62.282 29.615 58.951 30.399 58.064 C 30.636 57.795 30.515 57.735 30.625 57.61 C 30.739 57.482 30.9 57.433 31.079 57.308 C 31.31 57.147 31.704 56.922 31.91 56.703 C 32.089 56.514 32.002 56.428 32.288 56.099 C 33.01 55.27 36.366 52.383 37.504 51.185 C 38.221 50.431 38.677 49.742 38.94 49.447 C 39.061 49.312 39.015 49.376 39.167 49.22 C 39.62 48.754 42.115 46.134 42.568 45.667 C 42.72 45.511 42.697 45.51 42.795 45.441 C 42.913 45.357 43.117 45.336 43.249 45.214 C 43.4 45.074 43.455 44.8 43.627 44.609 C 43.82 44.394 44.14 44.243 44.382 44.004 C 44.645 43.746 44.965 43.29 45.138 43.097 C 45.241 42.983 45.227 43.003 45.365 42.871 C 45.693 42.558 46.694 41.398 47.406 40.981 C 48.036 40.612 48.605 40.345 49.371 40.376 Z M 76.129 40.83 C 77.06 40.873 78.661 41.279 79.38 42.039 C 80.106 42.808 80.429 44.508 80.438 45.441 C 80.445 46.168 80.224 46.64 79.833 47.255 C 79.346 48.021 78.729 48.537 77.49 49.598 C 75.318 51.458 69.154 56.502 66.756 57.761 C 65.447 58.449 64.735 58.526 63.884 58.517 C 63.15 58.51 62.469 58.242 61.919 57.913 C 61.395 57.6 60.944 57.199 60.634 56.628 C 60.273 55.964 59.931 54.908 60.029 54.058 C 60.131 53.169 60.305 52.561 61.314 51.412 C 63.315 49.135 71.818 42.767 74.164 41.434 C 75.19 40.852 75.374 40.795 76.129 40.83 Z M 120.273 8.629 C 121.295 8.604 122.804 9.053 123.523 9.839 C 124.272 10.658 124.644 12.356 124.581 13.543 C 124.52 14.697 123.929 15.576 123.221 16.868 C 122.269 18.603 120.904 20.585 118.988 23.067 C 116.36 26.468 111.886 31.685 108.254 35.614 C 104.752 39.402 100.62 43.355 97.596 46.272 C 95.197 48.587 92.998 51.085 91.398 52.017 C 90.416 52.589 89.734 52.638 88.979 52.622 C 88.28 52.607 87.564 52.346 87.014 52.017 C 86.49 51.704 86.039 51.314 85.729 50.732 C 85.361 50.041 85.042 48.876 85.124 48.011 C 85.205 47.164 85.706 46.292 86.183 45.592 C 86.645 44.912 87.344 44.359 87.921 43.853 C 88.452 43.388 89.232 42.91 89.508 42.644 C 89.651 42.507 89.565 42.518 89.735 42.342 C 90.203 41.856 92.381 40.075 93.288 39.167 C 93.978 38.475 94.595 37.656 94.875 37.353 C 95 37.217 94.982 37.231 95.102 37.126 C 95.315 36.94 95.931 36.551 96.16 36.295 C 96.327 36.107 96.31 35.929 96.462 35.765 C 96.642 35.572 96.911 35.517 97.218 35.236 C 97.692 34.804 98.488 33.806 99.032 33.195 C 99.506 32.664 100.5 31.718 100.317 31.759 C 99.968 31.838 94.236 36.17 92.532 37.731 C 91.427 38.743 91.221 39.658 90.34 40.225 C 89.476 40.781 88.199 41.124 87.316 41.132 C 86.573 41.139 85.901 40.856 85.351 40.527 C 84.828 40.214 84.377 39.814 84.066 39.242 C 83.706 38.579 83.364 37.523 83.461 36.672 C 83.563 35.784 84.386 34.488 84.746 34.027 C 84.943 33.775 85.06 33.862 85.275 33.649 C 85.626 33.301 86.349 32.204 86.636 31.91 C 86.778 31.765 86.797 31.798 86.938 31.684 C 87.176 31.491 87.783 30.972 87.997 30.777 C 88.115 30.668 88.05 30.701 88.223 30.55 C 88.79 30.054 90.494 28.486 93.061 26.619 C 97.798 23.174 114.855 12.468 117.022 10.595 C 117.57 10.122 117.225 10.091 117.552 9.839 C 118.074 9.436 119.311 8.653 120.273 8.629 Z M 100.847 31.306 C 100.826 31.312 100.821 31.432 100.847 31.457 C 100.872 31.482 100.991 31.477 100.998 31.457 C 101.005 31.433 100.87 31.298 100.847 31.306 Z M 113.621 49.749 C 114.763 49.715 116.153 50.185 116.871 50.959 C 117.609 51.753 117.981 53.466 117.929 54.511 C 117.885 55.424 117.594 55.855 116.871 56.93 C 115.59 58.834 110.426 64.361 109.539 65.169 C 109.295 65.392 109.262 65.295 109.161 65.396 C 109.06 65.497 109.035 65.673 108.934 65.774 C 108.834 65.875 108.657 65.9 108.557 66.001 C 108.456 66.101 108.411 66.274 108.33 66.378 C 108.258 66.471 108.336 66.386 108.103 66.605 C 106.676 67.947 94.499 79.658 86.107 86.787 C 82.452 89.892 77.853 93.649 73.156 97.402 C 76.859 95.358 80.561 93.355 83.99 91.625 C 94.416 86.366 110.339 77.551 115.435 76.81 C 117.527 76.505 118.22 77.248 118.988 78.019 C 119.727 78.761 120.032 80.365 120.046 81.269 C 120.057 81.986 119.91 82.275 119.441 83.083 C 118.613 84.513 116.845 86.543 114.452 89.282 C 110.715 93.561 100.911 104.989 97.899 107.045 C 96.687 107.872 96.235 107.666 95.48 107.649 C 94.781 107.635 94.065 107.374 93.515 107.045 C 92.991 106.732 92.539 106.352 92.23 105.76 C 91.854 105.043 91.536 103.786 91.625 102.887 C 91.71 102.027 92.113 101.354 92.683 100.469 C 93.424 99.317 95.509 97.107 96.009 96.614 C 96.186 96.439 96.164 96.502 96.311 96.387 C 96.571 96.183 97.105 95.809 97.521 95.404 C 98.007 94.931 99.04 93.891 99.032 93.666 C 99.029 93.556 99.028 93.474 98.655 93.59 C 96.053 94.397 64.483 112.271 54.814 116.569 C 49.241 119.046 45.214 120.485 43.022 120.651 C 42.048 120.724 41.673 120.433 41.196 120.132 C 39.783 120.831 38.469 121.416 37.58 121.709 C 36.68 122.005 36.265 122.059 35.614 122.011 C 34.955 121.963 34.199 121.735 33.649 121.406 C 33.125 121.093 32.674 120.693 32.364 120.121 C 32.003 119.458 31.636 118.426 31.759 117.552 C 31.895 116.59 32.292 115.555 33.347 114.604 C 34.931 113.174 38.947 112.135 41.661 110.522 C 44.469 108.852 48.81 105.671 49.9 104.702 C 50.308 104.339 49.872 104.534 50.429 104.021 C 53.133 101.537 83.526 78.031 85.427 76.432 C 85.691 76.209 85.528 76.317 85.653 76.205 C 85.896 75.988 86.826 75.396 86.938 75.147 C 86.996 75.019 87.112 74.814 86.863 74.844 C 84.937 75.076 53.022 93.147 40.905 99.032 C 32.114 103.303 24.342 106.929 19.59 108.405 C 16.833 109.262 15.077 109.38 13.694 109.312 C 12.79 109.269 12.278 109.037 11.728 108.708 C 11.205 108.395 10.754 108.005 10.443 107.423 C 10.075 106.732 9.76 105.575 9.839 104.702 C 9.917 103.838 9.985 103.172 10.897 102.207 C 12.6 100.405 17.73 97.744 21.857 95.404 C 26.579 92.727 32.144 90.335 37.882 87.09 C 44.379 83.414 54.44 77.229 58.895 74.24 C 61.515 72.482 63.496 70.965 64.111 70.309 C 64.332 70.073 64.227 69.98 64.338 69.856 C 64.452 69.727 64.598 69.696 64.791 69.553 C 65.077 69.342 65.704 68.867 65.925 68.646 C 66.054 68.517 66.08 68.46 66.152 68.344 C 66.232 68.213 66.212 68.076 66.378 67.89 C 66.682 67.552 67.648 67.037 68.193 66.53 C 68.73 66.028 69.269 65.205 69.629 64.867 C 69.85 64.659 69.984 64.656 70.158 64.489 C 70.362 64.293 70.524 64.026 70.763 63.733 C 71.059 63.368 71.265 62.82 71.821 62.448 C 72.578 61.941 74.159 61.21 75.222 61.239 C 76.216 61.265 77.378 61.736 78.019 62.448 C 78.691 63.193 79.097 64.732 79.077 65.698 C 79.06 66.543 78.772 67.093 78.17 67.966 C 77.273 69.267 73.585 72.25 73.484 72.652 C 73.457 72.759 73.502 72.786 73.711 72.728 C 74.927 72.389 85.094 66.659 90.945 63.204 C 97.077 59.582 105.891 53.458 109.69 51.412 C 111.657 50.353 112.38 49.787 113.621 49.749 Z" style="stroke-width: 2px; fill: rgb(255, 255, 255);"/>
</svg>