<?xml version="1.0" encoding="utf-8"?>
<svg version="1.0" width="125.000000pt" height="103.000000pt" viewBox="0 0 125.000000 103.000000" preserveAspectRatio="xMidYMid meet" xmlns="http://www.w3.org/2000/svg">
  <g transform="translate(0.000000,103.000000) scale(0.100000,-0.100000)" fill="#000000" stroke="none">
    <path d="M680 990 c-80 -37 -150 -123 -150 -185 0 -29 -8 -30 -74 -10 -70 21 -127 57 -200 126 -35 32 -68 59 -73 59 -4 0 -22 -13 -39 -28 -28 -25 -32 -37 -38 -103 -4 -43 -2 -89 4 -109 12 -43 13 -40 -5 -40 -27 0 -55 -42 -55 -82 0 -48 20 -88 61 -122 28 -24 30 -28 17 -44 -49 -56 -13 -129 87 -180 l40 -21 -88 -40 c-48 -23 -91 -41 -95 -41 -5 0 -19 -11 -31 -24 -38 -40 -23 -70 47 -97 51 -21 75 -23 222 -23 141 -1 177 2 250 22 100 27 215 83 295 143 75 57 177 185 225 284 41 84 49 124 36 186 -8 36 -7 37 45 65 85 47 91 86 18 111 -20 7 -32 17 -30 25 2 7 6 36 9 65 4 44 2 53 -17 62 -17 9 -30 7 -71 -14 l-51 -26 -57 28 c-78 38 -214 44 -282 13z m222 -61 c20 -5 51 -21 68 -36 l32 -26 45 22 c38 18 45 19 39 6 -19 -50 -18 -64 8 -90 l25 -25 -39 -20 c-21 -11 -41 -24 -44 -28 -3 -5 2 -32 11 -60 16 -48 16 -55 0 -104 -28 -88 -87 -178 -177 -268 -68 -69 -102 -94 -170 -127 -47 -23 -112 -49 -145 -58 -83 -23 -311 -32 -382 -15 l-54 13 89 43 c61 30 97 54 116 79 27 35 29 62 4 69 -91 26 -158 67 -158 96 0 5 11 10 25 10 40 0 75 21 75 45 0 17 -16 32 -66 61 -55 32 -94 73 -94 98 0 3 28 5 63 3 58 -2 62 -1 65 22 2 14 -6 33 -21 50 -13 14 -30 36 -36 48 -11 22 -16 163 -5 163 4 0 34 -25 67 -56 75 -69 158 -110 242 -119 83 -9 105 -2 105 36 0 16 7 46 15 66 44 105 148 141 297 102z" style="fill: rgb(255, 255, 255);"/>
  </g>
  <path stroke-width="0" d="M 89.037 7.081 C 89.76 6.995 90.305 7.093 90.891 7.346 C 91.524 7.618 92.253 8.074 92.679 8.736 C 93.165 9.493 93.593 10.623 93.474 11.783 C 93.325 13.235 92.309 14.881 91.222 16.816 C 89.806 19.338 88.532 21.293 85.262 25.691 C 79.167 33.889 54.435 63.645 53.604 65.296 C 53.284 65.932 55.309 63.659 56.982 62.051 C 59.935 59.211 68.958 50.641 70.956 48.606 C 71.709 47.84 71.418 48.022 72.082 47.348 C 73.509 45.898 78.644 41.185 80.361 39.467 C 81.34 38.486 81.802 37.869 82.281 37.414 C 82.591 37.119 82.552 37.247 83.01 36.817 C 84.331 35.579 89.398 30.078 92.348 27.347 C 94.947 24.941 97.614 22.416 99.766 21.121 C 101.353 20.166 102.862 19.592 104.004 19.532 C 104.864 19.487 105.586 19.877 106.124 20.194 C 106.572 20.458 106.846 20.667 107.117 21.187 C 107.509 21.94 108.025 23.403 107.912 24.631 C 107.783 26.028 106.84 27.636 106.057 29.135 C 105.227 30.727 104.774 31.323 103.011 33.903 C 99.317 39.311 82.566 61.977 82.083 63.177 C 81.954 63.496 82.375 62.93 83.076 62.316 C 85.323 60.344 97.18 49.641 101.223 46.288 C 103.587 44.327 104.836 43.161 106.256 42.447 C 107.271 41.937 108.082 41.766 108.905 41.785 C 109.663 41.802 110.487 42.13 111.025 42.447 C 111.473 42.711 111.745 42.946 112.018 43.44 C 112.389 44.111 112.845 45.477 112.813 46.354 C 112.784 47.136 112.399 47.878 112.018 48.474 C 111.658 49.037 111.293 49.321 110.627 49.865 C 109.65 50.663 108.74 50.9 106.389 52.779 C 100.956 57.119 80.236 75.44 75.062 80.33 C 72.765 82.501 72.603 83.499 71.287 84.303 C 70.18 84.981 68.83 85.237 67.843 85.231 C 67.027 85.226 66.282 84.9 65.724 84.568 C 65.235 84.278 64.896 83.872 64.598 83.443 C 64.3 83.012 64.073 82.568 63.936 81.985 C 63.772 81.286 63.591 80.557 63.803 79.469 C 64.129 77.802 64.968 75.762 66.585 72.713 C 69.254 67.684 79.993 51.999 80.228 51.123 C 80.28 50.932 80.074 51.188 79.765 51.454 C 78.752 52.325 73.087 57.707 71.751 59.07 C 71.15 59.684 71.395 59.543 70.758 60.196 C 69.189 61.803 62.517 68.032 60.492 70.064 C 59.406 71.154 59.384 71.307 58.439 72.25 C 57.019 73.666 53.051 77.17 52.412 77.946 C 52.214 78.186 52.35 78.173 52.213 78.343 C 51.971 78.645 51.416 79.022 50.823 79.601 C 49.94 80.462 48.904 81.687 47.313 83.244 C 44.963 85.543 39.886 90.643 37.511 92.383 C 36.086 93.427 35.236 93.785 34.199 94.105 C 33.311 94.38 32.473 94.447 31.683 94.37 C 30.932 94.298 30.101 94.025 29.563 93.708 C 29.115 93.444 28.841 93.229 28.57 92.715 C 28.183 91.982 27.619 90.7 27.775 89.403 C 27.979 87.703 28.888 86.133 30.557 83.31 C 33.467 78.388 39.769 69.623 46.054 61.322 C 53.771 51.131 73.792 27.742 74.268 26.353 C 74.323 26.191 74.267 26.201 74.069 26.287 C 72.504 26.969 52.966 43.117 44.663 48.672 C 38.311 52.923 31.271 56.628 28.239 58.077 C 26.825 58.752 26.483 58.828 25.589 59.004 C 24.716 59.176 23.802 59.247 22.94 59.137 C 22.08 59.026 21.054 58.714 20.424 58.342 C 19.909 58.038 19.596 57.646 19.298 57.216 C 18.999 56.785 18.772 56.333 18.635 55.759 C 18.475 55.086 18.4 54.232 18.503 53.375 C 18.621 52.397 18.974 51.259 19.43 50.196 C 19.922 49.052 20.335 48.161 21.417 46.752 C 23.068 44.601 26.98 40.793 29.298 38.473 C 31.207 36.564 34.295 34.065 34.398 33.638 C 34.428 33.512 34.322 33.53 34.067 33.572 C 33.067 33.737 27.076 36.421 24.397 37.016 C 22.36 37.469 20.504 37.474 19.232 37.414 C 18.357 37.372 17.922 37.321 17.245 37.016 C 16.449 36.658 15.337 36.079 14.794 35.228 C 14.201 34.297 13.922 32.705 13.999 31.519 C 14.074 30.368 14.52 29.62 15.192 28.208 C 16.203 26.081 19.161 21.834 20.093 19.73 C 20.696 18.367 20.6 17.292 21.02 16.551 C 21.333 15.999 21.629 15.713 22.146 15.426 C 22.775 15.075 23.868 14.749 24.662 14.763 C 25.408 14.777 26.244 15.108 26.782 15.426 C 27.23 15.69 27.505 15.887 27.775 16.419 C 28.176 17.211 28.613 18.968 28.57 20.128 C 28.529 21.21 28.138 22.023 27.643 23.174 C 27.015 24.633 24.859 27.921 24.861 28.208 C 24.862 28.284 24.863 28.213 25.06 28.141 C 26.268 27.704 39.547 22.381 43.471 21.254 C 45.661 20.625 46.793 20.404 47.975 20.459 C 48.86 20.5 49.556 20.804 50.094 21.121 C 50.542 21.385 50.815 21.614 51.088 22.115 C 51.464 22.806 52.042 24.037 51.882 25.161 C 51.686 26.543 50.785 27.904 49.366 29.797 C 47.183 32.707 41.424 38.273 38.703 40.99 C 36.828 42.862 34.368 44.808 34.265 45.162 C 34.239 45.254 34.29 45.289 34.464 45.229 C 35.463 44.883 42.551 40.11 48.107 36.089 C 55.711 30.586 69.916 18.842 76.586 14.101 C 80.713 11.167 83.482 9.41 85.725 8.273 C 87.156 7.548 88.106 7.191 89.037 7.081 Z M 74.4 26.155 L 74.4 26.287 L 74.4 26.155 Z M 34.265 45.229 L 34.265 45.361 L 34.265 45.229 Z M 34.133 45.361 L 34.133 45.493 L 34.133 45.361 Z M 33.869 45.625 L 34.001 45.626 L 33.869 45.625 Z M 80.758 50.527 L 80.758 50.659 L 80.758 50.527 Z M 80.626 50.659 L 80.626 50.792 L 80.626 50.659 Z M 80.493 50.792 L 80.493 50.924 L 80.493 50.792 Z M 80.361 50.924 L 80.361 51.057 L 80.361 50.924 Z M 82.083 63.243 L 82.083 63.375 L 82.083 63.243 Z M 81.95 63.375 L 81.95 63.508 L 81.95 63.375 Z M 53.604 65.362 L 53.604 65.495 L 53.604 65.362 Z M 53.472 65.495 L 53.472 65.627 L 53.472 65.495 Z M 53.339 65.627 L 53.339 65.759 L 53.339 65.627 Z M 53.207 65.759 L 53.207 65.892 L 53.207 65.759 Z M 53.074 65.892 L 53.074 66.024 L 53.074 65.892 Z M 52.942 66.024 L 52.942 66.157 L 52.942 66.024 Z M 52.81 66.157 L 52.81 66.289 L 52.81 66.157 Z M 52.677 66.289 L 52.677 66.422 L 52.677 66.289 Z" style="stroke-width: 2px; fill: rgb(255, 255, 255);"/>
</svg>