<?xml version="1.0" encoding="utf-8"?>
<svg version="1.0" width="147.000000pt" height="90.000000pt" viewBox="0 0 147.000000 90.000000" preserveAspectRatio="xMidYMid meet" xmlns="http://www.w3.org/2000/svg">
  <g transform="matrix(0.102062, 0, 0, -0.1, 14.429048, 89.935005)" fill="#000000" stroke="none">
    <path d="M715 884 c-22 -2 -107 -8 -190 -14 -238 -18 -428 -63 -485 -116 l-26 -24 -2 -229 c-4 -265 8 -378 42 -409 24 -23 113 -55 204 -72 205 -40 778 52 854 137 45 51 82 384 60 542 -9 62 -16 79 -43 107 -56 57 -117 77 -254 79 -66 2 -138 1 -160 -1z m318 -98 c63 -31 68 -46 70 -208 2 -185 -23 -338 -62 -374 -43 -40 -357 -106 -566 -120 -137 -9 -322 22 -363 61 -19 17 -29 179 -24 387 l4 177 62 20 c107 36 206 52 375 61 90 5 166 12 170 15 3 4 71 5 151 3 117 -3 152 -7 183 -22z" style="fill: rgb(255, 255, 255);"/>
    <path d="M485 588 l-27 -21 8 -126 c7 -135 10 -172 12 -183 5 -20 52 -4 97 33 28 23 76 59 108 81 95 65 98 99 11 137 -24 11 -63 33 -88 50 -71 49 -90 53 -121 29z m160 -148 c-2 -3 -24 -20 -49 -38 l-45 -32 -6 47 c-3 27 -8 60 -10 75 l-4 27 59 -37 c32 -20 57 -39 55 -42z" style="fill: rgb(255, 255, 255);"/>
  </g>
  <path stroke-width="0" d="M 88.708 1.207 C 89.704 0.956 90.324 1.201 90.972 1.409 C 91.555 1.596 92.06 1.921 92.463 2.316 C 92.866 2.71 93.196 3.19 93.388 3.777 C 93.61 4.451 93.757 5.388 93.595 6.196 C 93.418 7.067 92.903 7.87 92.257 8.816 C 91.452 9.996 89.387 12.264 88.914 12.696 C 88.763 12.835 88.82 12.691 88.657 12.848 C 88.042 13.438 84.076 18.565 83.514 19.147 C 83.373 19.292 83.486 19.12 83.307 19.298 C 82.217 20.382 69.478 35.009 67.724 36.784 C 67.256 37.258 67.341 37.063 67.055 37.338 C 66.608 37.77 65.743 38.825 65.256 39.303 C 64.907 39.646 64.574 39.854 64.381 40.059 C 64.251 40.198 64.233 40.3 64.124 40.412 C 64.001 40.537 63.784 40.64 63.661 40.765 C 63.551 40.876 63.514 41.006 63.404 41.118 C 63.28 41.243 63.049 41.378 62.941 41.47 C 62.869 41.532 62.849 41.547 62.786 41.621 C 62.692 41.734 62.573 41.983 62.426 42.125 C 62.281 42.268 62.028 42.385 61.913 42.478 C 61.836 42.539 61.821 42.555 61.758 42.629 C 61.664 42.742 61.544 42.99 61.398 43.133 C 61.252 43.276 60.999 43.393 60.884 43.486 C 60.808 43.547 60.778 43.572 60.73 43.637 C 60.673 43.716 60.663 43.842 60.576 43.939 C 60.463 44.063 60.176 44.199 60.061 44.292 C 59.986 44.353 59.954 44.378 59.906 44.443 C 59.85 44.522 59.829 44.67 59.753 44.746 C 59.674 44.821 59.524 44.841 59.444 44.897 C 59.377 44.943 59.338 44.982 59.29 45.048 C 59.232 45.127 59.213 45.275 59.135 45.35 C 59.058 45.426 58.907 45.446 58.826 45.502 C 58.76 45.548 58.743 45.577 58.672 45.653 C 58.555 45.781 58.304 46.132 58.158 46.258 C 58.061 46.342 57.972 46.355 57.902 46.409 C 57.838 46.456 57.794 46.494 57.745 46.56 C 57.689 46.639 57.67 46.787 57.592 46.862 C 57.516 46.938 57.365 46.957 57.284 47.013 C 57.217 47.06 57.177 47.099 57.13 47.165 C 57.073 47.243 57.052 47.391 56.975 47.467 C 56.898 47.543 56.747 47.562 56.666 47.618 C 56.599 47.665 56.593 47.701 56.512 47.769 C 56.375 47.886 56.021 48.094 55.844 48.273 C 55.687 48.432 55.812 48.461 55.484 48.777 C 54.344 49.872 45.771 56.259 44.529 57.394 C 44.149 57.742 44.228 57.793 44.065 57.948 C 44.012 58 43.949 58.047 43.886 58.09 C 46.042 57.094 48.09 56.108 49.312 55.429 C 50.994 54.493 51.318 53.912 52.706 53.111 C 54.433 52.114 57.081 50.89 59.084 49.987 C 60.899 49.168 62.906 48.099 64.226 47.87 C 65.133 47.713 65.76 47.868 66.386 48.072 C 66.963 48.259 67.475 48.584 67.879 48.979 C 68.281 49.373 68.612 49.86 68.805 50.44 C 69.021 51.094 69.158 52.017 69.01 52.758 C 68.859 53.513 68.795 54.128 67.879 54.925 C 66.138 56.437 59.381 58.823 56.821 60.266 C 55.131 61.22 55.078 61.669 53.221 62.685 C 50.009 64.443 42.045 68.164 37.688 69.841 C 34.464 71.082 31.254 71.984 29.308 72.406 C 29.041 72.593 28.752 72.758 28.431 72.864 C 27.812 73.071 26.991 73.198 26.271 73.066 C 25.5 72.925 24.507 72.434 23.957 71.957 C 23.485 71.549 23.223 71.076 23.031 70.496 C 22.814 69.842 22.594 69.009 22.825 68.178 C 22.977 67.634 23.497 66.84 24.009 66.151 C 24.059 66.08 24.11 66.012 24.162 65.946 C 24.568 65.411 24.943 64.968 25.088 64.802 C 25.201 64.672 25.214 64.698 25.294 64.651 C 25.383 64.597 25.525 64.575 25.602 64.499 C 25.68 64.424 25.682 64.28 25.757 64.197 C 25.835 64.111 25.914 64.129 26.065 63.995 C 26.383 63.716 27.322 62.562 27.66 62.282 C 27.828 62.143 27.894 62.186 28.02 62.081 C 28.182 61.944 28.389 61.602 28.534 61.476 C 28.631 61.391 28.722 61.392 28.791 61.325 C 28.86 61.258 28.87 61.151 28.946 61.073 C 29.033 60.981 29.21 60.917 29.306 60.821 C 29.395 60.731 29.423 60.594 29.511 60.518 C 29.596 60.445 29.741 60.431 29.82 60.367 C 29.89 60.311 29.911 60.248 29.974 60.166 C 30.057 60.057 30.198 59.86 30.283 59.763 C 30.343 59.693 30.361 59.672 30.437 59.611 C 30.552 59.518 30.794 59.409 30.951 59.259 C 31.123 59.096 31.303 58.782 31.414 58.654 C 31.481 58.577 31.49 58.569 31.569 58.503 C 31.698 58.394 32.056 58.172 32.186 58.049 C 32.269 57.97 32.23 57.962 32.34 57.848 C 32.622 57.554 33.723 56.662 34.346 56.034 C 34.955 55.418 35.66 54.483 36.043 54.119 C 36.253 53.918 36.401 53.879 36.505 53.766 C 36.586 53.679 36.585 53.592 36.66 53.514 C 36.748 53.422 36.906 53.37 37.02 53.262 C 37.147 53.141 37.265 52.911 37.38 52.808 C 37.469 52.73 37.542 52.74 37.637 52.657 C 37.773 52.539 37.929 52.271 38.101 52.103 C 38.272 51.935 38.523 51.797 38.666 51.649 C 38.781 51.529 38.67 51.536 38.923 51.297 C 39.935 50.339 49.167 43.265 49.981 42.579 C 50.134 42.45 50.055 42.496 50.135 42.428 C 50.272 42.311 50.666 42.055 50.803 41.924 C 50.889 41.842 50.908 41.8 50.958 41.722 C 51.012 41.635 51.035 41.495 51.112 41.42 C 51.189 41.344 51.34 41.325 51.421 41.269 C 51.488 41.222 51.528 41.183 51.575 41.118 C 51.631 41.039 51.652 40.891 51.729 40.815 C 51.806 40.74 51.957 40.72 52.038 40.664 C 52.103 40.617 52.125 40.59 52.192 40.513 C 52.303 40.385 52.508 40.033 52.656 39.908 C 52.762 39.818 52.883 39.813 52.964 39.757 C 53.03 39.71 53.069 39.671 53.118 39.606 C 53.175 39.527 53.195 39.379 53.272 39.303 C 53.35 39.228 53.501 39.208 53.581 39.152 C 53.648 39.106 53.687 39.067 53.735 39.001 C 53.792 38.922 53.802 38.796 53.889 38.699 C 54.002 38.575 54.289 38.439 54.404 38.346 C 54.479 38.285 54.509 38.26 54.558 38.195 C 54.615 38.116 54.636 37.968 54.712 37.892 C 54.79 37.817 54.931 37.818 55.021 37.741 C 55.121 37.656 55.185 37.474 55.279 37.389 C 55.358 37.315 55.455 37.311 55.535 37.237 C 55.629 37.151 55.699 36.971 55.792 36.885 C 55.873 36.811 55.979 36.787 56.049 36.733 C 56.112 36.686 56.13 36.661 56.204 36.582 C 56.337 36.44 56.658 36.017 56.821 35.877 C 56.924 35.788 56.998 35.799 57.078 35.726 C 57.172 35.64 57.225 35.485 57.335 35.373 C 57.459 35.248 57.675 35.145 57.798 35.02 C 57.909 34.908 57.933 34.795 58.056 34.667 C 58.216 34.5 58.53 34.305 58.724 34.113 C 58.904 33.934 59.025 33.714 59.185 33.559 C 59.334 33.416 59.427 33.412 59.65 33.206 C 60.073 32.81 61.152 31.527 61.655 31.039 C 61.983 30.721 62.027 30.774 62.426 30.384 C 63.268 29.564 66.758 26 66.85 25.647 C 66.87 25.567 66.857 25.532 66.696 25.597 C 65.329 26.144 46.776 38.978 38.923 44.746 C 32.399 49.538 24.71 56.143 22.259 57.848 C 21.378 58.461 21.408 58.482 20.819 58.654 C 20.117 58.859 19.062 59.007 18.247 58.855 C 17.434 58.704 16.483 58.223 15.934 57.747 C 15.462 57.338 15.199 56.858 15.008 56.286 C 14.796 55.651 14.589 54.896 14.802 54.068 C 15.079 52.992 16.655 50.818 17.065 50.39 C 17.213 50.235 17.25 50.345 17.374 50.238 C 17.587 50.054 17.945 49.422 18.196 49.18 C 18.38 49.003 18.595 48.921 18.711 48.827 C 18.786 48.767 18.809 48.747 18.865 48.676 C 18.942 48.58 19.019 48.367 19.122 48.273 C 19.212 48.192 19.278 48.247 19.43 48.122 C 19.783 47.833 20.862 46.438 21.282 46.056 C 21.513 45.846 21.664 45.83 21.796 45.703 C 21.911 45.593 21.96 45.436 22.053 45.35 C 22.134 45.277 22.149 45.342 22.311 45.199 C 22.864 44.712 25.682 41.44 26.631 40.513 C 27.16 39.996 27.334 39.974 27.763 39.555 C 28.325 39.005 29.23 37.848 29.717 37.389 C 30.02 37.101 30.152 37.107 30.437 36.834 C 30.854 36.435 31.562 35.47 31.98 35.07 C 32.265 34.798 32.399 34.8 32.699 34.516 C 33.17 34.071 34.131 32.832 34.552 32.45 C 34.782 32.24 34.934 32.224 35.065 32.097 C 35.18 31.987 35.212 31.856 35.322 31.745 C 35.446 31.62 35.643 31.53 35.786 31.392 C 35.936 31.247 36.204 30.968 36.197 30.888 C 36.193 30.842 36.188 30.794 36.043 30.838 C 35.141 31.11 24.721 37.473 22.465 38.699 C 21.509 39.218 21.445 39.335 20.819 39.505 C 20.125 39.693 19.221 39.848 18.454 39.707 C 17.66 39.56 16.714 39.15 16.139 38.598 C 15.571 38.053 15.186 37.131 15.008 36.431 C 14.85 35.809 14.852 35.244 15.008 34.617 C 15.185 33.907 15.528 33.268 16.139 32.4 C 17.006 31.166 19.582 28.395 20.151 27.915 C 20.331 27.762 20.346 27.865 20.459 27.764 C 20.638 27.604 20.898 27.066 21.077 26.907 C 21.19 26.806 21.3 26.83 21.385 26.756 C 21.473 26.68 21.505 26.573 21.591 26.453 C 21.7 26.3 21.866 26.017 22.002 25.899 C 22.105 25.811 22.177 25.858 22.311 25.748 C 22.563 25.54 23.157 24.695 23.391 24.488 C 23.509 24.384 23.554 24.43 23.648 24.337 C 23.797 24.191 24.002 23.727 24.162 23.581 C 24.27 23.483 24.349 23.533 24.471 23.43 C 24.674 23.258 25.053 22.645 25.243 22.473 C 25.35 22.375 25.405 22.415 25.5 22.321 C 25.649 22.175 25.853 21.712 26.014 21.565 C 26.121 21.467 26.214 21.513 26.323 21.414 C 26.483 21.268 26.701 20.805 26.837 20.658 C 26.918 20.57 26.965 20.587 27.042 20.507 C 27.158 20.388 27.317 20.07 27.453 19.953 C 27.556 19.864 27.618 19.925 27.763 19.802 C 28.078 19.531 28.989 18.208 29.306 17.937 C 29.45 17.814 29.513 17.881 29.614 17.786 C 29.755 17.654 29.885 17.263 30.025 17.131 C 30.126 17.036 30.147 17.157 30.334 16.98 C 31.04 16.312 34.772 10.799 36.043 9.572 C 36.684 8.954 36.92 8.853 37.483 8.665 C 38.103 8.459 38.923 8.332 39.643 8.464 C 40.414 8.605 41.407 9.096 41.957 9.572 C 42.429 9.981 42.691 10.454 42.883 11.034 C 43.1 11.688 43.365 12.38 43.089 13.352 C 42.659 14.867 38.437 19.061 39.283 19.348 C 40.66 19.816 57.245 8.633 60.215 7.153 C 61.253 6.636 61.328 6.645 61.862 6.549 C 62.353 6.459 62.763 6.419 63.302 6.549 C 63.98 6.712 65.065 7.181 65.615 7.657 C 66.087 8.066 66.35 8.546 66.541 9.119 C 66.752 9.753 66.945 10.556 66.746 11.336 C 66.509 12.269 65.279 13.903 64.896 14.309 C 64.734 14.481 64.699 14.389 64.536 14.511 C 64.245 14.726 63.662 15.244 63.25 15.67 C 62.821 16.114 62.316 16.86 62.016 17.131 C 61.842 17.287 61.702 17.307 61.604 17.383 C 61.532 17.438 61.524 17.455 61.45 17.534 C 61.317 17.676 60.994 18.1 60.833 18.24 C 60.73 18.328 60.647 18.337 60.576 18.391 C 60.511 18.438 60.468 18.476 60.421 18.542 C 60.364 18.621 60.344 18.769 60.266 18.844 C 60.19 18.92 60.039 18.94 59.958 18.995 C 59.892 19.042 59.896 19.048 59.804 19.147 C 59.569 19.4 58.721 20.469 58.313 20.86 C 58.03 21.131 57.838 21.187 57.592 21.414 C 57.309 21.677 56.922 22.199 56.718 22.372 C 56.605 22.467 56.522 22.46 56.461 22.523 C 56.406 22.58 56.342 22.683 56.358 22.724 C 56.372 22.761 56.354 22.839 56.512 22.775 C 57.807 22.253 76.209 8.602 81.817 5.037 C 85.06 2.974 87.067 1.62 88.708 1.207 Z M 113.498 3.122 C 114.153 3.04 115.032 3.12 115.658 3.324 C 116.234 3.511 116.746 3.836 117.149 4.231 C 117.553 4.625 117.881 5.105 118.075 5.692 C 118.297 6.366 118.493 7.084 118.281 8.111 C 117.96 9.659 116.456 12.407 115.401 14.259 C 114.42 15.974 113.809 16.789 112.212 18.895 C 109.613 22.319 103.434 29.38 100.178 33.609 C 97.567 37 96.342 39.228 93.8 42.478 C 90.785 46.332 83.26 54.765 83 55.278 C 82.938 55.397 82.98 55.277 83.36 55.026 C 85.863 53.365 120.389 30.792 124.812 28.116 C 125.973 27.415 125.764 27.48 126.355 27.31 C 127.013 27.121 127.873 26.972 128.618 27.109 C 129.4 27.252 130.382 27.741 130.933 28.217 C 131.404 28.626 131.666 29.091 131.859 29.679 C 132.08 30.353 132.252 31.163 132.064 32.097 C 131.818 33.322 130.955 34.926 130.006 36.431 C 128.905 38.181 126.271 41.278 125.636 41.924 C 125.427 42.136 125.493 41.976 125.276 42.176 C 124.634 42.765 121.687 46.095 120.801 46.963 C 120.359 47.396 120.23 47.407 119.926 47.719 C 119.565 48.089 119.101 48.792 118.796 49.079 C 118.594 49.269 118.413 49.305 118.281 49.432 C 118.166 49.543 118.116 49.699 118.023 49.785 C 117.944 49.859 117.847 49.863 117.766 49.936 C 117.673 50.022 117.603 50.203 117.51 50.289 C 117.429 50.362 117.377 50.336 117.253 50.44 C 116.992 50.658 116.226 51.583 115.966 51.801 C 115.841 51.905 115.778 51.885 115.709 51.952 C 115.641 52.019 115.63 52.125 115.555 52.204 C 115.467 52.295 115.309 52.348 115.195 52.456 C 115.067 52.577 114.951 52.806 114.835 52.909 C 114.747 52.988 114.657 52.987 114.578 53.06 C 114.485 53.146 114.432 53.301 114.32 53.413 C 114.197 53.538 113.963 53.653 113.858 53.766 C 113.777 53.852 113.789 53.925 113.703 54.018 C 113.581 54.151 113.259 54.339 113.137 54.471 C 113.054 54.564 113.095 54.601 112.982 54.723 C 112.738 54.992 111.838 55.654 111.389 56.084 C 111.002 56.454 110.792 56.78 110.412 57.142 C 109.983 57.55 109.154 58.146 108.92 58.402 C 108.811 58.522 108.894 58.513 108.765 58.654 C 108.41 59.043 106.701 60.397 105.938 61.123 C 105.325 61.706 104.874 62.275 104.445 62.685 C 104.113 63.004 103.788 63.219 103.572 63.441 C 103.408 63.61 103.369 63.733 103.212 63.895 C 103.013 64.097 102.5 64.408 102.44 64.55 C 102.411 64.618 102.382 64.709 102.491 64.701 C 103.105 64.658 109.712 61.046 112.982 59.158 C 116.066 57.379 119.791 54.675 121.623 53.716 C 122.617 53.196 123.044 53.034 123.681 52.909 C 124.233 52.801 124.658 52.774 125.224 52.909 C 125.918 53.075 126.988 53.542 127.538 54.018 C 128.01 54.426 128.271 54.892 128.463 55.479 C 128.685 56.153 128.86 56.929 128.67 57.898 C 128.408 59.234 127.18 61.409 126.407 62.836 C 125.736 64.076 124.998 64.772 124.35 66.062 C 123.575 67.603 123.092 70.003 122.189 71.605 C 121.364 73.07 120.085 74.607 119.258 75.384 C 118.713 75.896 118.38 76.104 117.818 76.291 C 117.198 76.497 116.378 76.625 115.658 76.493 C 114.886 76.351 113.894 75.86 113.343 75.384 C 112.872 74.975 112.609 74.503 112.418 73.923 C 112.2 73.268 111.966 72.477 112.212 71.605 C 112.541 70.439 114.865 67.899 114.886 67.573 C 114.891 67.49 114.898 67.477 114.733 67.523 C 113.411 67.885 93.693 78.222 89.017 80.423 C 86.819 81.458 86.218 81.833 85.004 82.137 C 83.993 82.39 83.086 82.499 82.227 82.338 C 81.393 82.183 80.463 81.706 79.913 81.23 C 79.442 80.821 79.179 80.34 78.987 79.768 C 78.775 79.134 78.572 78.336 78.782 77.551 C 79.038 76.594 80.504 74.845 80.787 74.477 C 80.879 74.359 80.858 74.415 80.942 74.326 C 81.127 74.129 81.728 73.363 81.971 73.167 C 82.103 73.06 82.172 73.103 82.279 73.016 C 82.425 72.898 82.632 72.582 82.742 72.461 C 82.811 72.387 82.827 72.389 82.896 72.31 C 83.015 72.175 83.243 71.831 83.411 71.655 C 83.55 71.507 83.633 71.487 83.822 71.302 C 84.148 70.983 84.936 70.06 85.262 69.74 C 85.451 69.555 85.525 69.502 85.674 69.387 C 85.831 69.266 85.97 69.235 86.187 69.035 C 86.553 68.698 87.445 67.575 87.679 67.321 C 87.77 67.223 87.742 67.266 87.834 67.17 C 88.063 66.931 88.907 65.939 89.274 65.608 C 89.508 65.396 89.587 65.431 89.84 65.205 C 90.279 64.811 91.365 63.501 91.742 63.189 C 91.919 63.044 91.915 63.13 92.102 62.988 C 92.527 62.666 94.107 61.195 94.417 60.871 C 94.531 60.753 94.508 60.752 94.571 60.67 C 94.654 60.561 94.681 60.475 94.88 60.266 C 95.318 59.806 96.978 58.416 97.605 57.797 C 98.019 57.389 98.131 57.187 98.48 56.84 C 98.896 56.426 99.661 55.805 99.971 55.479 C 100.16 55.281 100.11 55.249 100.332 55.026 C 100.784 54.57 102.312 53.373 102.955 52.758 C 103.417 52.316 103.972 51.786 103.983 51.649 C 103.988 51.594 104.009 51.526 103.829 51.599 C 101.916 52.373 60.732 80.348 54.661 84.152 C 52.799 85.318 52.916 85.382 51.985 85.664 C 51.095 85.935 50.068 86.026 49.209 85.866 C 48.376 85.71 47.444 85.233 46.895 84.757 C 46.424 84.348 46.16 83.868 45.969 83.296 C 45.756 82.661 45.658 81.74 45.763 81.078 C 45.859 80.476 46.127 80.005 46.483 79.466 C 46.894 78.846 47.29 78.432 48.18 77.601 C 49.694 76.19 54.747 72.363 55.535 71.554 C 55.774 71.309 55.589 71.361 55.792 71.151 C 56.301 70.623 58.975 68.652 59.546 68.128 C 59.785 67.909 59.713 67.918 59.906 67.724 C 60.261 67.37 61.171 66.618 61.706 66.062 C 62.208 65.543 62.663 64.867 63.044 64.499 C 63.318 64.235 63.517 64.189 63.764 63.945 C 64.064 63.647 64.495 62.982 64.69 62.786 C 64.787 62.689 64.816 62.683 64.896 62.635 C 64.985 62.581 65.097 62.585 65.204 62.484 C 65.366 62.331 65.518 61.892 65.718 61.677 C 65.901 61.481 66.082 61.462 66.336 61.224 C 66.733 60.85 67.505 59.804 67.879 59.46 C 68.099 59.258 68.28 59.222 68.392 59.107 C 68.477 59.022 68.472 58.934 68.547 58.855 C 68.635 58.764 68.793 58.712 68.906 58.604 C 69.033 58.483 69.151 58.253 69.266 58.15 C 69.356 58.071 69.429 58.092 69.524 57.999 C 69.673 57.852 69.842 57.449 70.039 57.243 C 70.222 57.052 70.447 56.991 70.656 56.789 C 70.908 56.545 71.216 56.035 71.427 55.832 C 71.568 55.697 71.518 55.85 71.786 55.58 C 73.075 54.294 82.705 42.998 85.88 39.051 C 87.905 36.535 90.034 33.81 90.097 33.408 C 90.11 33.319 90.031 33.323 89.943 33.357 C 89.676 33.459 88.407 34.717 88.142 35.02 C 88.029 35.151 88.073 35.179 87.988 35.272 C 87.867 35.405 87.546 35.617 87.422 35.726 C 87.346 35.792 87.354 35.802 87.268 35.877 C 87.103 36.021 86.556 36.42 86.394 36.582 C 86.303 36.672 86.32 36.707 86.239 36.784 C 86.118 36.898 85.794 37.053 85.674 37.187 C 85.584 37.288 85.616 37.39 85.519 37.489 C 85.385 37.627 84.987 37.776 84.851 37.892 C 84.763 37.967 84.82 37.971 84.697 38.094 C 84.32 38.468 81.933 40.43 81.559 40.765 C 81.444 40.868 81.502 40.839 81.404 40.916 C 81.188 41.087 80.606 41.635 80.066 41.823 C 79.464 42.034 78.627 42.156 77.907 42.025 C 77.136 41.883 76.143 41.392 75.593 40.916 C 75.121 40.507 74.86 40.042 74.666 39.455 C 74.447 38.78 74.256 37.84 74.462 37.036 C 74.69 36.143 75.903 34.702 76.159 34.365 C 76.245 34.25 76.183 34.325 76.313 34.214 C 76.823 33.78 80.691 30.871 81.456 30.132 C 81.781 29.819 81.782 29.653 81.92 29.527 C 82.014 29.441 82.088 29.455 82.177 29.376 C 82.292 29.273 82.264 29.197 82.536 28.923 C 83.322 28.132 86.353 25.37 88.708 23.48 C 91.391 21.328 97.14 17.501 97.914 16.728 C 98.105 16.538 97.967 16.531 98.069 16.425 C 98.217 16.268 98.69 16.079 98.84 15.922 C 98.941 15.816 98.887 15.743 98.995 15.619 C 99.183 15.403 99.825 15.006 100.075 14.763 C 100.249 14.59 100.318 14.412 100.435 14.309 C 100.523 14.23 100.621 14.212 100.692 14.158 C 100.754 14.11 100.744 14.109 100.845 14.007 C 101.141 13.708 102.711 12.088 103.005 11.789 C 103.108 11.687 103.091 11.717 103.16 11.638 C 103.279 11.503 103.504 11.138 103.674 10.983 C 103.812 10.859 103.99 10.825 104.085 10.731 C 104.165 10.654 104.165 10.558 104.241 10.479 C 104.327 10.388 104.512 10.319 104.6 10.227 C 104.674 10.149 104.685 10.043 104.755 9.975 C 104.823 9.908 104.931 9.898 105.012 9.824 C 105.105 9.738 105.193 9.56 105.268 9.471 C 105.326 9.405 105.353 9.379 105.424 9.32 C 105.522 9.237 105.735 9.101 105.835 9.018 C 105.905 8.959 105.933 8.937 105.989 8.867 C 106.066 8.77 106.143 8.557 106.245 8.464 C 106.336 8.382 106.473 8.368 106.554 8.312 C 106.621 8.266 106.624 8.236 106.709 8.161 C 106.874 8.017 107.42 7.618 107.582 7.456 C 107.673 7.366 107.606 7.385 107.737 7.254 C 108.184 6.81 110.791 4.378 111.852 3.727 C 112.526 3.313 112.896 3.197 113.498 3.122 Z M 104.292 51.297 C 104.254 51.305 104.171 51.481 104.189 51.498 C 104.205 51.515 104.386 51.435 104.395 51.397 C 104.402 51.366 104.322 51.29 104.292 51.297 Z" style="stroke-width: 2px; fill: rgb(255, 255, 255);"/>
</svg>