<?xml version="1.0" encoding="utf-8"?>
<svg version="1.0" width="147.000000pt" height="90.000000pt" viewBox="0 0 147.000000 90.000000" preserveAspectRatio="xMidYMid meet" xmlns="http://www.w3.org/2000/svg">
  <g transform="matrix(0.101947, 0, 0, -0.101947, -521.418091, -403.203094)" fill="#000000" stroke="none" style="transform-origin: 594.896px 448.223px;">
    <path d="M715 884 c-22 -2 -107 -8 -190 -14 -238 -18 -428 -63 -485 -116 l-26 -24 -2 -229 c-4 -265 8 -378 42 -409 24 -23 113 -55 204 -72 205 -40 778 52 854 137 45 51 82 384 60 542 -9 62 -16 79 -43 107 -56 57 -117 77 -254 79 -66 2 -138 1 -160 -1z m318 -98 c63 -31 68 -46 70 -208 2 -185 -23 -338 -62 -374 -43 -40 -357 -106 -566 -120 -137 -9 -322 22 -363 61 -19 17 -29 179 -24 387 l4 177 62 20 c107 36 206 52 375 61 90 5 166 12 170 15 3 4 71 5 151 3 117 -3 152 -7 183 -22z"/>
    <path d="M485 588 l-27 -21 8 -126 c7 -135 10 -172 12 -183 5 -20 52 -4 97 33 28 23 76 59 108 81 95 65 98 99 11 137 -24 11 -63 33 -88 50 -71 49 -90 53 -121 29z m160 -148 c-2 -3 -24 -20 -49 -38 l-45 -32 -6 47 c-3 27 -8 60 -10 75 l-4 27 59 -37 c32 -20 57 -39 55 -42z"/>
  </g>
</svg>